<?xml version="1.0" standalone="no"?>
<!DOCTYPE svg PUBLIC "-//W3C//DTD SVG 1.1//EN" "http://www.w3.org/Graphics/SVG/1.1/DTD/svg11.dtd" >
<svg xmlns="http://www.w3.org/2000/svg" xmlns:xlink="http://www.w3.org/1999/xlink" version="1.1">
<metadata>
Created by FontForge 20190801 at Sun Nov 29 11:34:24 2020
 By www-data
(c) 2020 VileR
</metadata>
<defs>
<font id="Flexi_IBM_VGA_False" horiz-adv-x="900" >
  <font-face 
    font-family="Flexi_IBM_VGA_False"
    font-weight="400"
    font-stretch="normal"
    units-per-em="1600"
    panose-1="0 0 0 9 0 0 0 0 0 0"
    ascent="1200"
    descent="-400"
    x-height="700"
    cap-height="1000"
    bbox="-1 -400 900 1200"
    underline-thickness="100"
    underline-position="-350"
    unicode-range="U+0001-FFFD"
  />
<missing-glyph 
d="M0 1200h900v-1600h-900v1600zM375 1000q-75 0 -116 -18q-4 -1 -6 -2q-89 -37 -128 -116q-24 -59 -25 -124v-15q0 -11 6 -17.5t12 -7.5h7h150l13 4q11 7 12 21v16v21v88q0 31 37 44q17 6 38 6h175q18 0 33 -15q0 -1 1 -1q16 -16 16 -54v-5q0 -62 -61 -140q-13 -16 -29 -35
q-85 -98 -102 -149q-8 -24 -8 -76v-100q0 -11 6 -17.5t12 -7.5h7h150l13 4q11 7 12 21v89q0 100 15 136q15 34 75 96q87 90 100 115q10 19 10 39q0 64 -70 129q-80 67 -155 71h-200zM425 200l-13 -4q-11 -7 -12 -21v-150q0 -11 6 -17.5t12 -7.5h7h150l13 4q11 7 12 21v150
q0 11 -6 17.5t-12 7.5h-7h-150z" />
    <glyph glyph-name=".notdef" 
d="M0 1200h900v-1600h-900v1600zM375 1000q-75 0 -116 -18q-4 -1 -6 -2q-89 -37 -128 -116q-24 -59 -25 -124v-15q0 -11 6 -17.5t12 -7.5h7h150l13 4q11 7 12 21v16v21v88q0 31 37 44q17 6 38 6h175q18 0 33 -15q0 -1 1 -1q16 -16 16 -54v-5q0 -62 -61 -140q-13 -16 -29 -35
q-85 -98 -102 -149q-8 -24 -8 -76v-100q0 -11 6 -17.5t12 -7.5h7h150l13 4q11 7 12 21v89q0 100 15 136q15 34 75 96q87 90 100 115q10 19 10 39q0 64 -70 129q-80 67 -155 71h-200zM425 200l-13 -4q-11 -7 -12 -21v-150q0 -11 6 -17.5t12 -7.5h7h150l13 4q11 7 12 21v150
q0 11 -6 17.5t-12 7.5h-7h-150z" />
    <glyph glyph-name="uni0000" 
 />
    <glyph glyph-name="uni0000" 
 />
    <glyph glyph-name="uni000D" unicode="&#xd;" 
d="M225 1000h550l13 -4q11 -7 12 -21v-250q0 -11 -6 -17.5t-12 -7.5h-7h-350l-13 -4q-11 -7 -12 -21v-450q0 -48 -21 -93q-35 -74 -109 -110q-2 -1 -3 -1q-46 -21 -117 -21q-77 0 -113 36q-9 10 -17 21q-20 30 -19 64v3q-1 83 93 142q34 22 73 34q29 9 32 31q1 7 1 19v625
q0 11 6.5 17.5t12.5 7.5h6zM425 900l-13 -4q-11 -7 -12 -21v-50q0 -11 6 -17.5t12 -7.5h7h150l13 4q11 7 12 21v50q0 11 -6 17.5t-12 7.5h-7h-150z" />
    <glyph glyph-name="uni0001" 
d="M200 1000h400q93 0 153 -71q47 -56 47 -129v-600q0 -93 -71 -153q-56 -47 -129 -47h-400q-93 0 -153 71q-47 56 -47 129v600q0 93 71 153q56 47 129 47zM200 900q-55 0 -84 -46q-16 -25 -16 -54v-600q0 -55 46 -84q25 -16 54 -16h400q55 0 84 46q16 25 16 54v600
q0 55 -46 84q-25 16 -54 16h-400zM225 800h50l13 -4q11 -7 12 -21v-50q0 -11 -6 -17.5t-12 -7.5h-7h-50l-13 4q-11 7 -12 21v50q0 11 6 17.5t12 7.5h7zM525 800h50l13 -4q11 -7 12 -21v-50q0 -11 -6 -17.5t-12 -7.5h-7h-50l-13 4q-11 7 -12 21v50q0 11 6 17.5t12 7.5h7z
M225 500h175h175q24 0 25 -24q-1 -18 -15 -40q-22 -34 -70 -76q-69 -60 -115 -60q-47 1 -115 60q-48 43 -70 76q-28 42 -7 59q8 5 17 5z" />
    <glyph glyph-name="uni0002" 
d="M200 1000h400q93 0 153 -71q47 -56 47 -129v-600q0 -93 -71 -153q-56 -47 -129 -47h-400q-93 0 -153 71q-47 56 -47 129v600q0 93 71 153q56 47 129 47zM225 800l-13 -4q-11 -7 -12 -21v-50q0 -11 6 -17.5t12 -7.5h7h50l13 4q11 7 12 21v50q0 11 -6 17.5t-12 7.5h-7h-50z
M525 800l-13 -4q-11 -7 -12 -21v-50q0 -11 6 -17.5t12 -7.5h7h50l13 4q11 7 12 21v50q0 11 -6 17.5t-12 7.5h-7h-50zM225 500q-24 0 -25 -24q1 -18 15 -40q22 -34 70 -76q69 -60 115 -60q47 1 115 60q48 43 70 76q28 42 7 59q-8 5 -17 5h-175h-175z" />
    <glyph glyph-name="uni0003" 
d="M198 801q57 -2 116 -66q18 -20 36 -60q20 42 36 60q86 93 167 52q44 -22 90 -87q19 -28 30 -53q25 -56 27 -124v-23q0 -92 -31 -151q-36 -66 -164 -194l-155 -155l-155 155q-130 130 -164 195q-31 59 -31 150q0 87 19 130q3 9 8 17q28 66 88 118q18 15 32 22q26 14 51 14
z" />
    <glyph glyph-name="uni0004" 
d="M0 450l350 350l350 -350l-350 -350z" />
    <glyph glyph-name="uni0005" 
d="M400 900q31 0 58 -13q55 -27 102 -101q5 -8 9 -15q28 -58 31 -121v-25q0 -11 6 -17.5t12 -7.5h7h75h50l21 -4q28 -13 29 -46v-200q0 -22 -12.5 -34.5t-25.5 -13.5l-12 -2h-225l-13 4q-11 7 -12 21v175v50v25q0 11 -6 17.5t-12 7.5h-7h-150l-13 -4q-11 -7 -12 -21v-25v-50
v-175q0 -11 -6 -17.5t-12 -7.5h-7h-225l-21 4q-28 13 -29 46v200q0 22 12.5 34.5t25.5 13.5l12 2h50h75l13 4q11 7 12 21v25q0 57 27 113q3 4 4 8q44 78 102 111q5 3 9 5q28 13 58 13zM325 300h150l13 -4q11 -7 12 -21v-150q0 -11 6 -17.5t12 -7.5h7h50l13 -4q11 -7 12 -21
v-50q0 -11 -6 -17.5t-12 -7.5h-7h-350l-13 4q-11 7 -12 21v50q0 11 6 17.5t12 7.5h7h50l13 4q11 7 12 21v150q0 11 6 17.5t12 7.5h7z" />
    <glyph glyph-name="uni0006" 
d="M400 900q13 0 99 -64q10 -7 18 -13q181 -140 250 -245q8 -13 14 -24q7 -14 12 -27.5t6 -19.5l1 -7q0 -65 -74 -130q-38 -32 -76 -48q-54 -22 -100 -22h-25l-13 -4q-11 -7 -12 -21v-150q0 -11 6 -17.5t12 -7.5h7h50l13 -4q11 -7 12 -21v-50q0 -11 -6 -17.5t-12 -7.5h-7
h-350l-13 4q-11 7 -12 21v50q0 11 6 17.5t12 7.5h7h50l13 4q11 7 12 21v150q0 11 -6 17.5t-12 7.5h-7h-25q-47 0 -100 22q-67 28 -115 89q-35 47 -35 89l10 33q4 11 9 21q53 99 237 248q14 11 27 21q82 63 113 76q3 1 4 1z" />
    <glyph glyph-name="uni0007" 
d="M600 400q0 -92 -70 -152q-57 -48 -130 -48q-92 0 -152 70q-48 57 -48 130q0 92 70 152q57 48 130 48q92 0 152 -70q48 -57 48 -130z" />
    <glyph glyph-name="uni0008" 
d="M0 1200h800v-1600h-800v1600zM400 600q-92 0 -152 -70q-48 -57 -48 -130q0 -92 70 -152q57 -48 130 -48q92 0 152 70q48 57 48 130q0 92 -70 152q-57 48 -130 48z" />
    <glyph glyph-name="uni0009" unicode="&#x9;" 
d="M350 700h100q110 0 184 -81q66 -72 66 -169v-100q0 -110 -81 -184q-72 -66 -169 -66h-100q-110 0 -184 81q-66 72 -66 169v100q0 110 81 184q72 66 169 66zM400 600q-92 0 -152 -70q-48 -57 -48 -130q0 -92 70 -152q57 -48 130 -48q92 0 152 70q48 57 48 130
q0 92 -70 152q-57 48 -130 48z" />
    <glyph glyph-name="uni000A" unicode="&#xa;" 
d="M0 1200h800v-1600h-800v1600zM350 700q-110 0 -184 -81q-66 -72 -66 -169v-100q0 -110 81 -184q72 -66 169 -66h100q110 0 184 81q66 72 66 169v100q0 110 -81 184q-72 66 -169 66h-100zM400 600q92 0 152 -70q48 -57 48 -130q0 -92 -70 -152q-57 -48 -130 -48
q-92 0 -152 70q-48 57 -48 130q0 92 70 152q57 48 130 48z" />
    <glyph glyph-name="uni000B" 
d="M325 1000h350l13 -4q11 -7 12 -21v-350q0 -11 -6 -17.5t-12 -7.5h-7h-50l-13 4q-11 7 -12 21v150l-4 13q-7 11 -21 12q-21 0 -66 -42q-14 -13 -34 -33l-75 -75l50 -50q107 -107 131 -155q16 -33 19 -79v-118q0 -58 -25 -112q-40 -80 -128 -116q-39 -16 -74 -18
q-22 -2 -48 -2h-50q-75 0 -116 18q-4 1 -6 2q-89 37 -128 116q-25 55 -25 112v118q4 61 37 108q30 42 113 126l200 200q49 53 50 75q0 11 -6 17.5t-12 7.5h-7h-50l-13 4q-11 7 -12 21v50q0 11 6 17.5t12 7.5h7zM250 500l-21 -4q-28 -13 -29 -46v-200v-100q0 -31 37 -44
q18 -6 38 -6h50q57 0 72 35q3 8 3 15v100v200q0 22 -12.5 34.5t-25.5 14.5l-12 1h-100z" />
    <glyph glyph-name="uni000C" 
d="M375 1000h50q75 0 116 -18q4 -1 6 -2q89 -37 128 -116q25 -55 25 -112v-118q-4 -61 -37 -108q-30 -42 -113 -126q-50 -50 -50 -75l4 -13q7 -11 21 -12h125h25l13 -4q11 -7 12 -21v-50q0 -11 -6 -17.5t-12 -7.5h-7h-150q-11 0 -17.5 -6t-7.5 -12v-7v-150l-4 -13
q-7 -11 -21 -12h-150q-11 0 -17.5 6t-7.5 12v7v150l-4 13q-7 11 -21 12h-150l-13 4q-11 7 -12 21v50q0 11 6 17.5t12 7.5h7h25h125q11 0 17.5 6t7.5 12v7q-1 26 -50 75q-107 107 -131 155q-16 33 -19 79v118q0 58 25 112q40 80 128 116q39 16 74 18q22 2 48 2zM375 900
q-57 0 -72 -35q-3 -8 -3 -15v-100v-200q0 -22 12.5 -34.5t25.5 -14.5l12 -1h100l21 4q28 13 29 46v200v100q0 31 -37 44q-17 6 -38 6h-50z" />
    <glyph glyph-name="uni000E" 
d="M125 1000h650l13 -4q11 -7 12 -21v-750q0 -48 -16 -93q-28 -76 -84 -111q-35 -21 -88 -21q-43 0 -70 30q-9 9 -17 20q-22 38 -25 100q-1 113 83 181l4 4q12 9 13 19v21v300q0 11 -6 17.5t-12 7.5h-7h-250l-13 -4q-11 -7 -12 -21v-550q0 -48 -16 -93q-28 -76 -84 -111
q-35 -21 -88 -21q-43 0 -70 30q-9 9 -17 20q-22 38 -25 100q-1 113 83 181l4 4q12 9 13 19v21v700q0 11 6.5 17.5t12.5 7.5h6zM325 900l-13 -4q-11 -7 -12 -21v-50q0 -11 6 -17.5t12 -7.5h7h250l13 4q11 7 12 21v50q0 11 -6 17.5t-12 7.5h-7h-250z" />
    <glyph glyph-name="uni000F" 
d="M325 900h150l13 -4q11 -7 12 -21v-125v-125l4 -13q7 -11 21 -12q28 1 67 50t66 50h117l13 -4q11 -7 12 -21v-50q0 -11 -6 -17.5t-12 -7.5h-7h-75q-65 0 -92 -30q-8 -10 -8 -20q0 -27 46 -42q25 -8 54 -8h75l13 -4q11 -7 12 -21v-50q0 -11 -6 -17.5t-12 -7.5h-7h-75
q-65 0 -92 -30q-8 -10 -8 -20q0 -27 46 -42q25 -8 54 -8h75l13 -4q11 -7 12 -21v-50q0 -11 -6 -17.5t-12 -7.5h-7h-117q-28 1 -66 50q-40 49 -67 50q-11 0 -17 -6.5t-7 -12.5l-1 -6v-125v-125q0 -11 -6 -17.5t-12 -7.5h-7h-150l-13 4q-11 7 -12 21v125v125l-4 13
q-7 11 -21 12q-28 -1 -67 -50t-66 -50h-117l-13 4q-11 7 -12 21v50q0 11 6 17.5t12 7.5h7h75q65 0 92 30q8 10 8 20q0 27 -46 42q-25 8 -54 8h-75l-13 4q-11 7 -12 21v50q0 11 6 17.5t12 7.5h7h75q65 0 92 30q8 10 8 20q0 27 -46 42q-25 8 -54 8h-75l-13 4q-11 7 -12 21v50
q0 11 6 17.5t12 7.5h7h117q28 -1 66 -50q40 -49 67 -50q11 0 17 6.5t7 12.5l1 6v125v125q0 11 6 17.5t12 7.5h7zM325 500l-13 -4q-11 -7 -12 -21v-50q0 -11 6 -17.5t12 -7.5h7h150l13 4q11 7 12 21v50q0 11 -6 17.5t-12 7.5h-7h-150z" />
    <glyph glyph-name="uni0010" 
d="M25 1100q22 0 67 -43q15 -14 33 -32l150 -150q193 -193 247 -233q45 -34 110 -52q4 -2 8 -3q48 -13 53 -17q7 -8 7 -20q0 -19 -18 -25q-3 -1 -42 -12q-66 -18 -105 -45q-49 -35 -213 -197l-43 -43l-154 -153q-69 -69 -92 -74q-4 -1 -8 -1q-11 0 -17.5 6t-7.5 12v7v1050
l4 13q7 11 21 12z" />
    <glyph glyph-name="uni0011" 
d="M675 1100q11 0 17.5 -6t7.5 -12v-7v-1050l-4 -13q-7 -11 -21 -12q-22 0 -67 43q-15 14 -33 32q-1 1 -154 153q-192 191 -242 229q-45 35 -106 52q-6 2 -13 4q-48 13 -53 17q-7 8 -7 20q0 19 18 26q4 1 42 11q68 19 109 48q53 38 227 211l29 29l150 150q69 69 92 74
q4 1 8 1z" />
    <glyph glyph-name="uni0012" 
d="M400 1000q13 0 99 -64q10 -7 18 -13q84 -66 166 -159q17 -21 17 -39q0 -11 -6.5 -17.5t-12.5 -7.5h-6h-150l-13 -4q-11 -7 -12 -21v-250q0 -11 6 -17.5t12 -7.5h7h150l13 -4q11 -7 12 -21q-1 -19 -17 -39q-83 -94 -166 -159q-82 -63 -113 -76q-3 -1 -4 -1q-1 1 -34 17
q-108 64 -230 196q-11 13 -21 24q-15 16 -15 38q0 11 6 17.5t12 7.5h7h150l13 4q11 7 12 21v250q0 11 -6 17.5t-12 7.5h-7h-150l-13 4q-11 7 -12 21q1 24 15 38q114 130 228 205q13 8 23 15z" />
    <glyph glyph-name="uni0013" 
d="M125 1000h150l13 -4q11 -7 12 -21v-650q0 -11 -6 -17.5t-12 -7.5h-7h-150l-13 4q-11 7 -12 21v650q0 11 6 17.5t12 7.5h7zM525 1000h150l13 -4q11 -7 12 -21v-650q0 -11 -6 -17.5t-12 -7.5h-7h-150l-13 4q-11 7 -12 21v650q0 11 6 17.5t12 7.5h7zM125 200h150l13 -4
q11 -7 12 -21v-150q0 -11 -6 -17.5t-12 -7.5h-7h-150l-13 4q-11 7 -12 21v150q0 11 6 17.5t12 7.5h7zM525 200h150l13 -4q11 -7 12 -21v-150q0 -11 -6 -17.5t-12 -7.5h-7h-150l-13 4q-11 7 -12 21v150q0 11 6 17.5t12 7.5h7z" />
    <glyph glyph-name="uni0014" 
d="M275 1000h500l13 -4q11 -7 12 -21v-950q0 -11 -6 -17.5t-12 -7.5h-7h-150l-13 4q-11 7 -12 21v850q0 11 -6 17.5t-12 7.5h-7h-50l-13 -4q-11 -7 -12 -21v-850q0 -11 -6 -17.5t-12 -7.5h-7h-150l-13 4q-11 7 -12 21v450l-4 13q-7 11 -21 12q-76 0 -117 18q-3 1 -5 2
q-89 37 -128 115q-25 52 -25 115q0 60 25 114q40 80 128 116q39 16 74 18q22 2 48 2zM275 900q-57 0 -72 -35q-3 -8 -3 -15v-200q0 -31 37 -45q17 -5 38 -5q11 0 17.5 6t7.5 12v7v250q0 11 -6 17.5t-12 7.5h-7zM0 750z" />
    <glyph glyph-name="uni0015" 
d="M275 1100h75q119 0 155 -13q83 -29 149 -90q45 -43 46 -72q0 -11 -6 -17.5t-12 -7.5h-7h-50q-55 0 -73 11q-7 4 -24 18q-17 13 -28 21q-49 36 -70 42q-27 8 -80 8h-100l-24 -4q-25 -12 -26 -36q0 -55 74 -96q12 -7 26 -14l100 -50q280 -144 299 -281q1 -10 1 -19
q0 -67 -94 -159q-3 -4 -6 -6q-51 -47 -94 -74q-12 -9 15 -29q178 -110 179 -182q0 -32 -30 -67q-4 -5 -8 -8q-82 -75 -237 -75h-75q-119 0 -155 13q-67 24 -131 75t-64 87q0 11 6 17.5t12 7.5h7h50q55 0 73 -11q7 -4 24 -18q17 -13 28 -21q49 -36 70 -42q27 -8 80 -8h100
l24 4q25 12 26 36q0 55 -74 96q-12 7 -26 14l-100 50q-280 144 -299 281q-1 10 -1 19q0 67 94 159q3 4 6 6q51 47 94 74q12 9 -15 29q-178 110 -179 182q0 32 30 67q4 5 8 8q82 75 237 75zM350 699q-26 -1 -70 -42q-95 -91 -71 -197q13 -57 60 -106q53 -55 85 -52q12 1 25 8
q37 19 78 78q13 19 21 36q52 112 -41 215q-8 9 -16 17q-46 43 -71 43z" />
    <glyph glyph-name="uni0016" 
d="M675 400l13 -4q11 -7 12 -21v-350q0 -11 -6 -17.5t-12 -7.5h-7h-650l-13 4q-11 7 -12 21v350q0 11 6 17.5t12 7.5h7h650z" />
    <glyph glyph-name="uni0017" 
d="M400 1000q13 0 99 -64q10 -7 18 -13q84 -66 166 -159q17 -21 17 -39q0 -11 -6.5 -17.5t-12.5 -7.5h-6h-150l-13 -4q-11 -7 -12 -21v-250q0 -11 6 -17.5t12 -7.5h7h150l13 -4q11 -7 12 -21q-1 -19 -17 -39q-83 -94 -166 -159q-82 -63 -113 -76q-3 -1 -4 -1q-1 1 -34 17
q-108 64 -230 196q-11 13 -21 24q-15 16 -15 38q0 11 6 17.5t12 7.5h7h150l13 4q11 7 12 21v250q0 11 -6 17.5t-12 7.5h-7h-150l-13 4q-11 7 -12 21q1 24 15 38q114 130 228 205q13 8 23 15zM400 100h275l13 -4q11 -7 12 -21v-50q0 -11 -6 -17.5t-12 -7.5h-7h-550l-13 4
q-11 7 -12 21v50q0 11 6 17.5t12 7.5h7h275z" />
    <glyph glyph-name="uni0018" 
d="M400 1000q13 0 99 -64q10 -7 18 -13q84 -66 166 -159q17 -21 17 -39q0 -11 -6.5 -17.5t-12.5 -7.5h-6h-150l-13 -4q-11 -7 -12 -21v-650q0 -11 -6 -17.5t-12 -7.5h-7h-150l-13 4q-11 7 -12 21v650q0 11 -6 17.5t-12 7.5h-7h-150l-13 4q-11 7 -12 21q1 24 15 38
q114 130 228 205q13 8 23 15z" />
    <glyph glyph-name="uni0019" 
d="M400 0q-1 1 -34 17q-108 64 -230 196q-11 13 -21 24q-15 16 -15 38q0 11 6 17.5t13 6.5l6 1h150l13 4q11 7 12 21v650q0 11 6 17.5t13 6.5l6 1h150l13 -4q11 -7 12 -21v-650q0 -11 6 -17.5t13 -6.5l6 -1h150l13 -4q11 -7 12 -21q-1 -19 -17 -39q-83 -94 -166 -159
q-82 -63 -113 -76q-3 -1 -4 -1z" />
    <glyph glyph-name="uni001A" 
d="M425 700q26 0 63 -38l4 -4l8 -8l150 -150l50 -50l-50 -50l-150 -150q-38 -37 -52 -44q-12 -6 -23 -6h-100l-13 4q-11 7 -12 21q0 22 47 72q11 10 23 23q20 19 30 30l9 11q3 9 4 17q0 10 -6 15.5t-13 5.5l-6 1h-363l-13 4q-11 7 -12 21v50q0 11 6 17.5t12 7.5h7h363l13 4
q12 7 12 21q-1 6 -4 12.5t-6 9.5l-3 3l-32 32q-63 64 -67 86q-1 4 -1 7q0 11 6 17t13 7l6 1h100z" />
    <glyph glyph-name="uni001B" 
d="M275 700h100l13 -4q11 -7 12 -21q0 -21 -42 -66q-12 -12 -26 -27l-32 -32l-9 -13q-3 -6 -4 -12q0 -11 6 -17.5t13 -6.5l6 -1h363l13 -4q11 -7 12 -21v-50q0 -11 -6 -17.5t-12 -7.5h-7h-363l-15 -4q-10 -7 -10 -18q1 -8 4 -15t6 -10l3 -3q11 -13 30 -30q66 -73 70 -95
q0 -11 -6 -17t-13 -7l-6 -1h-100q-26 0 -63 38l-4 4l-8 8l-150 150l-50 50l50 50l150 150q38 37 52 44q12 6 23 6z" />
    <glyph glyph-name="uni001C" 
d="M675 200h-650l-13 4q-11 7 -12 21v350q0 11 6 17.5t12 7.5h7h150l13 -4q11 -7 12 -21v-250q0 -11 6 -17.5t12 -7.5h7h450l13 -4q11 -7 12 -21v-50q0 -11 -6 -17.5t-12 -7.5h-7z" />
    <glyph glyph-name="uni001D" 
d="M275 700q11 0 17.5 -6t7.5 -12v-7v-150q0 -11 6 -17.5t12 -7.5h7h150l13 4q11 7 12 21v150l4 13q7 11 21 12q11 0 80 -62.5t132 -125.5l63 -62l-150 -146q-110 -103 -125 -104q-11 0 -17.5 6t-7.5 12v7v150q0 11 -6 17.5t-12 7.5h-7h-150l-13 -4q-11 -7 -12 -21v-150
l-4 -13q-7 -11 -21 -12q-11 0 -80 62.5t-132 125.5l-63 62l150 146q110 103 125 104z" />
    <glyph glyph-name="uni001E" 
d="M0 125v25q0 41 26 101q19 41 83 169q156 311 209 363q18 17 32 17q32 0 97 -109q50 -85 143 -271q94 -186 104 -224q6 -22 6 -46v-25l-4 -13q-7 -11 -21 -12h-653l-12 4q-9 7 -10 21z" />
    <glyph glyph-name="uni001F" 
d="M0 775q0 11 5.5 17.5t11.5 6.5l5 1h653q11 0 17.5 -6t7.5 -12v-7v-25q0 -41 -27 -101q-18 -39 -83 -169q-154 -309 -207 -362q-19 -18 -33 -18q-33 0 -100 113q-50 85 -141 267q-93 186 -104 225q-5 21 -5 45v25z" />
    <glyph glyph-name="space" unicode=" " 
 />
    <glyph glyph-name="exclam" unicode="!" 
d="M300 25v150q0 11 6 17.5t12 7.5h7h150l13 -4q11 -7 12 -21v-150q0 -11 -6 -17.5t-12 -7.5h-7h-150l-13 4q-11 7 -12 21zM325 300q-11 0 -17.5 6t-7.5 12v7v184q0 10 -9 27t-18 29l-9 12q-8 14 -21 37q-32 59 -37.5 77t-5.5 66q0 57 14 87q3 5 7 13q32 61 102 110
q47 32 77 33q44 0 112 -61q45 -41 67 -82q18 -35 20 -68q1 -14 1 -32q0 -54 -9 -77q-6 -14 -55 -103l-25 -36q-11 -20 -11 -31v-185l-4 -13q-7 -11 -21 -12h-150z" />
    <glyph glyph-name="quotedbl" unicode="&#x22;" 
d="M196 755q-53 55 -73 95q-21 44 -23 96v129q0 11 6 17.5t12 7.5h7h150q11 0 17.5 -6t7.5 -12v-7v-350q0 -11 -6 -17.5t-12 -7.5h-7q-20 -4 -72 49q-4 3 -7 6zM603 755q-58 -57 -78 -55l-13 4q-12 7 -12 21v350l3 13q8 11 22 12h150l13 -4q11 -7 12 -21v-129
q-2 -54 -23 -96q-20 -41 -74 -95z" />
    <glyph glyph-name="numbersign" unicode="#" 
d="M100 25v150q0 11 -6 17.5t-12 7.5h-7h-50q-11 0 -17.5 6t-6.5 13l-1 6v50q0 11 6 17.5t12 7.5h7h50q11 0 17.5 6t7.5 12v7v250q0 11 -6 17.5t-12 7.5h-7h-50q-11 0 -17.5 6t-6.5 13l-1 6v50q0 11 6 17.5t12 7.5h7h50q11 0 17.5 6t7.5 12v7v150q0 11 6 17.5t12 7.5h7h150
q11 0 17.5 -6t7.5 -12v-7v-150q0 -11 6 -17.5t12 -7.5h7h50q11 0 17.5 6t7.5 12v7v150q0 11 6 17.5t12 7.5h7h150l13 -4q11 -7 12 -21v-150q0 -11 6 -17.5t12 -7.5h7h50q11 0 17.5 -6t7.5 -12v-7v-50q0 -11 -6 -17.5t-12 -7.5h-7h-50q-11 0 -17.5 -6t-7.5 -12v-7v-250
q0 -11 6 -17.5t12 -7.5h7h50q11 0 17.5 -6t7.5 -12v-7v-50q0 -11 -6 -17.5t-12 -7.5h-7h-50q-11 0 -17.5 -6t-7.5 -12v-7v-150q0 -11 -6 -17.5t-12 -7.5h-7h-150l-13 4q-11 7 -12 21v150q0 11 -6 17.5t-12 7.5h-7h-50q-11 0 -17.5 -6t-7.5 -12v-7v-150l-4 -13
q-7 -11 -21 -12h-150q-11 0 -17.5 6t-7.5 12v7zM375 300q11 0 17.5 6t7.5 12v7v250q0 11 -6 17.5t-12 7.5h-7h-50q-11 0 -17.5 -6t-7.5 -12v-7v-250l4 -13q7 -11 21 -12h50z" />
    <glyph glyph-name="dollar" unicode="$" 
d="M325 1200h150q11 0 17.5 -6t7.5 -12v-7v-150q2 -17 25 -28q11 -5 14 -7q66 -37 117 -101q13 -16 20 -29q20 -37 23 -87q1 -26 1 -48l-4 -13q-7 -11 -21 -12q-11 1 -20 6q-20 12 -80 73q-7 7 -21 23q-53 60 -95 80q-39 18 -84 18h-150l-13 -4q-11 -7 -12 -21v-250l4 -13
q7 -11 21 -12h250q170 -8 211 -170q14 -56 14 -130q0 -135 -38 -193q-23 -35 -93 -84q-6 -4 -16 -12q-19 -12 -28 -19q-24 -6 -25 -29v-138l-4 -13q-7 -11 -21 -12h-150q-11 0 -17.5 6t-7.5 12v7v150q0 11 -6 17.5t-12 7.5h-7h-50q-91 0 -180 113q-11 13 -21 27
q-20 37 -23 87q-1 26 -1 48l4 13q7 11 21 12q11 -1 20 -6q20 -12 80 -73q8 -8 24 -26q60 -65 98 -82q27 -13 53 -13h175l13 4q11 7 12 21v350l-4 13q-7 11 -21 12h-250q-90 0 -157 71q-68 73 -68 179q0 118 82 194q60 56 129 56h64q11 0 17.5 6t7.5 12v7v150l4 13
q7 11 21 12z" />
    <glyph glyph-name="percent" unicode="%" 
d="M676 800q20 0 23 -13q2 -9 2 -37q0 -44 -17 -81l-8 -16q-18 -37 -76 -99q-52 -55 -249 -252q-253 -255 -301 -294q-11 -7 -25 -8q-20 0 -23 13q-2 9 -2 37q0 44 17 81l8 16q18 37 77 99q52 55 248 252q253 255 301 294q11 7 25 8zM25 800h150l13 -4q11 -7 12 -21v-150
q0 -11 -6 -17.5t-12 -7.5h-7h-150l-13 4q-11 7 -12 21v150q0 11 6 17.5t12 7.5h7zM525 200h150l13 -4q11 -7 12 -21v-150q0 -11 -6 -17.5t-12 -7.5h-7h-150l-13 4q-11 7 -12 21v150q0 11 6 17.5t12 7.5h7z" />
    <glyph glyph-name="ampersand" unicode="&#x26;" 
d="M350 1000q97 0 176 -66q73 -62 74 -134q0 -40 -27 -71q-10 -11 -38 -39q-40 -39 -67 -67q-66 -69 -68 -90q0 -12 10 -22q18 -18 49 -8l8 4q13 8 30 34q38 59 134 59h44l13 -4q11 -7 12 -21v-50q0 -11 -6 -17.5t-12 -7.5h-7h-50l-13 -4q-11 -7 -12 -21v-350l3 -13
q8 -11 22 -12h50q11 0 17.5 -6t7.5 -12v-7v-50q0 -11 -6.5 -17.5t-12.5 -6.5l-6 -1h-39q-59 0 -96 29q-16 12 -34 31q-41 42 -60 40q-19 -4 -46 -38q-38 -47 -76 -57q-23 -5 -62 -5q-53 0 -87 12q-115 48 -152 128q-26 57 -22 140q-1 115 10 149q12 41 68 99q16 17 52 53
l71 73q-9 10 -28 27q-49 45 -62 76q-9 21 -12 43q0 74 76 136q79 64 174 64zM337 900l-17 -4q-19 -11 -20 -34v-137q0 -11 6 -17.5t12 -7.5h7h50l13 4q11 7 12 21v138q0 16 -9.5 25.5t-18.5 10.5l-9 1h-26zM225 500q-11 0 -17.5 -6t-7.5 -12v-7v-325l4 -21q13 -28 46 -29
h125l13 4q11 7 12 21v91q-2 91 -16 120q-4 9 -11 21q-82 143 -148 143z" />
    <glyph glyph-name="quotesingle" unicode="'" 
d="M225 1100h150l13 -4q11 -7 12 -21v-96v-4v-27v-23q-2 -45 -16 -70q-1 -1 -2 -5q-4 -6 -5 -8q-30 -55 -94 -99q-20 -14 -36 -21q-48 -22 -97 -22q-30 1 -39 10q-22 22 5 54q4 4 7 8q30 33 48 59q24 46 28 78q1 12 1 24v142q0 11 6 17.5t12 7.5h7z" />
    <glyph glyph-name="parenleft" unicode="(" 
d="M545 1000q45 0 52 -13q3 -5 3 -12q0 -23 -17 -37q-4 -3 -12 -10q-27 -21 -46 -38q-89 -83 -111 -145q-15 -40 -14 -95v-300q-1 -88 43 -150q27 -39 82 -90q20 -18 46 -38q24 -19 27 -30q2 -8 2 -17q0 -23 -36 -25h-19q-34 0 -60 9q-78 28 -173 125q-55 57 -83 106
q-29 49 -29 110v300q1 61 29 110q47 82 144 162q63 52 112 69q27 9 60 9z" />
    <glyph glyph-name="parenright" unicode=")" 
d="M255 1000q34 0 60 -9q78 -28 173 -125q55 -57 83 -106q29 -49 29 -110v-300q-1 -61 -29 -110q-47 -82 -144 -162q-63 -52 -112 -69q-27 -9 -60 -9q-45 0 -52 13q-3 5 -3 12q0 23 17 37q4 3 12 10q27 21 46 38q89 83 111 145q15 40 14 95v300q1 88 -43 150q-27 39 -82 90
q-20 18 -46 38q-24 19 -27 30q-2 8 -2 17q0 23 36 25h19z" />
    <glyph glyph-name="asterisk" unicode="*" 
d="M163 700q32 0 61 -13q18 -8 76 -37l100 -50l100 50q5 3 14 7q65 32 80 37.5t43 5.5h1q54 0 60 -17q2 -6 2 -17q-1 -14 -50 -66q-49 -53 -50 -75q0 -11 6 -17.5t12 -7.5h7h150q11 0 17.5 -6t7.5 -12v-7v-50l-4 -13q-7 -11 -21 -12h-150l-13 -4q-11 -7 -12 -21
q1 -24 50 -75q49 -52 50 -66q0 -23 -13 -28q-14 -6 -49 -6q-33 0 -58 11q-15 7 -80 39l-100 50l-100 -50q-91 -46 -111 -49q-10 -1 -26 -1q-55 0 -61 16q-2 6 -2 18q1 14 50 66q50 53 50 75l-4 13q-7 11 -21 12h-150q-11 0 -17.5 6t-7.5 12v7v50l4 13q7 11 21 12h150
q11 0 17.5 6t7.5 12v7q-2 24 -50 75q-49 52 -50 66q0 23 12 28q14 6 51 6z" />
    <glyph glyph-name="plus" unicode="+" 
d="M325 700h150l13 -4q11 -7 12 -21v-150q0 -11 6 -17.5t12 -7.5h7h150l13 -4q11 -7 12 -21v-50q0 -11 -6 -17.5t-12 -7.5h-7h-150l-13 -4q-11 -7 -12 -21v-150q0 -11 -6 -17.5t-12 -7.5h-7h-150l-13 4q-11 7 -12 21v150q0 11 -6 17.5t-12 7.5h-7h-150l-13 4q-11 7 -12 21
v50q0 11 6 17.5t12 7.5h7h150l13 4q11 7 12 21v150q0 11 6 17.5t12 7.5h7z" />
    <glyph glyph-name="comma" unicode="," 
d="M325 300h150l13 -4q11 -7 12 -21v-96v-4v-27v-23q-2 -45 -16 -70q-1 -1 -2 -5q-4 -6 -5 -8q-30 -55 -94 -99q-20 -14 -36 -21q-48 -22 -97 -22q-30 1 -39 10q-22 22 5 54q4 4 7 8q30 33 48 59q24 46 28 78q1 12 1 24v142q0 11 6 17.5t12 7.5h7z" />
    <glyph glyph-name="hyphen" unicode="-" 
d="M0 475q0 11 6 17.5t12 7.5h7h650l13 -4q11 -7 12 -21v-50q0 -11 -6 -17.5t-12 -7.5h-7h-650l-13 4q-11 7 -12 21v50z" />
    <glyph glyph-name="period" unicode="." 
d="M300 25v150q0 11 6 17.5t12 7.5h7h150l13 -4q11 -7 12 -21v-150q0 -11 -6 -17.5t-12 -7.5h-7h-150l-13 4q-11 7 -12 21z" />
    <glyph glyph-name="slash" unicode="/" 
d="M676 800q20 0 23 -13q2 -9 2 -37q0 -44 -17 -81l-8 -16q-18 -37 -76 -99q-52 -55 -249 -252q-253 -255 -301 -294q-11 -7 -25 -8q-20 0 -23 13q-2 9 -2 37q0 44 17 81l8 16q18 37 77 99q52 55 248 252q253 255 301 294q11 7 25 8z" />
    <glyph glyph-name="zero" unicode="0" 
d="M400 1000q159 0 257 -92q50 -47 113 -148q29 -46 30 -126v-34v-50v-150q0 -89 -16 -130q-6 -16 -14 -30q-77 -118 -134 -165q-93 -75 -236 -75q-211 0 -336 183q-18 26 -35 57q-28 48 -29 141v21v48v148q0 95 17 137q5 14 12 25q92 165 224 215q67 25 147 25zM400 900
q-73 0 -140 -87q-19 -25 -34 -53q-26 -61 -26 -134v-76v-176q0 -75 26 -134q56 -102 131 -131q22 -9 43 -9q74 0 142 90q17 24 31 50q27 41 27 111v24v175v75q0 74 -12 105q-6 16 -15 30q-57 105 -133 133q-21 7 -40 7zM325 600h150l13 -4q11 -7 12 -21v-150q0 -11 -6 -17.5
t-12 -7.5h-7h-150l-13 4q-11 7 -12 21v150q0 11 6 17.5t12 7.5h7z" />
    <glyph glyph-name="one" unicode="1" 
d="M435 1000h40q11 0 17.5 -6t7.5 -12v-7v-850q0 -11 6 -17.5t12 -7.5h7h150l13 -4q11 -7 12 -21v-50q0 -11 -6 -17.5t-12 -7.5h-7h-550l-13 4q-11 7 -12 21v50q0 11 6 17.5t12 7.5h7h150l13 4q11 7 12 21v550l-4 13q-7 11 -21 12h-150l-13 4q-11 7 -12 21q0 22 50 75l54 54
q105 104 151 127q34 16 80 19z" />
    <glyph glyph-name="two" unicode="2" 
d="M350 1000h75q99 0 183 -54q91 -60 92 -146q0 -29 -18 -55q-6 -9 -17 -24t-183 -188q-20 -19 -35 -35q-177 -180 -214 -232q-31 -45 -33 -96v-8q0 -28 1 -37l3 -13q7 -11 21 -12h175q49 0 65 12q15 11 34 37q28 40 47 47q14 4 54 4h75l13 -4q11 -7 12 -21v-150
q0 -11 -6 -17.5t-12 -7.5h-7h-325h-325q-11 0 -17.5 6t-7.5 12v7v81q0 84 8 108q16 48 93 132q49 53 154 159q174 174 208 219q31 41 37 76q4 27 0 50q-9 43 -74 49q-18 1 -76 1q-71 0 -104 -18q-12 -7 -46 -32q-11 -9 -28 -21q-29 -24 -48 -27q-14 -2 -49 -2h-50l-13 4
q-11 7 -12 21q0 42 82 101q57 41 113 61q38 13 155 13z" />
    <glyph glyph-name="three" unicode="3" 
d="M350 1000h75q77 0 108 -13q3 -2 14 -7q62 -29 109 -88q12 -16 19 -29q22 -42 25 -88q6 -106 -50 -172q-24 -28 -54 -40l-29 -13l31 -13q64 -30 90 -112q12 -41 12 -74q1 -17 0 -54v-49q0 -58 -25 -112q-40 -80 -128 -116q-39 -16 -74 -18q-22 -2 -48 -2h-75
q-119 0 -155 13q-83 29 -149 90q-45 43 -46 72q0 11 6 17.5t12 7.5h7h50q55 0 73 -11q7 -4 24 -18q17 -13 28 -21q49 -36 70 -42q27 -8 80 -8h75q57 0 72 35q3 8 3 15v150v150q0 22 -12.5 34.5t-25.5 13.5l-12 2h-50h-175l-13 4q-11 7 -12 21v50q0 11 6 17.5t12 7.5h7h225
l21 4q28 13 29 46v100v100q0 31 -37 44q-17 6 -38 6h-75q-71 0 -104 -18q-12 -7 -46 -32q-11 -9 -28 -21q-29 -24 -48 -27q-14 -2 -49 -2h-50l-13 4q-11 7 -12 21q0 42 82 101q57 41 113 61q38 13 155 13z" />
    <glyph glyph-name="four" unicode="4" 
d="M535 1000h40q11 0 17.5 -6t7.5 -12v-7v-275v-175q0 -11 6 -17.5t12 -7.5h7h50l13 -4q11 -7 12 -21v-50q0 -11 -6 -17.5t-12 -7.5h-7h-50l-13 -4q-11 -7 -12 -21v-250q0 -11 6 -17.5t12 -7.5h7h50l13 -4q11 -7 12 -21v-50q0 -11 -6 -17.5t-12 -7.5h-7h-350l-13 4
q-11 7 -12 21v50q0 11 6 17.5t12 7.5h7h50l13 4q11 7 12 21v250q0 11 -6 17.5t-12 7.5h-7h-350l-13 4q-11 7 -12 21v40q3 62 37 110q19 26 51 61l216 218q105 104 151 127q34 16 80 19zM375 700q-21 0 -65 -41q-6 -5 -10 -10l-50 -49q-48 -53 -50 -75q0 -11 6.5 -17t12.5 -7
l6 -1h150l13 4q11 7 12 21v150l-4 14q-7 11 -21 11z" />
    <glyph glyph-name="five" unicode="5" 
d="M25 1000h650l13 -4q11 -7 12 -21v-50q0 -11 -6 -17.5t-12 -7.5h-7h-450l-13 -4q-11 -7 -12 -21v-250q0 -11 6 -17.5t12 -7.5h7h200q75 0 116 -18q4 -1 6 -2q89 -37 128 -116q25 -55 25 -112v-104q0 -58 -25 -112q-40 -80 -128 -116q-39 -16 -74 -18q-22 -2 -48 -2h-75
q-119 0 -155 13q-83 29 -149 90q-45 43 -46 72q0 11 6 17.5t12 7.5h7h50q55 0 73 -11q7 -4 24 -18q17 -13 28 -21q49 -36 70 -42q27 -8 80 -8h75q57 0 72 35q3 8 3 15v300q0 31 -37 44q-17 6 -38 6h-400l-13 4q-11 7 -12 21v450q0 11 6 17.5t12 7.5h7z" />
    <glyph glyph-name="six" unicode="6" 
d="M393 1000h82l13 -4q11 -7 12 -21v-50q0 -11 -6 -17.5t-12 -7.5h-7h-75q-71 0 -133 -76q-24 -29 -41 -63q-26 -53 -26 -136q0 -11 6 -17.5t12 -7.5h7h200q75 0 116 -18q4 -1 6 -2q89 -37 128 -116q25 -55 25 -112v-1v-1v-35v-15v-52q0 -58 -25 -112q-40 -80 -128 -116
q-39 -16 -74 -18q-22 -2 -48 -2h-150q-75 0 -116 18q-4 1 -6 2q-89 37 -128 116q-25 55 -25 112v1v1v375q0 65 19 111q4 12 10 24q92 165 225 215q64 24 138 25h1zM225 500l-13 -4q-11 -7 -12 -21v-325q0 -31 37 -44q18 -6 38 -6h150q57 0 72 35q3 8 3 15v150v50v100
q0 31 -37 44q-17 6 -38 6h-200z" />
    <glyph glyph-name="seven" unicode="7" 
d="M25 1000h650l13 -4q11 -7 12 -21v-248v-2q-1 -20 -8 -39q-19 -56 -122 -166q-12 -13 -25 -26q-94 -97 -118 -137q-26 -43 -27 -66q-1 -8 0 -16v-110v-140q0 -11 -6 -17.5t-12 -7.5h-7h-150l-13 4q-11 7 -12 21v175q1 93 8 114q19 56 122 166q12 13 25 26q94 98 118 138
q21 35 24 49t3 32v150q0 11 -6 17.5t-12 7.5h-7h-175q-49 0 -66 -12q-14 -11 -33 -37q-28 -40 -47 -47q-14 -4 -54 -4h-75l-13 4q-11 7 -12 21v150q0 11 6 17.5t12 7.5h7z" />
    <glyph glyph-name="eight" unicode="8" 
d="M275 1000h175q77 0 108 -13q3 -2 14 -7q62 -29 109 -88q12 -16 19 -29q22 -42 25 -88q6 -106 -50 -172q-24 -28 -54 -40l-29 -13l31 -13q64 -30 90 -112q12 -41 12 -74q1 -17 0 -54v-49q0 -58 -25 -112q-40 -80 -128 -116q-39 -16 -74 -18q-22 -2 -48 -2h-175
q-75 0 -116 18q-4 1 -6 2q-89 37 -128 116q-25 55 -25 112v49q-1 37 0 54q1 35 12 74q27 83 90 112l31 13l-29 13q-64 24 -91 109q-16 49 -13 103q3 48 25 88q29 54 96 99q17 11 32 18q35 16 66 18q22 2 56 2zM275 900q-57 0 -72 -35q-3 -8 -3 -15v-100v-100
q0 -22 12.5 -34.5t25.5 -14.5l12 -1h225l21 4q28 13 29 46v100v100q0 31 -37 44q-17 6 -38 6h-175zM250 500l-21 -4q-28 -13 -29 -46v-150v-150q0 -31 37 -44q18 -6 38 -6h175q57 0 72 35q3 8 3 15v150v150q0 22 -12.5 34.5t-24.5 13.5l-13 2h-225z" />
    <glyph glyph-name="nine" unicode="9" 
d="M307 0h-182l-13 4q-11 7 -12 21v50q0 11 6 17.5t12 7.5h7h175q71 0 133 76q24 29 41 63q26 53 26 136l-1 106q0 8 -6 13t-12 5l-6 1h-200q-75 0 -116 17l-6 3q-89 37 -128 115q-25 52 -25 115v0q0 60 25 114q40 80 128 116q39 16 74 18q21 2 48 2h150q75 0 116 -18
q4 -1 6 -2q89 -37 128 -116q25 -55 25 -112v-1.5v-0.5v-250v-125q0 -65 -19 -111q-4 -12 -10 -24q-92 -165 -225 -215q-64 -24 -138 -25h-1zM475 600l13 3q11 8 12 22v225q0 31 -37 44q-17 6 -38 6h-150q-57 0 -72 -35q-3 -8 -3 -15v-200q0 -31 37 -45q17 -5 38 -5h200z" />
    <glyph glyph-name="colon" unicode=":" 
d="M325 800h150l13 -4q11 -7 12 -21v-150q0 -11 -6 -17.5t-12 -7.5h-7h-150l-13 4q-11 7 -12 21v150q0 11 6 17.5t12 7.5h7zM325 300h150l13 -4q11 -7 12 -21v-150q0 -11 -6 -17.5t-12 -7.5h-7h-150l-13 4q-11 7 -12 21v150q0 11 6 17.5t12 7.5h7z" />
    <glyph glyph-name="semicolon" unicode=";" 
d="M325 800h150l13 -4q11 -7 12 -21v-150q0 -11 -6 -17.5t-12 -7.5h-7h-150l-13 4q-11 7 -12 21v150q0 11 6 17.5t12 7.5h7zM325 300h150l13 -4q11 -7 12 -21v-50q-2 -45 -16 -70q-1 -1 -2 -5q-4 -6 -5 -8q-30 -55 -94 -99q-20 -14 -36 -21q-48 -22 -97 -22q-30 1 -39 10
q-22 22 5 54q4 4 7 8q30 33 48 59q24 46 28 78q1 12 1 24v42q0 11 6 17.5t12 7.5h7z" />
    <glyph glyph-name="less" unicode="&#x3c;" 
d="M575 900h100l13 -4q11 -7 12 -21q0 -21 -42 -65q-13 -15 -33 -35v0l-325 -325l325 -325v0q69 -70 74 -91q1 -5 1 -9q0 -11 -6 -17.5t-12 -7.5h-7h-100q-24 0 -44 19l-6 6l-425 425l425 425q22 22 39 24q6 1 11 1z" />
    <glyph glyph-name="equal" unicode="=" 
d="M125 700h550l13 -4q11 -7 12 -21v-50q0 -11 -6 -17.5t-12 -7.5h-7h-550l-13 4q-11 7 -12 21v50q0 11 6 17.5t12 7.5h7zM125 400h550l13 -4q11 -7 12 -21v-50q0 -11 -6 -17.5t-12 -7.5h-7h-550l-13 4q-11 7 -12 21v50q0 11 6 17.5t12 7.5h7z" />
    <glyph glyph-name="greater" unicode="&#x3e;" 
d="M225 900q24 0 44 -19l6 -6l425 -425l-425 -425q-22 -22 -39 -24q-6 -1 -11 -1h-100l-13 4q-11 7 -12 21q0 21 42 65q13 15 33 35v0l325 325l-325 325v0q-69 70 -74 91q-1 5 -1 9q0 11 6 17.5t12 7.5h7h100z" />
    <glyph glyph-name="question" unicode="?" 
d="M275 1000h200q74 0 148 -65q72 -70 77 -135q0 -31 -29 -67q-19 -23 -81 -87q-61 -64 -75 -97q-15 -37 -15 -135v-89q0 -11 -6 -17.5t-12 -7.5h-7h-150l-13 4q-11 7 -12 21v100q0 54 8 76q18 52 102 149q78 91 88 150q2 13 2 25q-1 43 -16 59q-17 15 -34 16h-175
q-57 0 -72 -35q-3 -8 -3 -15v-88v-21v-16q0 -11 -6 -17.5t-12 -7.5h-7h-150l-13 4q-11 7 -12 21q0 73 20 126q3 7 5 13q40 80 128 116q39 16 74 18q21 2 48 2zM325 200h150l13 -4q11 -7 12 -21v-150q0 -11 -6 -17.5t-12 -7.5h-7h-150l-13 4q-11 7 -12 21v150q0 11 6 17.5
t12 7.5h7z" />
    <glyph glyph-name="at" unicode="@" 
d="M275 900h150q75 0 116 -18q4 -1 6 -2q89 -37 128 -116q25 -55 25 -112v-204q0 -58 -25 -112q-40 -80 -128 -116q-39 -16 -74 -18q-22 -2 -48 -2h-100l-13 4q-11 7 -12 21v350q0 11 6 17.5t12 7.5h7h150l13 4q11 7 12 21v125q0 31 -37 44q-17 6 -38 6h-150q-57 0 -72 -35
q-3 -8 -3 -15v-600q0 -31 37 -44q18 -6 38 -6h300l13 -4q11 -7 12 -21v-50q0 -11 -6 -17.5t-12 -7.5h-7h-300q-75 0 -116 18q-4 1 -6 2q-89 37 -128 116q-25 54 -25 112v404q0 59 25 112q40 80 128 116q39 16 74 18q21 2 48 2z" />
    <glyph glyph-name="A" unicode="A" 
d="M350 1000q1 -2 150 -150q136 -136 172 -190q28 -43 28 -85v-550q0 -11 -6 -17.5t-12 -7.5h-7h-150l-13 4q-11 7 -12 21v325v25q0 11 -6 17.5t-12 7.5h-7h-250l-13 -4q-11 -7 -12 -21v-25v-325q0 -11 -6 -17.5t-12 -7.5h-7h-150l-13 4q-11 7 -12 21v550q1 38 27 85
q22 39 153 170l20 20l46.5 46.5l41.5 41.5t31.5 32t22.5 22zM350 800l-50 -50q-77 -77 -93 -126q-7 -24 -7 -49v-55q2 -9 8 -14t11 -5l6 -1h250l13 4q11 7 12 21v50q-4 67 -61 134q-17 19 -39 41z" />
    <glyph glyph-name="B" unicode="B" 
d="M25 1000h400q77 0 108 -13q3 -2 14 -7q62 -29 109 -88q12 -16 19 -29q22 -42 25 -88q6 -106 -50 -172q-24 -28 -54 -40l-29 -13l31 -13q64 -30 90 -112q12 -41 12 -74q1 -17 0 -54v-49q0 -58 -25 -112q-40 -80 -128 -116q-39 -16 -74 -18q-22 -2 -48 -2h-400l-13 4
q-11 7 -12 21v50q0 11 6 17.5t12 7.5h7h50l13 4q11 7 12 21v750q0 11 -6 17.5t-12 7.5h-7h-50l-13 4q-11 7 -12 21v50q0 11 6 17.5t12 7.5h7zM325 900l-13 -4q-11 -7 -12 -21v-250q1 -23 25 -25h125l21 4q28 13 29 46v100v100q0 31 -37 44q-17 6 -38 6h-100zM325 500l-13 -4
q-11 -7 -12 -21v-350q0 -11 6 -17.5t12 -7.5h7h100q57 0 72 35q3 8 3 15v150v150q0 22 -12.5 34.5t-25.5 13.5l-12 2h-125z" />
    <glyph glyph-name="C" unicode="C" 
d="M400 1000q83 0 117 -10q15 -4 31 -11q56 -22 106 -86q16 -19 24 -36q17 -34 20 -84q2 -31 2 -48q0 -11 -6.5 -17t-12.5 -7l-6 -1h-21q-21 0 -32 13q-8 10 -25 34q-52 76 -108 122q-13 10 -21 14q-34 17 -68 17q-65 0 -130 -76q-25 -30 -44 -64q-26 -61 -26 -134v-252
q0 -75 26 -134q50 -92 122 -127q28 -13 52 -13q34 0 68 17q37 19 100 97q16 20 29 39q27 40 38 44q7 3 19 3h21l13 -4q11 -7 12 -21q0 -15 -2 -48q-3 -51 -20 -84q-26 -52 -85 -96q-24 -18 -45 -26q-50 -20 -116 -21h-32q-211 0 -336 183q-18 26 -35 57q-28 48 -29 141v21
v196q0 95 17 137q5 14 12 25q92 165 224 215q67 25 147 25z" />
    <glyph glyph-name="D" unicode="D" 
d="M25 1000h275q211 0 336 -183q18 -26 35 -57q28 -48 29 -141v-21v-196q0 -95 -17 -137q-5 -14 -12 -25q-92 -165 -224 -215q-67 -25 -147 -25h-275l-13 4q-11 7 -12 21v50q0 11 6 17.5t12 7.5h7h50l13 4q11 7 12 21v750q0 11 -6 17.5t-12 7.5h-7h-50l-13 4q-11 7 -12 21
v50q0 11 6 17.5t12 7.5h7zM325 900q-11 0 -17.5 -6t-7.5 -12v-7v-750l4 -13q7 -11 21 -12q66 1 148 143q20 35 24 75q2 24 3 66v232q-2 91 -16 120q-4 9 -11 21q-82 143 -148 143z" />
    <glyph glyph-name="E" unicode="E" 
d="M25 1000h650l13 -4q11 -7 12 -21v-250q0 -11 -9 -17.5t-18 -6.5l-9 -1q-30 1 -67 52q-5 7 -14 21q-13 18 -19 27q-44 61 -110 88q-29 12 -54 12h-75l-13 -4q-11 -7 -12 -21v-250q0 -11 6 -17.5t12 -7.5h7h50q11 0 17.5 6t7.5 12v7v50l4 13q7 11 21 12h50q11 0 17.5 -6
t7.5 -12v-7v-250l-4 -13q-7 -11 -21 -12h-50q-11 0 -17.5 6t-7.5 12v7v50l-4 13q-7 11 -21 12h-50l-13 -4q-11 -7 -12 -21v-350q0 -11 6 -17.5t12 -7.5h7h75q63 0 130 62q20 19 34 38q7 9 19 27q38 55 59 67q11 5 22 6l20 -4q15 -7 16 -21v-250q0 -11 -6 -17.5t-12 -7.5h-7
h-650l-13 4q-11 7 -12 21v50q0 11 6 17.5t12 7.5h7h50l13 4q11 7 12 21v750q0 11 -6 17.5t-12 7.5h-7h-50l-13 4q-11 7 -12 21v50q0 11 6 17.5t12 7.5h7z" />
    <glyph glyph-name="F" unicode="F" 
d="M25 1000h650l13 -4q11 -7 12 -21v-250q0 -11 -9 -17.5t-18 -6.5l-9 -1q-30 1 -67 52q-5 7 -14 21q-13 18 -19 27q-44 61 -110 88q-29 12 -54 12h-75l-13 -4q-11 -7 -12 -21v-250q0 -11 6 -17.5t12 -7.5h7h50q11 0 17.5 6t7.5 12v7v50l4 13q7 11 21 12h50q11 0 17.5 -6
t7.5 -12v-7v-250l-4 -13q-7 -11 -21 -12h-50q-11 0 -17.5 6t-7.5 12v7v50l-4 13q-7 11 -21 12h-50l-13 -4q-11 -7 -12 -21v-325v-25q0 -11 6 -17.5t12 -7.5h7h50l13 -4q11 -7 12 -21v-50q0 -11 -6 -17.5t-12 -7.5h-7h-350l-13 4q-11 7 -12 21v50q0 11 6 17.5t12 7.5h7h50
l13 4q11 7 12 21v25v725q0 11 -6 17.5t-12 7.5h-7h-50l-13 4q-11 7 -12 21v50q0 11 6 17.5t12 7.5h7z" />
    <glyph glyph-name="G" unicode="G" 
d="M400 1000q83 0 117 -10q15 -4 31 -11q56 -22 106 -86q16 -19 24 -36q17 -34 20 -84q2 -31 2 -48q0 -11 -6.5 -17t-12.5 -7l-6 -1h-21q-21 0 -32 13q-8 10 -25 34q-52 76 -108 122q-13 10 -21 14q-34 17 -68 17q-65 0 -130 -76q-25 -30 -44 -64q-26 -61 -26 -134v-252
q0 -75 26 -134q50 -92 122 -127q28 -13 52 -13h25q40 0 51 9q4 3 7 7q15 17 17 59v200q0 11 -6 17.5t-12 7.5h-7h-150l-13 4q-11 7 -12 21v50q0 11 6 17.5t12 7.5h7h350l13 -4q11 -7 12 -21v-425q-1 -29 -11 -40q-18 -19 -46 2q-16 12 -42 38q-50 50 -62 50q-8 -2 -19 -19
q-23 -38 -65 -65q-10 -7 -17 -9q-16 -6 -31 -7h-7h-5h-6h-4q-203 6 -324 188q-17 24 -32 52q-28 48 -29 141v21v196q0 95 17 137q5 14 12 25q92 165 224 215q67 25 147 25z" />
    <glyph glyph-name="H" unicode="H" 
d="M25 1000h150l13 -4q11 -7 12 -21v-350l4 -13q7 -11 21 -12h250q11 0 17.5 6t7.5 12v7v350q0 11 6 17.5t12 7.5h7h150l13 -4q11 -7 12 -21v-950q0 -11 -6 -17.5t-12 -7.5h-7h-150l-13 4q-11 7 -12 21v457q-6 17 -24 18h-252q-19 -1 -24 -18v-457q0 -11 -6 -17.5t-12 -7.5
h-7h-150l-13 4q-11 7 -12 21v950q0 11 6 17.5t12 7.5h7z" />
    <glyph glyph-name="I" unicode="I" 
d="M225 1000h350l13 -4q11 -7 12 -21v-50q0 -11 -6 -17.5t-12 -7.5h-7h-50l-13 -4q-11 -7 -12 -21v-750q0 -11 6 -17.5t12 -7.5h7h50l13 -4q11 -7 12 -21v-50q0 -11 -6 -17.5t-12 -7.5h-7h-350l-13 4q-11 7 -12 21v50q0 11 6 17.5t12 7.5h7h50l13 4q11 7 12 21v750
q0 11 -6 17.5t-12 7.5h-7h-50l-13 4q-11 7 -12 21v50q0 11 6 17.5t12 7.5h7z" />
    <glyph glyph-name="J" unicode="J" 
d="M325 1000h350l13 -4q11 -7 12 -21v-50q0 -11 -6 -17.5t-12 -7.5h-7h-50l-13 -4q-11 -7 -12 -21v-627q0 -59 -25 -112q-40 -80 -128 -116q-39 -16 -74 -18q-12 -1 -23 -2h-25h-50h-25q-54 2 -94 19q-2 1 -3 1q-89 37 -128 116q-25 55 -25 112v127q0 11 6 17.5t12 7.5h7
h150l13 -4q11 -7 12 -21v-225q0 -31 37 -44q18 -6 38 -6h50q57 0 72 35q3 8 3 15v725q0 11 -6 17.5t-12 7.5h-7h-50l-13 4q-11 7 -12 21v50q0 11 6 17.5t12 7.5h7z" />
    <glyph glyph-name="K" unicode="K" 
d="M25 1000h250l13 -4q11 -7 12 -21v-75v-275l4 -13q7 -11 21 -12q66 1 148 143q20 35 24 75q2 24 3 66v92q0 11 6.5 17t12.5 6l6 1h75h50q22 0 34.5 -12.5t13.5 -25.5l2 -12v-75q0 -12 -0.5 -23t-1 -19.5t-2 -17.5t-2 -14t-3 -12t-3 -9.5t-3.5 -9t-3 -7t-4 -7.5l-3 -6
q-25 -48 -112 -136l-113 -114l113 -114q91 -92 112 -136q18 -38 22 -70q3 -24 3 -55v-75l-4 -21q-13 -28 -46 -29h-50h-75l-14 4q-10 8 -11 20v92q-2 91 -16 120q-4 9 -11 21q-82 143 -148 143q-11 0 -17.5 -6t-7.5 -12v-7v-275v-75q0 -11 -6 -17.5t-12 -7.5h-7h-250l-13 4
q-11 7 -12 21v50q0 11 6 17.5t12 7.5h7h50l13 4q11 7 12 21v750q0 11 -6 17.5t-12 7.5h-7h-50l-13 4q-11 7 -12 21v50q0 11 6 17.5t12 7.5h7z" />
    <glyph glyph-name="L" unicode="L" 
d="M25 1000h350l13 -4q11 -7 12 -21v-50q0 -11 -6 -17.5t-12 -7.5h-7h-50h-1q-22 -4 -24 -25v-175v-575q0 -11 6 -17.5t12 -7.5h7h75q63 0 130 62q20 19 34 38q7 9 19 27q38 55 59 67q11 5 22 6l20 -4q15 -7 16 -21v-250q0 -11 -6 -17.5t-12 -7.5h-7h-650l-13 4
q-11 7 -12 21v50q0 11 6 17.5t12 7.5h7h50l13 4q11 7 12 21v575v175q0 11 -6 17.5t-12 7.5h-7h-50l-13 4q-11 7 -12 21v50q0 11 6 17.5t12 7.5h7z" />
    <glyph glyph-name="M" unicode="M" 
d="M25 1000h40q60 0 108 -34q39 -28 123 -112l104 -104l104 104q104 103 147 127q37 19 84 19h40q11 0 17.5 -6t7.5 -12v-7v-125v-825q0 -11 -6 -17.5t-12 -7.5h-7h-150l-13 4q-11 7 -12 21v575q0 18 -25 20h-18q-23 0 -30 -6q-10 -12 -27 -55q-18 -48 -38 -56
q-11 -3 -37 -3h-50q-37 0 -49 11q-13 13 -26 48q-21 54 -35 60q-6 1 -22 1q-36 0 -41 -10q-2 -5 -2 -10v-575q0 -11 -6 -17.5t-12 -7.5h-7h-150l-13 4q-11 7 -12 21v825v125l4 13q7 11 21 12z" />
    <glyph glyph-name="N" unicode="N" 
d="M25 1000h40q61 0 114 -39q40 -30 121 -111l115 -115q33 -34 57 -35h3q11 0 17.5 6t7.5 12v7v250q0 11 6 17.5t12 7.5h7h150l13 -4q11 -7 12 -21v-950q0 -11 -6 -17.5t-12 -7.5h-7h-150l-13 4q-11 7 -12 21v240q-3 62 -37 110q-29 40 -109 121q-91 92 -116 101q-7 3 -13 3
q-11 0 -17.5 -6t-7.5 -12v-7v-550q0 -11 -6 -17.5t-12 -7.5h-7h-75h-75l-13 4q-11 7 -12 21v950l4 13q7 11 21 12z" />
    <glyph glyph-name="O" unicode="O" 
d="M275 1000h150q75 0 116 -18q4 -1 6 -2q89 -37 128 -116q25 -55 25 -112v-504q0 -58 -25 -112q-40 -80 -128 -116q-39 -16 -74 -18q-22 -2 -48 -2h-150q-75 0 -116 18q-4 1 -6 2q-89 37 -128 116q-25 55 -25 112v504q0 58 25 112q40 80 128 116q39 16 74 18q21 2 48 2z
M275 900q-57 0 -72 -35q-3 -8 -3 -15v-700q0 -31 37 -44q18 -6 38 -6h150q57 0 72 35q3 8 3 15v700q0 31 -37 44q-17 6 -38 6h-150z" />
    <glyph glyph-name="P" unicode="P" 
d="M25 1000h400q75 0 116 -18q4 -1 6 -2q89 -37 128 -116q25 -55 25 -114v0q0 -64 -25 -115q-40 -79 -128 -115q-39 -16 -82 -19q-18 -1 -40 -1h-100l-13 -4q-11 -7 -12 -21v-75v-275q0 -11 6 -17.5t12 -7.5h7h50l13 -4q11 -7 12 -21v-50q0 -11 -6 -17.5t-12 -7.5h-7h-350
l-13 4q-11 7 -12 21v50q0 11 6 17.5t12 7.5h7h50l13 4q11 7 12 21v750q0 11 -6 17.5t-12 7.5h-7h-50l-13 4q-11 7 -12 21v50q0 11 6 17.5t12 7.5h7zM700 750zM325 900l-13 -4q-11 -7 -12 -21v-250q0 -12 6 -18t13 -7h6h100q57 0 72 35q3 7 3 15v200q0 31 -37 44q-17 6 -38 6
h-100z" />
    <glyph glyph-name="Q" unicode="Q" 
d="M275 1000h150q75 0 116 -18q4 -1 6 -2q89 -37 128 -116q25 -55 25 -112v-504q0 -58 -25 -112q-22 -44 -58 -75q-17 -13 -17 -34v-102q0 -11 6 -17.5t12 -7.5h7h50l13 -4q11 -7 12 -21v-50q0 -11 -6 -17.5t-12 -7.5h-7h-250l-13 4q-11 7 -12 21v150q0 11 -6 17.5t-12 7.5
h-7h-100q-75 0 -116 18q-4 1 -6 2q-89 37 -128 116q-25 55 -25 112v504q0 58 25 112q40 80 128 116q39 16 74 18q21 2 48 2zM275 900q-57 0 -72 -35q-3 -8 -3 -15v-700q0 -31 37 -44q18 -6 38 -6l13 4q11 7 12 21v150l4 13q7 11 21 12q21 0 67 -43q12 -12 33 -32
q16 -16 25.5 -24t22.5 -16.5t20 -1t7 29.5v637q0 31 -37 44q-17 6 -38 6h-150z" />
    <glyph glyph-name="R" unicode="R" 
d="M25 1000h400q75 0 116 -18q4 -1 6 -2q89 -37 128 -116q25 -55 25 -114v0q0 -64 -25 -115q-18 -35 -45 -62q-22 -22 -26 -31.5t-4 -40.5v-1q0 -21 10 -42l3 -6q4 -8 6 -13q7 -14 24 -45q57 -108 57 -144v-75v-150q0 -11 -6 -17.5t-12 -7.5h-7h-150l-13 4q-11 7 -12 21v191
q-2 91 -16 120q-4 9 -11 21q-82 143 -148 143q-11 0 -17.5 -6t-7.5 -12v-7v-375v-75q0 -11 -6 -17.5t-12 -7.5h-7h-75h-175l-13 4q-11 7 -12 21v50q0 11 6 17.5t12 7.5h7h50l13 4q11 7 12 21v750q0 11 -6 17.5t-12 7.5h-7h-50l-13 4q-11 7 -12 21v50q0 11 6 17.5t12 7.5h7z
M700 750zM325 900l-13 -4q-11 -7 -12 -21v-250q0 -12 6 -18t13 -7h6h100q57 0 72 35q3 7 3 15v200q0 31 -37 44q-17 6 -38 6h-100z" />
    <glyph glyph-name="S" unicode="S" 
d="M237 1000h188q75 0 116 -18q4 -1 6 -2q89 -38 128 -116q25 -55 25 -113v-26v0q0 -11 -6.5 -17.5t-12.5 -6.5l-6 -1h-150l-13 4q-11 7 -12 21v125q0 31 -37 44q-17 6 -38 6h-150h-1q-42 -1 -53 -12q-3 -2 -5 -4q-16 -18 -16 -49q0 -66 70 -142q55 -59 123 -89
q43 -18 93 -52q207 -149 214 -303q0 -59 -25 -113q-40 -79 -128 -116q-39 -16 -74 -18q-22 -2 -48 -2h-150q-75 0 -116 18q-4 1 -6 2q-89 38 -128 116q-25 55 -25 113v26v0q0 11 6.5 17.5t12.5 6.5l6 1h150l13 -4q11 -7 12 -21v-125q0 -31 37 -44q18 -6 38 -6h150
q57 0 72 35q3 8 3 15v99q-2 52 -18 84q-33 66 -107 123q-39 29 -75 44q-103 42 -194 132q-88 87 -106 168q-4 22 14 60q30 58 113 105q64 35 110 35z" />
    <glyph glyph-name="T" unicode="T" 
d="M25 1000h750l13 -4q11 -7 12 -21v-250q0 -11 -9 -17.5t-18 -6.5l-9 -1q-30 1 -67 52q-5 7 -14 21q-13 18 -19 27q-72 99 -139 100l-13 -4q-11 -7 -12 -21v-750q0 -11 6 -17.5t12 -7.5h7h50l13 -4q11 -7 12 -21v-50q0 -11 -6 -17.5t-12 -7.5h-7h-350l-13 4q-11 7 -12 21
v50q0 11 6 17.5t12 7.5h7h50l13 4q11 7 12 21v750q0 11 -6 17.5t-12 7.5h-7q-68 -1 -139 -100q-7 -9 -19 -27q-38 -55 -59 -67q-11 -5 -22 -6l-20 4q-15 7 -16 21v250q0 11 6 17.5t12 7.5h7z" />
    <glyph glyph-name="U" unicode="U" 
d="M25 1000h150l13 -4q11 -7 12 -21v-825q0 -31 37 -44q18 -6 38 -6h150q57 0 72 35q3 8 3 15v825q0 11 6 17.5t12 7.5h7h150l13 -4q11 -7 12 -21v-726q0 -59 -25 -113q-40 -79 -128 -116q-39 -16 -74 -18q-22 -2 -48 -2h-150q-75 0 -116 18q-4 1 -6 2q-89 38 -128 116
q-25 55 -25 113v726q0 11 6 17.5t12 7.5h7z" />
    <glyph glyph-name="V" unicode="V" 
d="M25 1000h150l13 -4q11 -7 12 -21v-550q0 -36 29 -86q5 -8 9 -14q55 -73 162 -125q108 53 163 125q26 34 35 84q2 10 2 16v550q0 11 6 17.5t12 7.5h7h150l13 -4q11 -7 12 -21v-475q0 -92 -19 -129q-47 -89 -165 -206q-52 -51 -99 -88q-82 -63 -113 -76q-3 -1 -4 -1
q-1 1 -34 17q-108 64 -230 197q-85 92 -118 157q-18 38 -18 129v475q0 11 6 17.5t12 7.5h7z" />
    <glyph glyph-name="W" unicode="W" 
d="M25 1000h150l13 -4q11 -7 12 -21v-625q0 -23 12.5 -35.5t25.5 -13.5l12 -1h25l13 4q11 7 12 21v150q0 11 6 17.5t12 7.5h7h150l13 -4q11 -7 12 -21v-150q0 -11 6 -17.5t12 -7.5h7h25l21 4q28 13 29 46v625q0 11 6 17.5t12 7.5h7h150l13 -4q11 -7 12 -21v-675
q-1 -43 -50 -100q-22 -25 -37 -79q-3 -12 -5 -21l-8 -50q-4 -22 -16.5 -34.5t-23.5 -13.5l-10 -2h-88l-18 5q-23 14 -32 45l-24 100q-6 22 -18.5 34.5t-22.5 13.5l-9 2h-76l-18 -5q-23 -14 -32 -45l-24 -100q-6 -22 -18.5 -34.5t-22.5 -13.5l-9 -2h-88l-19 5q-25 14 -31 45
l-8 50q-8 49 -37 93q-3 4 -5 7q-49 58 -50 100v675q0 11 6 17.5t12 7.5h7z" />
    <glyph glyph-name="X" unicode="X" 
d="M25 1000h125h25l13 -4q11 -7 12 -21v-12v-13q0 -39 26 -95q8 -18 17 -30q59 -77 112 -123q18 -16 45 -37q78 63 121 114q15 19 36 46q30 39 41 107q2 11 2 18v13v12q0 11 6 17.5t12 7.5h7h25h125l13 -4q11 -7 12 -21v-40q0 -59 -35 -108q-23 -33 -77 -88
q-65 -63 -111 -122q-63 -82 -76 -113q-1 -3 -1 -4q1 -1 17 -34q62 -103 186 -220q75 -79 89 -124q8 -25 8 -57v-40q0 -11 -6 -17.5t-12 -7.5h-7h-125h-25l-13 4q-11 7 -12 21v12v13q0 39 -26 95q-8 18 -17 30q-59 77 -112 123q-18 16 -45 37q-78 -63 -121 -114
q-15 -19 -36 -46q-30 -39 -41 -107q-2 -11 -2 -18v-13v-12q0 -11 -6 -17.5t-12 -7.5h-7h-150l-13 4q-11 7 -12 21v40q0 60 35 109q21 28 62 72q125 118 186 220l17 34q0 13 -64 99q-7 10 -13 18q-47 60 -111 122q-84 86 -101 130q-11 29 -11 66v40q0 11 6 17.5t12 7.5h7z
" />
    <glyph glyph-name="Y" unicode="Y" 
d="M25 1000h125h25l13 -4q11 -7 12 -21v-125q0 -39 26 -95q8 -18 17 -30q59 -77 112 -123q18 -16 45 -37q78 63 121 114q15 19 36 46q30 39 41 107q2 11 2 18v125q0 11 6 17.5t12 7.5h7h25h125l13 -4q11 -7 12 -21v-140q0 -59 -35 -108q-23 -33 -77 -88q-65 -63 -111 -122
q-27 -36 -62 -92q-15 -26 -15 -50v-50v-200q0 -11 6 -17.5t12 -7.5h7h50l13 -4q11 -7 12 -21v-50q0 -11 -6 -17.5t-12 -7.5h-7h-350l-13 4q-11 7 -12 21v50q0 11 6 17.5t12 7.5h7h50l13 4q11 7 12 21v200v50q-1 30 -13 50q-26 43 -64 92q-47 60 -111 122q-84 86 -101 130
q-11 29 -11 66v140q0 11 6 17.5t12 7.5h7z" />
    <glyph glyph-name="Z" unicode="Z" 
d="M25 1000h300h75h375l13 -4q11 -7 12 -21v-40q0 -59 -35 -108q-27 -38 -111 -123l-266 -266q-139 -142 -167 -191q-21 -37 -21 -85q0 -28 1 -37l3 -13q7 -11 21 -12h275q63 0 130 62q20 19 34 38q7 9 19 27q38 55 59 67q11 5 22 6l20 -4q15 -7 16 -21v-250q0 -11 -6 -17.5
t-12 -7.5h-7h-750q-11 0 -17.5 6t-7.5 12v7v81q0 84 8 108q16 48 93 132q49 53 154 159l295 295q49 53 50 75q0 11 -6 17.5t-12 7.5h-7h-75h-50h-125h-25q-63 0 -130 -62q-20 -19 -34 -38q-7 -9 -19 -27q-38 -55 -59 -67q-11 -5 -22 -6l-20 4q-15 7 -16 21v250q0 11 6 17.5
t12 7.5h7z" />
    <glyph glyph-name="bracketleft" unicode="[" 
d="M225 1000h350l13 -4q11 -7 12 -21v-50q0 -11 -6 -17.5t-12 -7.5h-7h-150l-13 -4q-11 -7 -12 -21v-750q0 -11 6 -17.5t12 -7.5h7h150l13 -4q11 -7 12 -21v-50q0 -11 -6 -17.5t-12 -7.5h-7h-350l-13 4q-11 7 -12 21v950q0 11 6 17.5t12 7.5h7z" />
    <glyph glyph-name="backslash" unicode="\" 
d="M25 900q21 0 66 -42q14 -13 34 -33q403 -402 430 -429q103 -105 126 -147q17 -34 19 -74v-10v-140l-3 -13q-8 -11 -22 -12q-21 0 -65 41q-15 14 -34 34l-430 429q-104 104 -127 148q-17 33 -19 73v10v140l4 13q7 11 21 12z" />
    <glyph glyph-name="bracketright" unicode="]" 
d="M575 1000l13 -4q11 -7 12 -21v-950q0 -11 -6 -17.5t-12 -7.5h-7h-350l-13 4q-11 7 -12 21v50q0 11 6 17.5t12 7.5h7h150l13 4q11 7 12 21v750q0 11 -6 17.5t-12 7.5h-7h-150l-13 4q-11 7 -12 21v50q0 11 6 17.5t12 7.5h7h350z" />
    <glyph glyph-name="asciicircum" unicode="^" 
d="M75 925l275 275l275 -275v0q69 -70 74 -91q1 -5 1 -9q0 -11 -6 -17.5t-12 -7.5h-7h-100q-36 0 -60 22q-6 5 -15 14l-150 162l-150 -162q-29 -28 -47 -33q-12 -3 -28 -3h-100l-13 4q-11 7 -12 21q0 21 42 65q13 15 33 35v0z" />
    <glyph glyph-name="underscore" unicode="_" 
d="M0 -125q0 11 6 17.5t12 7.5h7h750l13 -4q11 -7 12 -21v-50q0 -11 -6 -17.5t-12 -7.5h-7h-750l-13 4q-11 7 -12 21v50z" />
    <glyph glyph-name="grave" unicode="`" 
d="M375 1200l13 -4q11 -7 12 -21v-42q0 -48 25 -93q0 -2 2 -4q2 -4 2 -5q18 -27 48 -59q34 -36 16 -58l-4 -4q-11 -10 -39 -10q-50 0 -97 22q-58 26 -108 88q-13 17 -22 32q-17 32 -19 40q-4 16 -4 43v50q0 11 6 17.5t12 7.5h7h150z" />
    <glyph glyph-name="a" unicode="a" 
d="M125 700h200q75 0 116 -18q4 -1 6 -2q89 -38 128 -116q25 -55 25 -113v-326l4 -13q7 -11 21 -12h50l13 -4q11 -7 12 -21v-50q0 -11 -6 -17.5t-12 -7.5h-7h-28q-70 0 -90 5q-37 12 -57 45q-28 48 -44 50q-15 1 -49 -41q-4 -5 -7 -9q-32 -39 -68 -46q-21 -4 -57 -4
q-76 0 -117 18q-3 1 -5 2q-89 37 -128 115q-25 52 -25 115q0 60 25 114q40 80 128 116q39 16 74 18q22 2 48 2h100q11 0 17.5 6t7.5 12v7v25q0 31 -37 44q-17 6 -38 6h-200l-13 4q-11 7 -12 21v50q0 11 6 17.5t12 7.5h7zM275 400q-57 0 -72 -35q-3 -8 -3 -15v-200
q0 -31 37 -45q18 -5 38 -5h75l21 5q28 13 29 45v225l-4 13q-7 11 -21 12h-100zM0 250z" />
    <glyph glyph-name="b" unicode="b" 
d="M25 1000h250l13 -4q11 -7 12 -21v-125v-125q0 -11 6.5 -17.5t12.5 -7.5l6 -1q197 -10 317 -191q15 -23 29 -49q25 -43 29 -109v-106q-1 -56 -25 -108q-40 -79 -128 -116q-39 -16 -74 -18q-22 -2 -48 -2h-300l-13 4q-11 7 -12 21v850q0 11 -6 17.5t-12 7.5h-7h-50l-13 4
q-11 7 -12 21v50q0 11 6 17.5t12 7.5h7zM313 599q-13 0 -13 -24v-450q0 -11 6 -17.5t12 -7.5h7h100q57 0 72 35q3 8 3 15v150v25q0 75 -26 134q-55 102 -130 132q-10 4 -19 6t-12 2z" />
    <glyph glyph-name="c" unicode="c" 
d="M275 700h75q119 0 155 -13q83 -29 149 -90q45 -43 46 -72q0 -11 -6 -17.5t-13 -6.5l-6 -1h-50q-55 0 -73 10q-7 5 -24 18q-17 14 -28 22q-49 35 -70 42q-27 8 -80 8h-75q-57 0 -72 -35q-3 -8 -3 -15v-400q0 -31 37 -44q18 -6 38 -6h75q71 0 104 18q12 7 46 32q11 9 28 21
q29 24 48 27q14 2 49 2h50l13 -4q11 -7 12 -21q0 -42 -82 -101q-57 -41 -113 -61q-38 -13 -155 -13h-75q-75 0 -116 18q-4 1 -6 2q-89 37 -128 116q-25 54 -25 112v203q0 60 25 113q40 79 128 116q39 15 74 18q21 2 48 2z" />
    <glyph glyph-name="d" unicode="d" 
d="M325 1000h250l13 -4q11 -7 12 -21v-851q4 -23 25 -24h50l13 -4q11 -7 12 -21v-50q0 -11 -6 -17.5t-12 -7.5h-7h-28q-72 0 -92 6q-36 12 -55 44q-28 48 -44 50q-15 1 -49 -41q-4 -5 -7 -9q-33 -39 -72 -46q-21 -4 -56 -4q-73 0 -112 17q-4 2 -7 3q-89 38 -128 116
q-24 53 -25 108v106q5 67 29 109q92 164 223 215q57 22 123 25l14 4q10 8 11 22v150q0 11 -6 17.5t-12 7.5h-7h-50l-13 4q-11 7 -12 21v50q0 11 6 17.5t12 7.5h7zM387 599h-2q-6 -1 -10 -2q-74 -17 -134 -113q-8 -13 -15 -25q-26 -61 -26 -134v-25v-150q0 -31 38 -44
q17 -6 37 -6h75l21 5q28 13 29 45v425q-2 22 -13 24z" />
    <glyph glyph-name="e" unicode="e" 
d="M425 700q75 0 116 -18q4 -1 6 -2q89 -38 128 -116q25 -55 25 -113v-28q-1 -10 -7 -16t-12 -6l-6 -1h-75h-375q-22 -6 -25 -25v-225q0 -31 37 -44q18 -6 38 -6h75q71 0 104 18q12 7 46 32q11 9 28 21q29 24 48 27q14 2 49 2h50l13 -4q11 -7 12 -21q0 -42 -82 -101
q-57 -41 -113 -61q-38 -13 -155 -13h-75q-75 0 -116 18q-4 1 -6 2q-89 37 -128 116q-25 54 -25 112v203q0 60 25 113q40 79 128 116q39 15 74 18q21 2 48 2h150zM425 600h-150q-57 0 -72 -35q-3 -8 -3 -15v-25q0 -11 6 -17.5t12 -7.5h7h250l13 4q11 7 12 21v25q0 31 -37 44
q-17 6 -38 6z" />
    <glyph glyph-name="f" unicode="f" 
d="M350 1000q53 0 88 -16q5 -2 10 -5q58 -27 107 -87q15 -19 23 -35q25 -47 22 -109q-2 -28 -10 -36q-11 -11 -29 -12h-11q-18 0 -30 7q-14 9 -62 72q-66 86 -107 115q-8 6 -12 6q-16 -1 -31 -26q-8 -13 -8 -100v-32v-117l4 -13q7 -11 21 -12h50l13 -4q11 -7 12 -21v-50
q0 -11 -6 -17.5t-12 -7.5h-7h-50q-11 0 -17.5 -6t-7.5 -12v-7v-350q0 -11 6 -17.5t12 -7.5h7h50l13 -4q11 -7 12 -21v-50q0 -11 -6 -17.5t-12 -7.5h-7h-350l-13 4q-11 7 -12 21v50q0 11 6 17.5t12 7.5h7h50l13 4q11 7 12 21v350l-4 13q-7 11 -21 12h-50l-13 4q-11 7 -12 21
v50q0 11 6 17.5t12 7.5h7h50q11 0 17.5 6t7.5 12v7v100q0 88 12 114q2 5 9 18q27 51 90 98q22 15 41 24q40 19 78 21h20z" />
    <glyph glyph-name="g" unicode="g" 
d="M625 700h9h12h29l13 -4q11 -7 12 -21v-50q0 -11 -6 -17.5t-12 -7.5h-7h-50q-11 0 -17.5 -6t-7.5 -12v-7v-627q0 -58 -25 -112q-40 -80 -128 -116q-39 -16 -74 -18q-21 -2 -48 -2q-94 0 -130 13q-83 29 -149 90q-45 43 -46 72q0 11 6 17.5t12 7.5h7h50q55 0 73 -11
q7 -4 24 -18q17 -13 28 -21q57 -41 89 -47q16 -3 36 -3q57 0 72 35q3 8 3 15v125l-4 13q-7 11 -21 12h-100q-75 0 -116 18q-4 1 -6 2q-89 38 -128 116q-25 55 -25 113v202q0 59 25 113q40 79 128 116q39 16 74 18q22 2 48 2q67 0 94 -20q15 -11 31 -30q37 -48 52 -50
q16 -2 42 40l6 10q27 46 98 50h27zM275 600q-57 0 -72 -35q-3 -8 -3 -15v-400q0 -31 37 -44q18 -6 38 -6h100q11 0 17.5 6t7.5 12v7v425q0 22 -12.5 34.5t-25.5 13.5l-12 2h-75z" />
    <glyph glyph-name="h" unicode="h" 
d="M25 1000h250l13 -4q11 -7 12 -21v-300q0 -42 16 -58q29 -29 55 -11q6 4 10 9q57 72 84 82q10 3 21 3q56 -1 126 -62q44 -39 67 -81q21 -42 21 -82v-450q0 -11 -6.5 -17.5t-12.5 -7.5h-6h-150l-13 4q-11 7 -12 21v450q-1 26 -7 55q-9 41 -40 63q-11 7 -20 7q-27 0 -71 -66
q-36 -54 -49 -104q-13 -53 -13 -105v-300q0 -11 -6.5 -17.5t-12.5 -7.5h-6h-250l-13 4q-11 7 -12 21v50q0 11 6 17.5t12 7.5h7h50l13 4q11 7 12 21v750q0 11 -6 17.5t-12 7.5h-7h-50l-13 4q-11 7 -12 21v50q0 11 6 17.5t12 7.5h7z" />
    <glyph glyph-name="i" unicode="i" 
d="M325 1000h150l13 -4q11 -7 12 -21v-150q0 -11 -6 -17.5t-12 -7.5h-7h-150l-13 4q-11 7 -12 21v150q0 11 6 17.5t12 7.5h7zM225 700h250l13 -4q11 -7 12 -21v-550q0 -11 6 -17.5t12 -7.5h7h50l13 -4q11 -7 12 -21v-50q0 -11 -6 -17.5t-12 -7.5h-7h-350l-13 4q-11 7 -12 21
v50q0 11 6 17.5t12 7.5h7h50l13 4q11 7 12 21v450q0 11 -6 17.5t-12 7.5h-7h-50l-13 4q-11 7 -12 21v50q0 11 6 17.5t12 7.5h7z" />
    <glyph glyph-name="j" unicode="j" 
d="M525 1000h150l13 -4q11 -7 12 -21v-150q0 -11 -6 -17.5t-12 -7.5h-7h-150l-13 4q-11 7 -12 21v150q0 11 6 17.5t12 7.5h7zM425 700h250l13 -4q11 -7 12 -21v-726q0 -59 -25 -113q-40 -79 -128 -116q-39 -16 -74 -18q-12 -1 -23 -2h-100q-54 2 -94 19q-2 1 -3 1
q-89 38 -128 116q-25 55 -25 113v28q1 10 7 16t12 6l6 1h150l13 -4q11 -7 12 -21v-125q0 -31 37 -44q18 -6 38 -6h50q57 0 72 35q3 8 3 15v725q0 11 -6 17.5t-12 7.5h-7h-50l-13 4q-11 7 -12 21v50q0 11 6 17.5t12 7.5h7z" />
    <glyph glyph-name="k" unicode="k" 
d="M25 1000h250l13 -4q11 -7 12 -21v-75v-375l4 -13q7 -11 21 -12q25 0 75 50l100 114q29 28 47 33q12 3 28 3h100l13 -4q11 -7 12 -21q0 -21 -42 -66q-13 -14 -33 -34v0l-75 -75l-100 -100l113 -114q91 -92 112 -136q18 -38 22 -70q3 -24 3 -55q0 -11 -6 -17.5t-12 -7.5h-7
h-150l-13 4q-11 7 -12 21q0 80 -19 118q-3 7 -8 14q-82 143 -148 143q-11 0 -17.5 -6t-7.5 -12v-7v-175v-75q0 -11 -6 -17.5t-12 -7.5h-7h-250l-13 4q-11 7 -12 21v50q0 11 6 17.5t12 7.5h7h50l13 4q11 7 12 21v750q0 11 -6 17.5t-12 7.5h-7h-50l-13 4q-11 7 -12 21v50
q0 11 6 17.5t12 7.5h7z" />
    <glyph glyph-name="l" unicode="l" 
d="M225 1000h250l13 -4q11 -7 12 -21v-75v-775q0 -11 6 -17.5t12 -7.5h7h50l13 -4q11 -7 12 -21v-50q0 -11 -6 -17.5t-12 -7.5h-7h-350l-13 4q-11 7 -12 21v50q0 11 6 17.5t12 7.5h7h50l13 4q11 7 12 21v750q0 11 -6 17.5t-12 7.5h-7h-50l-13 4q-11 7 -12 21v50q0 11 6 17.5
t12 7.5h7z" />
    <glyph glyph-name="m" unicode="m" 
d="M99 700h76q45 -1 65.5 -5.5t30.5 -12t27 -31.5h1q30 -41 51 -47q13 -4 50 -4h15q24 1 43 19l24 24q53 53 89 56q12 1 24 -1q68 -13 137 -81q30 -31 47 -60q19 -33 21 -72v-10v-75v-375q0 -11 -6 -17.5t-12 -7.5h-7h-150l-13 4q-11 7 -12 21v350v25v50q0 22 -12.5 34.5
t-25.5 13.5l-12 2l-21 -4q-28 -13 -29 -46v-50v-25v-350q0 -11 -6 -17.5t-12 -7.5h-7h-150l-13 4q-11 7 -12 21v350v25v50q0 22 -12.5 34.5t-25.5 13.5l-12 2h-25l-13 -4q-11 -7 -12 -21v-75v-25v-350q0 -11 -6 -17.5t-12 -7.5h-7h-150l-13 4q-11 7 -12 21v650q0 11 6 17.5
t12 7.5h7h74z" />
    <glyph glyph-name="n" unicode="n" 
d="M75 700q73 0 103 -24q13 -11 22 -26q28 -48 44 -50q15 -1 48 40l8 10q32 39 66 46q17 3 43 4h41q54 -2 93 -19q2 -1 4 -1q89 -38 128 -116q25 -55 25 -113v-428q-1 -10 -7 -16t-12 -6l-6 -1h-150l-13 4q-11 7 -12 21v525q0 31 -37 44q-17 6 -38 6h-75l-21 -5
q-28 -13 -29 -45v-525q0 -11 -6 -17.5t-12 -7.5h-7h-150l-13 4q-11 7 -12 21v550l-4 13q-7 11 -21 12h-50l-13 4q-11 7 -12 21v50q0 11 6 17.5t12 7.5h7h29h12h9z" />
    <glyph glyph-name="o" unicode="o" 
d="M275 700h150q74 0 116 -18q4 -1 6 -2q89 -38 128 -116q25 -55 25 -113v-202q0 -59 -25 -113q-40 -79 -128 -116q-39 -15 -73 -18q-22 -2 -49 -2h-150q-74 0 -116 18q-4 1 -6 2q-89 38 -128 116q-25 55 -25 113v202q0 59 25 113q40 79 128 116q39 15 73 18q21 2 49 2z
M275 600q-57 0 -72 -35q-3 -8 -3 -15v-400q0 -31 37 -44q18 -6 38 -6h150q57 0 72 35q3 8 3 15v400q0 31 -37 44q-17 6 -38 6h-150z" />
    <glyph glyph-name="p" unicode="p" 
d="M75 700q73 0 103 -24q13 -11 22 -26q28 -48 44 -50q15 -1 48 40l8 10q32 39 66 46q17 3 43 4h41q54 -2 93 -19q2 -1 4 -1q89 -38 128 -116q25 -55 25 -113v-202q0 -59 -25 -113q-40 -79 -128 -116q-39 -16 -74 -18q-22 -2 -48 -2h-100q-11 0 -17.5 -6t-7.5 -12v-7v-150
q0 -11 6 -17.5t12 -7.5h7h50l13 -4q11 -7 12 -21v-50q0 -11 -6 -17.5t-12 -7.5h-7h-350l-13 4q-11 7 -12 21v50q0 11 6 17.5t12 7.5h7h50l13 4q11 7 12 21v750l-4 13q-7 11 -21 12h-50l-13 4q-11 7 -12 21v50q0 11 6 17.5t12 7.5h7h29h12h9zM350 600l-21 -5q-28 -13 -29 -45
v-425l4 -13q7 -11 21 -12h100q57 0 72 35q3 8 3 15v400q0 31 -37 44q-17 6 -38 6h-75z" />
    <glyph glyph-name="q" unicode="q" 
d="M625 700h9h12h29l13 -4q11 -7 12 -21v-50q0 -11 -6 -17.5t-13 -6.5l-6 -1h-50q-11 0 -17.5 -6t-6.5 -13l-1 -6v-750q0 -11 6.5 -17.5t12.5 -6.5l6 -1h50l13 -4q11 -7 12 -21v-50q0 -11 -6 -17.5t-13 -6.5l-6 -1h-350l-13 4q-11 7 -12 21v50q0 11 6.5 17.5t12.5 6.5l6 1
h50l13 4q11 7 12 21v150l-3 13q-8 11 -22 12h-100q-75 0 -116 18q-4 1 -6 2q-89 38 -128 116q-25 55 -25 113v202q0 59 25 113q40 79 128 116q39 15 70 18q13 2 27 2h41q57 -1 85 -25q11 -10 24 -25q37 -48 52 -50q16 -2 42 40l6 10q27 46 98 50h27zM350 600h-75
q-57 0 -72 -35q-3 -8 -3 -15v-400q0 -31 37 -44q18 -6 38 -6h100q11 0 17.5 6t6.5 13l1 6v425q0 22 -12.5 34.5t-24.5 13.5z" />
    <glyph glyph-name="r" unicode="r" 
d="M417 700h33q90 0 163 -60q39 -33 62 -76q25 -49 25 -113v-26q0 -11 -6 -17.5t-12 -7.5h-7h-150l-13 4q-11 7 -12 21v150l-4 13q-7 11 -21 12q-66 -1 -148 -143q-20 -35 -24 -75q-2 -24 -3 -66v-91v-100q0 -11 6 -17.5t12 -7.5h7h50l13 -4q11 -7 12 -21v-50
q0 -11 -6 -17.5t-12 -7.5h-7h-350l-13 4q-11 7 -12 21v50q0 11 6 17.5t12 7.5h7h50l13 4q11 7 12 21v450l-4 13q-7 11 -21 12h-50l-13 4q-11 7 -12 21v50q0 11 6 17.5t12 7.5h7h50q73 0 105 -27q11 -10 20 -23q29 -43 38 -48q13 -5 42 22l26 26q51 49 111 50z" />
    <glyph glyph-name="s" unicode="s" 
d="M275 700h75q119 0 155 -13q83 -29 149 -90q45 -43 46 -72q0 -11 -6 -17.5t-12 -7.5h-7h-50q-55 0 -73 11q-7 4 -24 18q-17 13 -28 21q-49 36 -70 42q-27 8 -80 8h-100l-24 -4q-25 -12 -26 -36q0 -55 74 -96q12 -7 26 -14l100 -50q258 -132 295 -224q5 -14 5 -26
q0 -32 -30 -67q-4 -5 -8 -8q-82 -75 -237 -75h-75q-119 0 -155 13q-83 29 -149 90q-45 43 -46 72q0 11 6 17.5t12 7.5h7h50q55 0 73 -11q7 -4 24 -18q17 -13 28 -21q49 -36 70 -42q27 -8 80 -8h100l24 4q25 12 26 36q0 55 -74 96q-12 7 -26 14l-100 50q-258 132 -295 224
q-5 14 -5 26q0 32 30 67q4 5 8 8q82 75 237 75z" />
    <glyph glyph-name="t" unicode="t" 
d="M375 1000q11 0 17.5 -6t7.5 -12v-7v-250l4 -13q7 -11 21 -12h150l13 -4q11 -7 12 -21v-50q0 -11 -6 -17.5t-12 -7.5h-7h-150q-11 0 -17.5 -6t-7.5 -12v-7v-443q0 -22 25 -30q7 -2 14 -2q16 1 61 46q1 1 40 41l12 9q11 4 22 4h42q68 0 79 -15q5 -9 5 -23q0 -30 -74 -84
q-54 -39 -110 -63q-35 -14 -74 -15q-35 -1 -62 9q-83 31 -138 102q-13 16 -21 32q-21 40 -21 107v325l-4 13q-7 11 -21 12h-150l-13 4q-11 7 -12 21v50q0 11 6 17.5t12 7.5h7h150q11 0 17.5 6t7.5 12v7q0 81 17 114q3 7 10 18q82 143 148 143z" />
    <glyph glyph-name="u" unicode="u" 
d="M625 0q-73 0 -103 24q-13 11 -22 26q-28 48 -44 50q-15 1 -48 -40l-8 -10q-32 -39 -66 -46q-17 -3 -43 -4h-41q-54 2 -93 19q-2 1 -4 1q-89 38 -128 116q-25 55 -25 113v428q1 10 7 16t12 6l6 1h150l13 -4q11 -7 12 -21v-525q0 -31 37 -44q18 -6 38 -6h75l21 5
q28 13 29 45v525q0 11 6 17.5t12 7.5h7h150l13 -4q11 -7 12 -21v-550l4 -13q7 -11 21 -12h50l13 -4q11 -7 12 -21v-50q0 -11 -6 -17.5t-12 -7.5h-7h-29h-12h-9z" />
    <glyph glyph-name="v" unicode="v" 
d="M25 700h150l13 -4q11 -7 12 -21v-250q0 -36 29 -86q5 -8 9 -14q55 -73 162 -125q108 53 163 125q26 34 35 84q2 10 2 16v250q0 11 6 17.5t12 7.5h7h150l13 -4q11 -7 12 -21v-175q0 -92 -19 -129q-47 -89 -165 -206q-52 -51 -99 -88q-82 -63 -113 -76q-3 -1 -4 -1
q-1 1 -34 17q-108 64 -230 197q-85 92 -118 157q-18 38 -18 129v175q0 11 6 17.5t12 7.5h7z" />
    <glyph glyph-name="w" unicode="w" 
d="M25 700h150l13 -4q11 -7 12 -21v-425q0 -22 12.5 -34.5t25.5 -13.5l12 -2h25l13 4q11 7 12 21v150q0 11 6 17.5t12 7.5h7h150l13 -4q11 -7 12 -21v-150q0 -11 6 -17.5t12 -7.5h7h25l21 4q28 13 29 46v425q0 11 6 17.5t12 7.5h7h150l13 -4q11 -7 12 -21v-450
q-1 -44 -20 -82q-36 -68 -116 -114q-22 -12 -43 -20q-24 -8 -55 -9q-35 -1 -50 21q-8 10 -16 29q-15 36 -31 44q-13 6 -39 6h-59q-41 -1 -55 -19q-7 -10 -16 -31q-17 -40 -38 -47q-11 -3 -28 -3q-31 1 -55 9q-84 31 -138 103q-13 16 -21 31q-20 39 -20 82v450q0 11 6 17.5
t12 7.5h7z" />
    <glyph glyph-name="x" unicode="x" 
d="M25 700h100q36 0 60 -22q6 -5 15 -14l200 -205l200 205q29 28 47 33q12 3 28 3h100l13 -4q11 -7 12 -21q0 -21 -42 -65q-13 -15 -33 -35v0l-219 -225l219 -225v0q69 -70 74 -91q1 -5 1 -9q0 -11 -6 -17.5t-12 -7.5h-7h-100q-36 0 -60 22q-6 5 -15 14l-200 205l-200 -205
q-29 -28 -47 -33q-12 -3 -28 -3h-100l-13 4q-11 7 -12 21q0 21 42 65q13 15 33 35v0l219 225l-219 225v0q-69 70 -74 91q-1 5 -1 9q0 11 6 17.5t12 7.5h7z" />
    <glyph glyph-name="y" unicode="y" 
d="M25 700h150l13 -4q11 -7 12 -21v-525q0 -31 37 -44q18 -6 38 -6h200q11 0 17.5 6t7.5 12v7v550q0 11 6 17.5t12 7.5h7h150l13 -4q11 -7 12 -21v-625q-1 -60 -26 -107q-35 -69 -127 -150q-52 -45 -93 -66q-55 -27 -104 -27h-125h-200l-13 4q-11 7 -12 21v50q0 11 6 17.5
t12 7.5h7h200q90 0 140 24q17 8 35 19q99 62 100 115v7v10l-4 13q-7 11 -21 12h-200q-63 1 -122 20q-89 38 -128 116q-25 55 -25 113v428q1 10 7 16t12 6z" />
    <glyph glyph-name="z" unicode="z" 
d="M25 700h650l13 -4q11 -7 12 -21q0 -22 -42 -66q-14 -15 -33 -34l-375 -375q-49 -53 -50 -75q0 -11 6 -17.5t12 -7.5h7h175q49 0 66 12q14 11 33 37q28 40 47 47q14 4 54 4h75l13 -4q11 -7 12 -21v-150q0 -11 -6 -17.5t-12 -7.5h-7h-650l-13 4q-11 7 -12 21v40
q0 59 35 108q27 38 111 123l179 179q69 69 74 91q1 5 1 9q0 11 -6.5 17t-12.5 7l-6 1h-83q-44 0 -62 -15q-12 -11 -29 -34q-28 -40 -47 -47q-14 -4 -54 -4h-75l-13 4q-11 7 -12 21v150q0 11 6 17.5t12 7.5h7z" />
    <glyph glyph-name="braceleft" unicode="{" 
d="M575 1000h100l13 -4q11 -7 12 -21v-50q0 -11 -6 -17.5t-12 -7.5h-7h-100q-55 2 -71 -33q-4 -9 -4 -17v-115q0 -5 -0.5 -10t-1.5 -10l-1.5 -7.5t-2 -9t-2 -7.5t-3 -8.5l-2.5 -7.5q-29 -87 -91 -112l-29 -13l31 -13q64 -30 90 -112q12 -41 12 -74v-201q0 -31 37 -44
q18 -6 38 -6h100l13 -4q11 -7 12 -21v-50q0 -11 -6 -17.5t-12 -7.5h-7h-100q-75 0 -116 18q-4 1 -6 2q-89 38 -128 116q-25 54 -25 113v201q0 22 -12.5 34.5t-25.5 13.5l-12 2h-125l-13 4q-11 7 -12 21v50q0 11 6 17.5t12 7.5h7h125l21 4q28 13 29 46v101q0 60 25 113
q40 79 128 116q39 16 74 18q22 2 48 2z" />
    <glyph glyph-name="bar" unicode="|" 
d="M325 1000h150l13 -4q11 -7 12 -21v-350q0 -11 -6 -17.5t-12 -7.5h-7h-150l-13 4q-11 7 -12 21v350q0 11 6 17.5t12 7.5h7zM325 500h150l13 -4q11 -7 12 -21v-450q0 -11 -6 -17.5t-12 -7.5h-7h-150l-13 4q-11 7 -12 21v450q0 11 6 17.5t12 7.5h7z" />
    <glyph glyph-name="braceright" unicode="}" 
d="M225 1000q75 0 116 -18q4 -1 6 -2q89 -38 128 -116q25 -54 25 -113v-101q0 -22 12.5 -34.5t25.5 -14.5l12 -1h125l13 -4q11 -7 12 -21v-50q0 -11 -6 -17.5t-12 -7.5h-7h-125l-21 -4q-28 -13 -29 -46v-201q0 -60 -25 -113q-40 -79 -128 -116q-39 -16 -74 -18
q-22 -2 -48 -2h-100l-13 4q-11 7 -12 21v50q0 11 6 17.5t12 7.5h7h100q57 0 72 35q3 8 3 15v201q0 34 12 74q27 83 90 112l31 13l-29 13q-63 25 -91 112q-12 39 -13 60v115q0 30 -35 44q-18 7 -40 6h-100l-13 4q-11 7 -12 21v50q0 11 6 17.5t12 7.5h7h100z" />
    <glyph glyph-name="asciitilde" unicode="~" 
d="M11 811q-27 27 20 74l5 5q63 59 149 94q36 15 82 16h16q38 0 55 -6q32 -13 77 -72q17 -22 29 -22q18 0 55 47q25 32 34 41q15 12 42 12h75q49 -2 50 -38q0 -30 -75 -84q-54 -38 -109 -61q-39 -16 -88 -17h-10q-36 0 -56 7q-37 15 -68 60q-5 6 -8 12q-13 20 -28 21
q-18 0 -57 -48q-24 -28 -33 -38q-10 -13 -31 -14h-12h-75q-29 1 -39 11z" />
    <glyph glyph-name="uni007F" 
d="M350 800q1 -2 150 -150q136 -136 172 -190q28 -43 28 -85v-250q0 -11 -6 -17.5t-12 -7.5h-7h-200h-250h-200l-13 4q-11 7 -12 21v250q1 38 27 85q22 39 153 170l20 20l46.5 46.5l41.5 41.5t31.5 32t22.5 22zM350 600l-50 -50q-77 -77 -93 -126q-7 -24 -7 -49v-155
q2 -9 8 -14t11 -5l6 -1h250l13 4q11 7 12 21v150q-4 67 -61 134q-17 19 -39 41z" />
    <glyph glyph-name="uni00A0" unicode="&#xa0;" 
 />
    <glyph glyph-name="exclamdown" unicode="&#xa1;" 
d="M300 975q0 11 6 17t13 7l6 1h150l13 -4q11 -7 12 -21v-150q0 -11 -6 -17.5t-13 -6.5l-6 -1h-150l-13 3q-11 8 -12 22v150zM325 700h1h1h1h1h1h1h1h1h1h1h1h1h1h1h1h1h1h1h1h1h1h1h1h1h1h1h1h1h1h1h1h1h1h1h1h1h1h1h1h1h1h1h1h2h1h1h1h1h1h1h1h1h1h1h1h2h1h1h1h1h1h1h1h1
h1h2h1h1h1h1h1h1h1h1h1h2h1h1h1h1h1h1h1h1h2h1h1h1h1h1h1h1h1h1h2h1h1h1h1h1h1h1h1h1h1h1h2h1h1h1h1h1h1h1h1h1h1h2h1h1h2h1h1h2h1h1h1h2h1h1h9q11 0 17.5 -6.5t6.5 -12.5l1 -6v-185q0 -10 9 -26.5t18 -28.5l9 -12q8 -14 21 -38q32 -58 37.5 -76t5.5 -66q0 -58 -14 -87
q-3 -5 -7 -13q-32 -61 -102 -110q-47 -33 -77 -33q-44 0 -112 61q-45 41 -67 82q-18 34 -20 67q-1 14 -1 33q0 54 9 77q6 14 55 103l25 37q11 20 11 31v184l4 13q7 11 21 12z" />
    <glyph glyph-name="cent" unicode="&#xa2;" 
d="M325 1100h150l13 -4q11 -7 12 -21v-150q1 -21 27 -26q51 -3 78 -12q83 -29 149 -90q45 -43 46 -72q0 -11 -6 -17.5t-12 -7.5h-7h-50q-55 0 -73 11q-7 4 -24 18q-17 13 -28 21q-49 36 -70 42q-27 8 -80 8h-175q-57 0 -72 -35q-3 -8 -3 -15v-400q0 -31 37 -44q17 -6 38 -6
h175q71 0 104 18q12 7 46 32q11 9 28 22q29 23 48 26q14 2 49 2h50l13 -3q11 -8 12 -22q0 -42 -82 -101q-57 -41 -113 -61q-28 -10 -77 -12q-27 -6 -28 -26v-150q0 -11 -6 -17.5t-12 -7.5h-7h-150l-13 4q-11 7 -12 21v150q0 11 -6 17.5t-12 7.5h-7q-75 0 -116 18q-4 1 -6 2
q-89 38 -128 116q-25 54 -25 113v203q0 59 25 112q40 80 128 116q39 16 74 18q21 2 48 2l13 4q11 7 12 21v150q0 11 6 17.5t12 7.5h7z" />
    <glyph glyph-name="sterling" unicode="&#xa3;" 
d="M350 1100q53 0 88 -16q5 -2 10 -5q58 -27 107 -87q15 -19 23 -35q25 -47 22 -109q-2 -28 -10 -36q-11 -11 -29 -12h-11q-18 0 -30 7q-14 9 -62 72q-66 86 -107 115q-8 6 -12 6q-16 -1 -31 -26q-8 -13 -8 -100v-32v-117l4 -13q7 -11 21 -12h50l13 -4q11 -7 12 -21v-50
q0 -11 -6 -17.5t-12 -7.5h-7h-50q-11 0 -17.5 -6t-7.5 -12v-7v-450q0 -11 6 -17.5t12 -7.5h7h25q71 0 104 18q12 7 46 32q11 9 28 21q29 24 48 27q14 2 49 2h50l13 -4q11 -7 12 -21q0 -42 -82 -101q-57 -41 -113 -61q-38 -13 -155 -13h-325q-11 0 -17.5 6t-7.5 12v7v75
q0 50 10 65q10 14 41 36q39 28 45 50q4 15 4 49v275l-4 13q-7 11 -21 12h-50l-13 4q-11 7 -12 21v50q0 11 6 17.5t12 7.5h7h50q11 0 17.5 6t7.5 12v7v100q0 88 12 114q2 5 9 18q27 51 90 98q22 15 41 24q40 19 78 21h20z" />
    <glyph glyph-name="currency" unicode="&#xa4;" 
d="M63 800q32 0 61 -13q18 -8 76 -37l83 -41q17 -9 31 -9h72q15 0 31 9l83 41q91 46 111 49q10 1 26 1q55 0 61 -16q2 -6 2 -18q-1 -14 -50 -66q-40 -42 -41 -51q1 -4 3 -6v-1h1l1 -1q39 -33 61 -77q25 -55 25 -113v-102q0 -59 -25 -113q-23 -45 -61 -77l-1 -1h-1v-1
q-9 -8 29 -47q1 -1 2 -3l7 -7q49 -52 50 -66q0 -23 -12 -28q-14 -6 -51 -6q-32 0 -61 13q-18 8 -76 37l-83 41q-17 9 -31 9h-72q-15 0 -31 -9l-83 -41q-91 -46 -111 -49q-10 -1 -26 -1q-55 0 -61 16q-2 6 -2 18q1 14 50 66q40 42 41 51q-1 4 -3 6v1h-1l-1 1q-39 33 -61 77
q-25 55 -25 113v102q0 59 25 113q23 45 61 77l1 1h1v1q9 8 -29 47q-1 1 -2 3l-7 7q-49 52 -50 66q0 23 12 28q14 6 51 6zM275 600q-57 0 -72 -35q-3 -8 -3 -15v-300q0 -31 37 -44q18 -6 38 -6h150q57 0 72 35q3 8 3 15v300q0 31 -37 44q-17 6 -38 6h-150z" />
    <glyph glyph-name="yen" unicode="&#xa5;" 
d="M25 1000h100q36 0 60 -22q6 -5 15 -14l200 -205l200 205q29 28 47 33q12 3 28 3h100l13 -4q11 -7 12 -21q0 -21 -42 -65q-13 -15 -33 -35v0l-75 -75l-75 -75q-69 -69 -74 -91q-1 -5 -1 -9q0 -11 6.5 -17t12.5 -7l6 -1h125h125l13 -4q11 -7 12 -21v-50q0 -11 -6 -17.5
t-12 -7.5h-7h-250q-11 0 -17.5 -6t-7.5 -12v-7v-50l4 -13q7 -11 21 -12h250l13 -4q11 -7 12 -21v-50q0 -11 -6 -17.5t-12 -7.5h-7h-250q-11 0 -17.5 -6t-7.5 -12v-7v-250l-4 -13q-7 -11 -21 -12h-150q-11 0 -17.5 6t-7.5 12v7v250l-4 13q-7 11 -21 12h-250l-13 4
q-11 7 -12 21v50q0 11 6 17.5t12 7.5h7h250q11 0 17.5 6t7.5 12v7v50l-4 13q-7 11 -21 12h-250l-13 4q-11 7 -12 21v50q0 11 6 17.5t12 7.5h7h125h125l13 4q11 7 12 21q0 21 -42 66q-14 15 -33 34l-75 75l-75 75v0q-69 70 -74 91q-1 5 -1 9q0 11 6 17.5t12 7.5h7z" />
    <glyph glyph-name="brokenbar" unicode="&#xa6;" 
d="M325 1000h150l13 -4q11 -7 12 -21v-350q0 -11 -6 -17.5t-12 -7.5h-7h-150l-13 4q-11 7 -12 21v350q0 11 6 17.5t12 7.5h7zM325 500h150l13 -4q11 -7 12 -21v-450q0 -11 -6 -17.5t-12 -7.5h-7h-150l-13 4q-11 7 -12 21v450q0 11 6 17.5t12 7.5h7z" />
    <glyph glyph-name="section" unicode="&#xa7;" 
d="M275 1100h75q119 0 155 -13q83 -29 149 -90q45 -43 46 -72q0 -11 -6 -17.5t-12 -7.5h-7h-50q-55 0 -73 11q-7 4 -24 18q-17 13 -28 21q-49 36 -70 42q-27 8 -80 8h-100l-24 -4q-25 -12 -26 -36q0 -55 74 -96q12 -7 26 -14l100 -50q280 -144 299 -281q1 -10 1 -19
q0 -67 -94 -159q-3 -4 -6 -6q-51 -47 -94 -74q-12 -9 15 -29q178 -110 179 -182q0 -32 -30 -67q-4 -5 -8 -8q-82 -75 -237 -75h-75q-119 0 -155 13q-67 24 -131 75t-64 87q0 11 6 17.5t12 7.5h7h50q55 0 73 -11q7 -4 24 -18q17 -13 28 -21q49 -36 70 -42q27 -8 80 -8h100
l24 4q25 12 26 36q0 55 -74 96q-12 7 -26 14l-100 50q-280 144 -299 281q-1 10 -1 19q0 67 94 159q3 4 6 6q51 47 94 74q12 9 -15 29q-178 110 -179 182q0 32 30 67q4 5 8 8q82 75 237 75zM350 699q-26 -1 -70 -42q-95 -91 -71 -197q13 -57 60 -106q53 -55 85 -52q12 1 25 8
q37 19 78 78q13 19 21 36q52 112 -41 215q-8 9 -16 17q-46 43 -71 43z" />
    <glyph glyph-name="dieresis" unicode="&#xa8;" 
d="M25 1100h150l13 -4q11 -7 12 -21v-50q0 -11 -6 -17.5t-12 -7.5h-7h-150l-13 4q-11 7 -12 21v50q0 11 6 17.5t12 7.5h7zM525 1100h150l13 -4q11 -7 12 -21v-50q0 -11 -6 -17.5t-12 -7.5h-7h-150l-13 4q-11 7 -12 21v50q0 11 6 17.5t12 7.5h7z" />
    <glyph glyph-name="copyright" unicode="&#xa9;" 
d="M200 1000h300q93 0 153 -71q47 -56 47 -129v-500q0 -93 -71 -153q-56 -47 -129 -47h-300q-93 0 -153 71q-47 56 -47 129v500q0 93 71 153q56 47 129 47zM200 900q-55 0 -84 -46q-16 -25 -16 -54v-500q0 -55 46 -84q25 -16 54 -16h300q55 0 84 46q16 25 16 54v500
q0 55 -46 84q-25 16 -54 16h-300zM450 800h25l13 -4q11 -7 12 -21v-50q0 -11 -6 -17.5t-12 -7.5h-7h-25q-74 0 -119 -59q-31 -41 -31 -91q0 -74 59 -119q41 -31 91 -31h25l13 -4q11 -7 12 -21v-50q0 -11 -6 -17.5t-12 -7.5h-7h-25q-110 0 -184 81q-66 72 -66 169
q0 110 81 184q72 66 169 66z" />
    <glyph glyph-name="ordfeminine" unicode="&#xaa;" 
d="M350 1100h150h75l13 -4q11 -7 12 -21v-75v-175q0 -11 6 -17.5t12 -7.5h7h50l13 -4q11 -7 12 -21v-50q0 -11 -6 -17.5t-12 -7.5h-7h-325q-57 0 -113 27q-4 3 -8 4q-78 44 -111 102q-3 5 -5 9q-13 28 -13 58q0 31 13 58q27 55 101 102q8 5 15 9q58 28 121 31zM350 1000
l-21 -4q-28 -13 -29 -46v-100q0 -22 12.5 -34.5t25.5 -13.5l12 -2h25l13 4q11 7 12 21v150q0 11 -6 17.5t-12 7.5h-7h-25zM125 600h550l13 -4q11 -7 12 -21v-50q0 -11 -6 -17.5t-12 -7.5h-7h-550l-13 4q-11 7 -12 21v50q0 11 6 17.5t12 7.5h7z" />
    <glyph glyph-name="guillemotleft" unicode="&#xab;" 
d="M275 700h100l13 -4q11 -7 12 -21q0 -21 -42 -65q-13 -15 -33 -35v0l-125 -125l125 -125v0q69 -70 74 -91q1 -5 1 -9q0 -11 -6 -17.5t-12 -7.5h-7h-100q-24 0 -44 19l-6 6l-225 225l225 225q22 22 39 24q6 1 11 1zM575 700h100l13 -4q11 -7 12 -21q0 -21 -42 -65
q-13 -15 -33 -35v0l-125 -125l125 -125v0q69 -70 74 -91q1 -5 1 -9q0 -11 -6 -17.5t-12 -7.5h-7h-100q-24 0 -44 19l-6 6l-225 225l225 225q22 22 39 24q6 1 11 1z" />
    <glyph glyph-name="logicalnot" unicode="&#xac;" 
d="M25 600h650l13 -4q11 -7 12 -21v-450q0 -11 -6 -17.5t-12 -7.5h-7h-150l-13 4q-11 7 -12 21v350q0 11 -6 17.5t-12 7.5h-7h-450l-13 4q-11 7 -12 21v50q0 11 6 17.5t12 7.5h7z" />
    <glyph glyph-name="uni00AD" unicode="&#xad;" 
d="M0 475q0 11 6 17.5t12 7.5h7h650l13 -4q11 -7 12 -21v-50q0 -11 -6 -17.5t-12 -7.5h-7h-650l-13 4q-11 7 -12 21v50z" />
    <glyph glyph-name="registered" unicode="&#xae;" 
d="M200 1000h300q93 0 153 -71q47 -56 47 -129v-500q0 -93 -71 -153q-56 -47 -129 -47h-300q-93 0 -153 71q-47 56 -47 129v500q0 93 71 153q56 47 129 47zM200 900q-55 0 -84 -46q-16 -25 -16 -54v-500q0 -55 46 -84q25 -16 54 -16h300q55 0 84 46q16 25 16 54v500
q0 55 -46 84q-25 16 -54 16h-300zM225 800h25q65 0 121 -24q83 -35 114 -80q1 -2 2 -2q13 -21 13 -44q-1 -24 -13 -44q-26 -38 -93 -72q68 -40 93 -84q13 -25 13 -51v-74q0 -11 -6 -17.5t-12 -7.5h-7h-50l-13 4q-11 7 -12 21v125q-1 36 -48 47q-13 3 -27 3l-13 -4
q-11 -7 -12 -21v-150q0 -11 -6 -17.5t-12 -7.5h-7h-50l-13 4q-11 7 -12 21v450q0 11 6 17.5t12 7.5h7zM325 700l-13 -4q-11 -7 -12 -21v-50q0 -11 6 -17.5t12 -7.5h7h25l21 4q28 13 29 46q0 22 -12.5 34.5t-25.5 13.5l-12 2h-25z" />
    <glyph glyph-name="macron" unicode="&#xaf;" 
d="M0 1075q0 11 6 17.5t12 7.5h7h750l13 -4q11 -7 12 -21v-50q0 -11 -6 -17.5t-12 -7.5h-7h-750l-13 4q-11 7 -12 21v50z" />
    <glyph glyph-name="degree" unicode="&#xb0;" 
d="M350 1100q110 0 187 -72q62 -59 63 -128q0 -77 -73 -138q-76 -62 -177 -62q-110 0 -187 72q-62 59 -63 128q0 77 73 138q76 62 177 62zM350 1000q-33 0 -46 -30q-4 -10 -4 -20v-100q0 -33 30 -46q10 -4 20 -4q33 0 46 30q4 10 4 20v100q0 33 -30 46q-10 4 -20 4z" />
    <glyph glyph-name="plusminus" unicode="&#xb1;" 
d="M325 800h150q11 0 17.5 -6t7.5 -12v-7v-150l4 -13q7 -11 21 -12h150l13 -4q11 -7 12 -21v-50q0 -11 -6 -17.5t-12 -7.5h-7h-150q-11 0 -17.5 -6t-7.5 -12v-7v-150l-4 -13q-7 -11 -21 -12h-150q-11 0 -17.5 6t-7.5 12v7v150l-4 13q-7 11 -21 12h-150l-13 4q-11 7 -12 21
v50q0 11 6 17.5t12 7.5h7h150q11 0 17.5 6t7.5 12v7v150l4 13q7 11 21 12zM25 100h750l13 -4q11 -7 12 -21v-50q0 -11 -6 -17.5t-12 -7.5h-7h-750l-13 4q-11 7 -12 21v50q0 11 6 17.5t12 7.5h7z" />
    <glyph glyph-name="uni00B2" unicode="&#xb2;" 
d="M283 1100q47 0 125 -41q87 -46 92 -89q0 -34 -71 -94q-24 -21 -29 -26l-125 -125q-69 -69 -74 -91q-1 -5 -1 -9q0 -11 6 -17.5t12 -7.5h7h150q11 0 17.5 6t7.5 12v7v50l4 13q7 11 21 12h50q11 0 17.5 -6t7.5 -12v-7v-150q0 -11 -6 -17.5t-12 -7.5h-7h-450l-13 4
q-11 7 -12 21v40q0 59 35 108q27 38 111 123l143 143q23 25 1 52q-10 9 -32 9q-18 0 -57 -48q-24 -28 -33 -38q-8 -10 -15 -12t-28 -2h-75q-29 1 -39 11q-27 27 20 74l5 5q63 59 149 94q36 15 82 16h16z" />
    <glyph glyph-name="uni00B3" unicode="&#xb3;" 
d="M25 1100h134q143 0 191 -14q24 -7 54 -23q49 -24 80 -68q10 -14 13 -25q10 -40 -41 -80q-24 -18 -53 -29l-32 -12l29 -13q99 -45 100 -138q-1 -88 -90 -147q-55 -37 -104 -45q-41 -6 -147 -6h-134l-13 4q-11 7 -12 21v50q0 11 6 17.5t12 7.5h7h250q19 0 24 19q1 3 1 6
v150q0 19 -19 24q-3 1 -6 1h-150l-13 4q-11 7 -12 21v50q0 11 6 17.5t12 7.5h7h150q19 0 24 19q1 3 1 6v50q0 19 -19 24q-3 1 -6 1h-250l-13 4q-11 7 -12 21v50q0 11 6 17.5t12 7.5h7z" />
    <glyph glyph-name="acute" unicode="&#xb4;" 
d="M475 1100h100l13 -4q11 -7 12 -21q0 -21 -42 -66q-14 -15 -33 -34l-125 -125q-38 -38 -52 -45q-12 -5 -23 -5h-100l-13 4q-11 7 -12 21q0 22 42 67l8 8l150 150q38 37 52 44q12 6 23 6z" />
    <glyph glyph-name="mu" unicode="&#xb5;" 
d="M125 800h150l13 -4q11 -7 12 -21v-450l4 -13q7 -11 21 -12h100q57 0 72 35q3 8 3 15v425q0 11 6 17.5t12 7.5h7h150l13 -4q11 -7 12 -21v-326q0 -59 -25 -113q-40 -79 -128 -116q-39 -16 -74 -18q-12 -1 -23 -2h-125q-11 0 -17.5 -6t-7.5 -12v-7v-50q0 -43 -14 -67
l-9 -16q-30 -55 -94 -99q-20 -14 -36 -21q-48 -22 -97 -22q-30 1 -39 10q-22 22 5 54q4 4 7 8q30 33 48 59q24 46 28 78q1 12 1 24v642q0 11 6 17.5t12 7.5h7z" />
    <glyph glyph-name="paragraph" unicode="&#xb6;" 
d="M275 1000h500l13 -4q11 -7 12 -21v-950q0 -11 -6 -17.5t-12 -7.5h-7h-150l-13 4q-11 7 -12 21v850q0 11 -6 17.5t-12 7.5h-7h-50l-13 -4q-11 -7 -12 -21v-850q0 -11 -6 -17.5t-12 -7.5h-7h-150l-13 4q-11 7 -12 21v450l-4 13q-7 11 -21 12q-76 0 -117 18q-3 1 -5 2
q-89 37 -128 115q-25 52 -25 115q0 60 25 114q40 80 128 116q39 16 74 18q22 2 48 2zM275 900q-57 0 -72 -35q-3 -8 -3 -15v-200q0 -31 37 -45q17 -5 38 -5q11 0 17.5 6t7.5 12v7v250q0 11 -6 17.5t-12 7.5h-7zM0 750z" />
    <glyph glyph-name="periodcentered" unicode="&#xb7;" 
d="M325 400h150l13 -4q11 -7 12 -21v-50q0 -11 -6 -17.5t-12 -7.5h-7h-150l-13 4q-11 7 -12 21v50q0 11 6 17.5t12 7.5h7z" />
    <glyph glyph-name="cedilla" unicode="&#xb8;" 
d="M357 100q68 -1 119 -22q5 -2 8 -4q47 -24 81.5 -59t34.5 -65q0 -45 -71 -97q-22 -17 -45 -29q-47 -24 -109 -24h-250l-13 4q-11 7 -12 21v50q0 11 6 17.5t12 7.5h7h250l13 4q11 7 12 21q0 21 -42 66q-13 14 -33 34q-21 21 -24 28q-1 4 -1 7q1 17 10 26q15 14 47 14z" />
    <glyph glyph-name="uni00B9" unicode="&#xb9;" 
d="M314 1100h36h25q11 0 17.5 -6t7.5 -12v-7v-450q0 -11 6 -17.5t12 -7.5h7h50l13 -4q11 -7 12 -21v-50q0 -11 -6 -17.5t-12 -7.5h-7h-350l-13 4q-11 7 -12 21v50q0 11 6 17.5t12 7.5h7h50l13 4q11 7 12 21v250l-4 13q-7 11 -21 12h-50l-13 4q-11 7 -12 21v50l4 13
q7 11 21 12q35 2 65 28q9 7 25 23q37 35 47 40q19 9 52 9z" />
    <glyph glyph-name="ordmasculine" unicode="&#xba;" 
d="M350 1100q110 0 187 -72q62 -59 63 -128q0 -77 -73 -138q-76 -62 -177 -62q-110 0 -187 72q-62 59 -63 128q0 77 73 138q76 62 177 62zM350 1000q-33 0 -46 -30q-4 -10 -4 -20v-100q0 -33 30 -46q10 -4 20 -4q33 0 46 30q4 10 4 20v100q0 33 -30 46q-10 4 -20 4zM125 600
h450l13 -4q11 -7 12 -21v-50q0 -11 -6 -17.5t-12 -7.5h-7h-450l-13 4q-11 7 -12 21v50q0 11 6 17.5t12 7.5h7z" />
    <glyph glyph-name="guillemotright" unicode="&#xbb;" 
d="M425 700q24 0 44 -19l6 -6l225 -225l-225 -225q-22 -22 -39 -24q-5 -1 -11 -1h-100l-13 4q-11 7 -12 21q0 21 42 65q13 15 33 35v0l125 125l-125 125v0q-69 70 -74 91q-1 5 -1 9q0 11 6 17.5t12 7.5h7h100zM125 700q24 0 44 -19l6 -6l225 -225l-225 -225q-22 -22 -39 -24
q-5 -1 -11 -1h-100l-13 4q-11 7 -12 21q0 21 42 65q13 15 33 35v0l125 125l-125 125v0q-69 70 -74 91q-1 5 -1 9q0 11 6 17.5t12 7.5h7h100z" />
    <glyph glyph-name="onequarter" unicode="&#xbc;" 
d="M25 1100h150l13 -4q11 -7 12 -21v-450q0 -11 -6 -17.5t-12 -7.5h-7h-150l-13 4q-11 7 -12 21v450q0 11 6 17.5t12 7.5h7zM675 900q20 0 23 -13q2 -9 2 -37q0 -44 -17 -81l-8 -16q-18 -37 -77 -99q-52 -55 -248 -252q-253 -255 -301 -294q-11 -7 -25 -8q-20 0 -23 13
q-2 9 -2 37q0 44 17 81l8 16q18 37 76 99q52 55 249 252q253 255 301 294q11 7 25 8zM635 400h40q11 0 17.5 -6t7.5 -12v-7v-550q0 -11 -6 -17.5t-12 -7.5h-7h-150l-13 4q-11 7 -12 21v150q0 11 -6 17.5t-12 7.5h-7v0h-250l-13 4q-11 7 -12 21q0 21 42 66q13 14 33 34l50 50
l79 79q105 104 147 127q36 19 84 19zM475 200q-23 0 -55 -36q-19 -24 -20 -39q0 -11 6.5 -17.5t12.5 -7.5h6h50l13 4q11 7 12 21v50q0 11 -6 17.5t-12 7.5h-7z" />
    <glyph glyph-name="onehalf" unicode="&#xbd;" 
d="M25 1100h150l13 -4q11 -7 12 -21v-450q0 -11 -6 -17.5t-12 -7.5h-7h-150l-13 4q-11 7 -12 21v450q0 11 6 17.5t12 7.5h7zM675 900q20 0 23 -13q2 -9 2 -37q0 -44 -17 -81l-8 -16q-18 -37 -77 -99q-52 -55 -248 -252q-253 -255 -301 -294q-11 -7 -25 -8q-20 0 -23 13
q-2 9 -2 37q0 44 17 81l8 16q18 37 76 99q52 55 249 252q253 255 301 294q11 7 25 8zM583 300q47 0 125 -41q87 -46 92 -89q0 -34 -71 -94q-24 -21 -29 -26l-25 -25q-69 -69 -74 -91q-1 -5 -1 -9q0 -11 6 -17.5t12 -7.5h7h156l13 -4q12 -7 12 -21v-50q0 -11 -6 -17.5
t-13 -6.5l-6 -1h-356h-3h-97l-13 4q-11 7 -12 21q0 22 42 66q14 15 33 34l214 214q23 25 1 52q-10 9 -32 9q-18 0 -57 -48q-24 -28 -33 -38q-8 -10 -15 -12t-28 -2h-75q-29 1 -39 11q-27 27 20 74l5 5q63 59 149 94q36 15 82 16h16z" />
    <glyph glyph-name="threequarters" unicode="&#xbe;" 
d="M25 1100h34q143 0 191 -14q24 -7 54 -23q49 -24 80 -68q10 -14 13 -25q10 -39 -37 -78q-25 -20 -57 -31l-32 -11l32 -11q66 -22 89 -69q10 -22 5 -40q-7 -31 -58 -71q-18 -14 -35 -22q-57 -29 -120 -34q-39 -3 -125 -3h-34l-13 4q-11 7 -12 21v50q0 11 6 17.5t12 7.5h7
h150q19 0 24 19q1 3 1 6v50q0 19 -19 24q-3 1 -6 1h-50l-13 4q-11 7 -12 21v50q0 11 6 17.5t12 7.5h7h50q19 0 24 19q1 3 1 6v50q0 19 -19 24q-3 1 -6 1h-150l-13 4q-11 7 -12 21v50q0 11 6 17.5t12 7.5h7zM675 900q20 0 23 -13q2 -9 2 -37q0 -44 -17 -81l-8 -16
q-18 -37 -77 -99q-52 -55 -248 -252q-253 -255 -301 -294q-11 -7 -25 -8q-20 0 -23 13q-2 9 -2 37q0 44 17 81l8 16q18 37 76 99q52 55 249 252q253 255 301 294q11 7 25 8zM635 400h40q11 0 17.5 -6t7.5 -12v-7v-550q0 -11 -6 -17.5t-12 -7.5h-7h-150l-13 4q-11 7 -12 21
v150q0 11 -6 17.5t-12 7.5h-7v0h-250l-13 4q-11 7 -12 21q0 21 42 66q13 14 33 34l50 50l79 79q105 104 147 127q36 19 84 19zM475 200q-23 0 -55 -36q-19 -24 -20 -39q0 -11 6.5 -17.5t12.5 -7.5h6h50l13 4q11 7 12 21v50q0 11 -6 17.5t-12 7.5h-7z" />
    <glyph glyph-name="questiondown" unicode="&#xbf;" 
d="M225 1000h150l13 -4q11 -7 12 -21v-150q0 -11 -6 -17.5t-12 -7.5h-7h-150l-13 4q-11 7 -12 21v150q0 11 6 17.5t12 7.5h7zM225 700h150l13 -4q11 -7 12 -21v-29q-8 -79 -99 -181q-70 -80 -86 -123q-15 -41 -15 -124q0 -45 1 -63q2 -25 15 -39q17 -15 34 -16h175
q57 0 72 35q3 8 3 15v125q0 11 6 17.5t12 7.5h7h150l13 -4q11 -7 12 -21q0 -73 -20 -126q-3 -7 -5 -13q-40 -80 -128 -116q-39 -16 -74 -18q-22 -2 -48 -2h-181q-40 0 -65 9q-56 21 -101 63l-4 4q-62 60 -72 147q-2 14 -2 27v4q-1 64 27 107q23 35 94 107q59 58 71 101
q7 26 8 69v37q0 11 6 17.5t12 7.5h7z" />
    <glyph glyph-name="Agrave" unicode="&#xc0;" 
d="M425 1200h100q26 0 63 -38l4 -4l8 -8l50 -50q49 -53 50 -75q0 -11 -6 -17.5t-12 -7.5h-7h-100q-26 0 -63 37q-1 2 -4 5l-8 8l-25 25q-69 69 -74 91q-1 5 -1 9q0 11 6 17t13 7zM350 1000q1 -2 150 -150q136 -136 172 -190q28 -43 28 -85v-550q0 -11 -6 -17.5t-12 -7.5h-7
h-150l-13 4q-11 7 -12 21v325v25q0 11 -6 17.5t-12 7.5h-7h-250l-13 -4q-11 -7 -12 -21v-25v-325q0 -11 -6 -17.5t-12 -7.5h-7h-150l-13 4q-11 7 -12 21v550q1 38 27 85q22 39 153 170l20 20l46.5 46.5l41.5 41.5t31.5 32t22.5 22zM350 800l-50 -50q-77 -77 -93 -126
q-7 -24 -7 -49v-55q2 -9 8 -14t11 -5l6 -1h250l13 4q11 7 12 21v50q-4 67 -61 134q-17 19 -39 41z" />
    <glyph glyph-name="Aacute" unicode="&#xc1;" 
d="M175 1200h100l13 -4q11 -7 12 -21q0 -21 -42 -66q-14 -15 -33 -34l-25 -25q-38 -38 -52 -45q-12 -5 -23 -5h-100l-13 4q-11 7 -12 21q0 22 42 67l8 8l50 50q38 37 52 44q12 6 23 6zM350 1000q1 -2 150 -150q136 -136 172 -190q28 -43 28 -85v-550q0 -11 -6 -17.5
t-12 -7.5h-7h-150l-13 4q-11 7 -12 21v325v25q0 11 -6 17.5t-12 7.5h-7h-250l-13 -4q-11 -7 -12 -21v-25v-325q0 -11 -6 -17.5t-12 -7.5h-7h-150l-13 4q-11 7 -12 21v550q1 38 27 85q22 39 153 170l20 20l46.5 46.5l41.5 41.5t31.5 32t22.5 22zM350 800l-50 -50
q-77 -77 -93 -126q-7 -24 -7 -49v-55q2 -9 8 -14t11 -5l6 -1h250l13 4q11 7 12 21v50q-4 67 -61 134q-17 19 -39 41z" />
    <glyph glyph-name="Acircumflex" unicode="&#xc2;" 
d="M350 1200q119 0 155 -13q83 -29 149 -90q45 -43 46 -72q0 -11 -6 -17.5t-12 -7.5h-7h-50q-55 0 -73 11q-7 4 -24 18q-17 13 -28 21q-56 40 -81 47q-14 3 -29 3h-80q-39 0 -84 -31q-9 -6 -26 -19q-11 -9 -28 -21q-29 -24 -48 -27q-14 -2 -49 -2h-50l-13 4q-11 7 -12 21
q0 42 82 101q57 41 113 61q38 13 155 13zM350 1000q1 -2 150 -150q136 -136 172 -190q28 -43 28 -85v-550q0 -11 -6 -17.5t-12 -7.5h-7h-150l-13 4q-11 7 -12 21v325v25q0 11 -6 17.5t-12 7.5h-7h-250l-13 -4q-11 -7 -12 -21v-25v-325q0 -11 -6 -17.5t-12 -7.5h-7h-150
l-13 4q-11 7 -12 21v550q1 38 27 85q22 39 153 170l20 20l46.5 46.5l41.5 41.5t31.5 32t22.5 22zM350 800l-50 -50q-77 -77 -93 -126q-7 -24 -7 -49v-55q2 -9 8 -14t11 -5l6 -1h250l13 4q11 7 12 21v50q-4 67 -61 134q-17 19 -39 41z" />
    <glyph glyph-name="Atilde" unicode="&#xc3;" 
d="M283 1200q38 0 55 -6q32 -13 77 -72q17 -22 29 -22q18 0 55 47q25 32 34 41q15 12 42 12h75q49 -2 50 -38q0 -30 -75 -84q-54 -38 -109 -61q-39 -16 -88 -17h-10q-36 0 -56 7q-37 15 -68 60q-5 6 -8 12q-13 20 -28 21q-18 0 -57 -48q-24 -28 -33 -38q-8 -10 -15 -12
t-28 -2h-75q-29 1 -39 11q-27 27 20 74l5 5q63 59 149 94q36 15 82 16h16zM350 900q1 -2 150 -150q136 -136 172 -190q28 -43 28 -85v-450q0 -11 -6 -17.5t-12 -7.5h-7h-150l-13 4q-11 7 -12 21v250q0 11 -6 17.5t-12 7.5h-7h-250l-13 -4q-11 -7 -12 -21v-250
q0 -11 -6 -17.5t-12 -7.5h-7h-150l-13 4q-11 7 -12 21v450q1 38 27 85q22 39 153 170l20 20l46.5 46.5l41.5 41.5t31.5 32t22.5 22zM350 700l-50 -50q-75 -77 -92 -124q-8 -25 -8 -51v-55q2 -9 8 -14t11 -5l6 -1h250l13 4q11 7 12 21v50q-4 67 -61 134q-17 19 -39 41z" />
    <glyph glyph-name="Adieresis" unicode="&#xc4;" 
d="M350 900q1 -2 150 -150q136 -136 172 -190q28 -43 28 -85v-450q0 -11 -6 -17.5t-12 -7.5h-7h-150l-13 4q-11 7 -12 21v250q0 11 -6 17.5t-12 7.5h-7h-250l-13 -4q-11 -7 -12 -21v-250q0 -11 -6 -17.5t-12 -7.5h-7h-150l-13 4q-11 7 -12 21v450q1 38 27 85q22 39 153 170
l20 20l46.5 46.5l41.5 41.5t31.5 32t22.5 22zM350 700l-50 -50q-75 -77 -92 -124q-8 -25 -8 -51v-55q2 -9 8 -14t11 -5l6 -1h250l13 4q11 7 12 21v50q-4 67 -61 134q-17 19 -39 41zM25 1100h150l13 -4q11 -7 12 -21v-50q0 -11 -6 -17.5t-12 -7.5h-7h-150l-13 4q-11 7 -12 21
v50q0 11 6 17.5t12 7.5h7zM525 1100h150l13 -4q11 -7 12 -21v-50q0 -11 -6 -17.5t-12 -7.5h-7h-150l-13 4q-11 7 -12 21v50q0 11 6 17.5t12 7.5h7z" />
    <glyph glyph-name="Aring" unicode="&#xc5;" 
d="M350 1200q105 0 186 -56q63 -45 64 -94q0 -55 -76 -102q-79 -48 -174 -48q-105 0 -186 56q-63 45 -64 94q0 55 76 102q79 48 174 48zM350 1100q-33 0 -46 -30q-4 -10 -4 -20q0 -33 30 -46q10 -4 20 -4q33 0 46 30q4 10 4 20q0 33 -30 46q-10 4 -20 4zM350 800
q102 0 213 -96q95 -83 127 -174q10 -30 10 -55v-450q0 -11 -6 -17.5t-12 -7.5h-7h-150l-13 4q-11 7 -12 21v250q0 11 -6 17.5t-12 7.5h-7h-250l-13 -4q-11 -7 -12 -21v-250q0 -11 -6 -17.5t-12 -7.5h-7h-150l-13 4q-11 7 -12 21v450q0 79 85 177q88 101 192 135q39 13 73 13
zM350 700l-50 -50q-75 -77 -92 -124q-8 -25 -8 -51v-55q2 -9 8 -14t11 -5l6 -1h250l13 4q11 7 12 21v50q-4 67 -61 134q-17 19 -39 41z" />
    <glyph glyph-name="AE" unicode="&#xc6;" 
d="M400 1000h275l13 -4q11 -7 12 -21v-50q0 -11 -6 -17.5t-12 -7.5h-7h-50l-13 -4q-11 -7 -12 -21v-250l4 -13q7 -11 21 -12h50l13 -4q11 -7 12 -21v-50q0 -11 -6 -17.5t-12 -7.5h-7h-50q-11 0 -17.5 -6t-7.5 -12v-7v-350q0 -11 6 -17.5t12 -7.5h7h50l13 -4q11 -7 12 -21
v-50q0 -11 -6 -17.5t-12 -7.5h-7h-250l-13 4q-11 7 -12 21v450l-4 13q-7 11 -21 12h-150q-11 0 -17.5 -6t-7.5 -12v-7v-450q0 -11 -6 -17.5t-12 -7.5h-7h-150l-13 4q-11 7 -12 21v573q0 95 17 137q5 14 12 25q92 165 224 215q67 25 147 25zM375 900q-66 -1 -148 -143
q-20 -35 -24 -76q-2 -22 -3 -58q5 -22 25 -23h150q11 0 17.5 6t7.5 12v7v250l-4 13q-7 11 -21 12z" />
    <glyph glyph-name="Ccedilla" unicode="&#xc7;" 
d="M400 1000q83 0 117 -10q15 -4 31 -11q56 -22 106 -86q16 -19 24 -36q17 -34 20 -84q2 -31 2 -48q0 -11 -6.5 -17t-12.5 -7l-6 -1h-21q-21 0 -32 13q-8 10 -25 34q-52 76 -108 122q-13 10 -21 14q-34 17 -68 17q-65 0 -130 -76q-25 -30 -44 -64q-26 -61 -26 -134v-152
q0 -75 26 -134q50 -92 122 -127q28 -13 52 -13q34 0 68 17q37 19 100 97q16 20 29 39q27 40 38 44q7 3 19 3h21l13 -4q11 -7 12 -21q0 -15 -2 -48q-3 -51 -20 -84q-26 -52 -85 -96q-22 -16 -40 -24q-1 -1 -5 -3q-11 -10 -7 -14q7 -6 31 -20q21 -12 28 -17q100 -71 100 -119
q0 -45 -71 -97q-22 -17 -45 -29q-47 -24 -109 -24h-350l-13 4q-11 7 -12 21v50q0 11 6 17.5t12 7.5h7h350l13 4q11 7 12 21q0 21 -42 66q-13 14 -33 34q-47 46 -160 96q-139 47 -233 213q-2 3 -3 6q-28 48 -29 141v21v96q0 95 17 137q5 14 12 25q92 165 224 215
q67 25 147 25z" />
    <glyph glyph-name="Egrave" unicode="&#xc8;" 
d="M225 1200h100q26 0 63 -38l4 -4l8 -8l50 -50q49 -53 50 -75q0 -11 -6 -17.5t-12 -7.5h-7h-100q-26 0 -63 37q-1 2 -4 5l-8 8l-25 25q-69 69 -74 91q-1 5 -1 9q0 11 6 17t13 7zM25 900h650l13 -4q11 -7 12 -21v-250q0 -11 -9 -17.5t-18 -6.5l-9 -1q-30 1 -67 52
q-5 7 -14 21q-13 18 -19 27q-44 61 -110 88q-29 12 -54 12h-75l-13 -4q-11 -7 -12 -21v-250q0 -11 6 -17.5t12 -7.5h7h50q11 0 17.5 6t7.5 12v7v50l4 13q7 11 21 12h50q11 0 17.5 -6t7.5 -12v-7v-250l-4 -13q-7 -11 -21 -12h-50q-11 0 -17.5 6t-7.5 12v7v50l-4 13
q-7 11 -21 12h-50l-13 -4q-11 -7 -12 -21v-250q0 -11 6 -17.5t12 -7.5h7h75q63 0 130 62q20 19 34 38q7 9 19 27q38 55 59 67q11 5 22 6l20 -4q15 -7 16 -21v-250q0 -11 -6 -17.5t-12 -7.5h-7h-650l-13 4q-11 7 -12 21v50q0 11 6 17.5t12 7.5h7h50l13 4q11 7 12 21v650
q0 11 -6 17.5t-12 7.5h-7h-50l-13 4q-11 7 -12 21v50q0 11 6 17.5t12 7.5h7z" />
    <glyph glyph-name="Eacute" unicode="&#xc9;" 
d="M375 1200h100l13 -4q11 -7 12 -21q0 -21 -42 -66q-14 -15 -33 -34l-125 -125q-38 -38 -52 -45q-12 -5 -23 -5h-100l-13 4q-11 7 -12 21q0 22 42 67l8 8l150 150q38 37 52 44q12 6 23 6zM25 800h375h275l13 -4q11 -7 12 -21v-150q0 -11 -6 -17.5t-12 -7.5h-7h-75
q-50 0 -65 10q-14 10 -36 41q-28 39 -50 45q-15 4 -49 4h-75l-13 -4q-11 -7 -12 -21v-150q0 -11 6 -17.5t12 -7.5h7h250l13 -4q11 -7 12 -21v-50q0 -11 -6 -17.5t-12 -7.5h-7h-250l-13 -4q-11 -7 -12 -21v-250q0 -11 6 -17.5t12 -7.5h7h75q49 0 66 12q14 11 33 37
q28 40 47 47q14 4 54 4h75l13 -4q11 -7 12 -21v-150q0 -11 -6 -17.5t-12 -7.5h-7h-275h-375l-13 4q-11 7 -12 21v50q0 11 6 17.5t12 7.5h7h50l13 4q11 7 12 21v550q0 11 -6 17.5t-12 7.5h-7h-50l-13 4q-11 7 -12 21v50q0 11 6 17.5t12 7.5h7z" />
    <glyph glyph-name="Ecircumflex" unicode="&#xca;" 
d="M350 1200q76 0 156 -62q5 -5 58 -48q52 -49 27 -77l-2 -2q-13 -11 -39 -11h-75q-29 0 -38 8q-3 3 -5 6q-12 13 -34 39q-39 47 -48 47t-50 -49q-21 -25 -32 -37q-8 -10 -15 -12t-28 -2h-75q-29 1 -39 11q-27 27 20 74l5 5q75 62 99 76q57 34 115 34zM25 900h650l13 -4
q11 -7 12 -21v-250q0 -11 -9 -17.5t-18 -6.5l-9 -1q-30 1 -67 52q-5 7 -14 21q-13 18 -19 27q-44 61 -110 88q-29 12 -54 12h-75l-13 -4q-11 -7 -12 -21v-250q0 -11 6 -17.5t12 -7.5h7h50q11 0 17.5 6t7.5 12v7v50l4 13q7 11 21 12h50q11 0 17.5 -6t7.5 -12v-7v-250l-4 -13
q-7 -11 -21 -12h-50q-11 0 -17.5 6t-7.5 12v7v50l-4 13q-7 11 -21 12h-50l-13 -4q-11 -7 -12 -21v-250q0 -11 6 -17.5t12 -7.5h7h75q63 0 130 62q20 19 34 38q7 9 19 27q38 55 59 67q11 5 22 6l20 -4q15 -7 16 -21v-250q0 -11 -6 -17.5t-12 -7.5h-7h-650l-13 4q-11 7 -12 21
v50q0 11 6 17.5t12 7.5h7h50l13 4q11 7 12 21v650q0 11 -6 17.5t-12 7.5h-7h-50l-13 4q-11 7 -12 21v50q0 11 6 17.5t12 7.5h7z" />
    <glyph glyph-name="Edieresis" unicode="&#xcb;" 
d="M25 1100h150l13 -4q11 -7 12 -21v-50q0 -11 -6 -17.5t-12 -7.5h-7h-150l-13 4q-11 7 -12 21v50q0 11 6 17.5t12 7.5h7zM525 1100h150l13 -4q11 -7 12 -21v-50q0 -11 -6 -17.5t-12 -7.5h-7h-150l-13 4q-11 7 -12 21v50q0 11 6 17.5t12 7.5h7zM25 900h650l13 -4
q11 -7 12 -21v-250q0 -11 -9 -17.5t-18 -6.5l-9 -1q-30 1 -67 52q-5 7 -14 21q-13 18 -19 27q-44 61 -110 88q-29 12 -54 12h-75l-13 -4q-11 -7 -12 -21v-250q0 -11 6 -17.5t12 -7.5h7h50q11 0 17.5 6t7.5 12v7v50l4 13q7 11 21 12h50q11 0 17.5 -6t7.5 -12v-7v-250l-4 -13
q-7 -11 -21 -12h-50q-11 0 -17.5 6t-7.5 12v7v50l-4 13q-7 11 -21 12h-50l-13 -4q-11 -7 -12 -21v-250q0 -11 6 -17.5t12 -7.5h7h75q63 0 130 62q20 19 34 38q7 9 19 27q38 55 59 67q11 5 22 6l20 -4q15 -7 16 -21v-250q0 -11 -6 -17.5t-12 -7.5h-7h-650l-13 4q-11 7 -12 21
v50q0 11 6 17.5t12 7.5h7h50l13 4q11 7 12 21v650q0 11 -6 17.5t-12 7.5h-7h-50l-13 4q-11 7 -12 21v50q0 11 6 17.5t12 7.5h7z" />
    <glyph glyph-name="Igrave" unicode="&#xcc;" 
d="M225 1200h100q26 0 63 -38l4 -4l8 -8l50 -50q49 -53 50 -75q0 -11 -6 -17.5t-12 -7.5h-7h-100q-26 0 -63 37q-1 2 -4 5l-8 8l-25 25q-69 69 -74 91q-1 5 -1 9q0 11 6 17t13 7zM225 900h350l13 -4q11 -7 12 -21v-50q0 -11 -6 -17.5t-12 -7.5h-7h-50l-13 -4q-11 -7 -12 -21
v-650q0 -11 6 -17.5t12 -7.5h7h50l13 -4q11 -7 12 -21v-50q0 -11 -6 -17.5t-12 -7.5h-7h-350l-13 4q-11 7 -12 21v50q0 11 6 17.5t12 7.5h7h50l13 4q11 7 12 21v650q0 11 -6 17.5t-12 7.5h-7h-50l-13 4q-11 7 -12 21v50q0 11 6 17.5t12 7.5h7z" />
    <glyph glyph-name="Iacute" unicode="&#xcd;" 
d="M475 1200h100l13 -4q11 -7 12 -21q0 -21 -42 -66q-14 -15 -33 -34l-25 -25q-38 -38 -52 -45q-12 -5 -23 -5h-100l-13 4q-11 7 -12 21q0 22 42 67l8 8l50 50q38 37 52 44q12 6 23 6zM225 900h350l13 -4q11 -7 12 -21v-50q0 -11 -6 -17.5t-12 -7.5h-7h-50l-13 -4
q-11 -7 -12 -21v-650q0 -11 6 -17.5t12 -7.5h7h50l13 -4q11 -7 12 -21v-50q0 -11 -6 -17.5t-12 -7.5h-7h-350l-13 4q-11 7 -12 21v50q0 11 6 17.5t12 7.5h7h50l13 4q11 7 12 21v650q0 11 -6 17.5t-12 7.5h-7h-50l-13 4q-11 7 -12 21v50q0 11 6 17.5t12 7.5h7z" />
    <glyph glyph-name="Icircumflex" unicode="&#xce;" 
d="M400 1200q88 0 108 -7q2 -1 8 -3l9 -3q80 -28 138 -92q36 -41 37 -70q0 -11 -6 -17.5t-12 -7.5h-7h-50q-59 0 -72 5q-16 8 -53 45q-39 39 -71 47q-14 3 -29 3q-49 0 -90 -40l-10 -10q-40 -40 -55 -46q-14 -4 -70 -4h-50l-13 4q-11 7 -12 21q0 43 69 100q51 43 106 62
q31 11 54 12q19 1 71 1zM225 900h350l13 -4q11 -7 12 -21v-50q0 -11 -6 -17.5t-12 -7.5h-7h-50l-13 -4q-11 -7 -12 -21v-650q0 -11 6 -17.5t12 -7.5h7h50l13 -4q11 -7 12 -21v-50q0 -11 -6 -17.5t-12 -7.5h-7h-350l-13 4q-11 7 -12 21v50q0 11 6 17.5t12 7.5h7h50l13 4
q11 7 12 21v650q0 11 -6 17.5t-12 7.5h-7h-50l-13 4q-11 7 -12 21v50q0 11 6 17.5t12 7.5h7z" />
    <glyph glyph-name="Idieresis" unicode="&#xcf;" 
d="M125 1100h150l13 -4q11 -7 12 -21v-50q0 -11 -6 -17.5t-12 -7.5h-7h-150l-13 4q-11 7 -12 21v50q0 11 6 17.5t12 7.5h7zM525 1100h150l13 -4q11 -7 12 -21v-50q0 -11 -6 -17.5t-12 -7.5h-7h-150l-13 4q-11 7 -12 21v50q0 11 6 17.5t12 7.5h7zM225 900h350l13 -4
q11 -7 12 -21v-50q0 -11 -6 -17.5t-12 -7.5h-7h-50l-13 -4q-11 -7 -12 -21v-650q0 -11 6 -17.5t12 -7.5h7h50l13 -4q11 -7 12 -21v-50q0 -11 -6 -17.5t-12 -7.5h-7h-350l-13 4q-11 7 -12 21v50q0 11 6 17.5t12 7.5h7h50l13 4q11 7 12 21v650q0 11 -6 17.5t-12 7.5h-7h-50
l-13 4q-11 7 -12 21v50q0 11 6 17.5t12 7.5h7z" />
    <glyph glyph-name="Eth" unicode="&#xd0;" 
d="M25 1000h275q211 0 336 -183q18 -26 35 -57q28 -48 29 -141v-21v-196q0 -95 -17 -137q-5 -14 -12 -25q-92 -165 -224 -215q-67 -25 -147 -25h-275l-13 4q-11 7 -12 21v50q0 11 6 17.5t12 7.5h7h50l13 4q11 7 12 21v750q0 11 -6 17.5t-12 7.5h-7h-50l-13 4q-11 7 -12 21
v50q0 11 6 17.5t12 7.5h7zM325 900q-11 0 -17.5 -6t-7.5 -12v-7v-750l4 -13q7 -11 21 -12q66 1 148 143q20 35 24 75q2 24 3 66v232q-2 91 -16 120q-4 9 -11 21q-82 143 -148 143zM125 700h150q11 0 17.5 -6t7.5 -12v-7v-50l4 -13q7 -11 21 -12h50l13 -4q11 -7 12 -21v-50
q0 -11 -6 -17.5t-12 -7.5h-7h-50q-11 0 -17.5 -6t-7.5 -12v-7v-50l-4 -13q-7 -11 -21 -12h-150q-11 0 -17.5 6t-7.5 12v7v50l-4 13q-7 11 -21 12h-50l-13 4q-11 7 -12 21v50q0 11 6 17.5t12 7.5h7h50q11 0 17.5 6t7.5 12v7v50l4 13q7 11 21 12z" />
    <glyph glyph-name="Ntilde" unicode="&#xd1;" 
d="M283 1200q38 0 55 -6q32 -13 77 -72q17 -22 29 -22q18 0 55 47q25 32 34 41q15 12 42 12h75q49 -2 50 -38q0 -30 -75 -84q-54 -38 -109 -61q-39 -16 -88 -17h-10q-36 0 -56 7q-37 15 -68 60q-5 6 -8 12q-13 20 -28 21q-18 0 -57 -48q-24 -28 -33 -38q-8 -10 -15 -12
t-28 -2h-75q-29 1 -39 11q-27 27 20 74l5 5q63 59 149 94q36 15 82 16h16zM25 900h40q61 0 114 -39q40 -30 121 -111l115 -115q33 -34 57 -35h3q11 0 17.5 6t7.5 12v7v250q0 11 6 17.5t12 7.5h7h150l13 -4q11 -7 12 -21v-850q0 -11 -6 -17.5t-12 -7.5h-7h-150l-13 4
q-11 7 -12 21v140q-3 62 -37 110q-29 40 -109 121q-91 92 -116 101q-7 3 -13 3q-11 0 -17.5 -6t-7.5 -12v-7v-450q0 -11 -6 -17.5t-12 -7.5h-7h-75h-75l-13 4q-11 7 -12 21v850l4 13q7 11 21 12z" />
    <glyph glyph-name="Ograve" unicode="&#xd2;" 
d="M225 1200h100q26 0 63 -38l4 -4l8 -8l50 -50q49 -53 50 -75q0 -11 -6 -17.5t-12 -7.5h-7h-100q-26 0 -63 37q-1 2 -4 5l-8 8l-25 25q-69 69 -74 91q-1 5 -1 9q0 11 6 17t13 7zM275 900h150q75 0 116 -18q4 -1 6 -2q89 -37 128 -116q25 -55 25 -112v-404q0 -58 -25 -112
q-40 -80 -128 -116q-39 -16 -74 -18q-22 -2 -48 -2h-150q-75 0 -116 18q-4 1 -6 2q-89 37 -128 116q-25 55 -25 112v404q0 58 25 112q40 80 128 116q39 16 74 18q21 2 48 2zM275 800q-57 0 -72 -35q-3 -8 -3 -15v-600q0 -31 37 -44q18 -6 38 -6h150q57 0 72 35q3 8 3 15v600
q0 31 -37 44q-17 6 -38 6h-150z" />
    <glyph glyph-name="Oacute" unicode="&#xd3;" 
d="M375 1200h100l13 -4q11 -7 12 -21q0 -21 -42 -66q-14 -15 -33 -34l-25 -25q-38 -38 -52 -45q-12 -5 -23 -5h-100l-13 4q-11 7 -12 21q0 22 42 67l8 8l50 50q38 37 52 44q12 6 23 6zM275 900h150q75 0 116 -18q4 -1 6 -2q89 -37 128 -116q25 -55 25 -112v-404
q0 -58 -25 -112q-40 -80 -128 -116q-39 -16 -74 -18q-22 -2 -48 -2h-150q-75 0 -116 18q-4 1 -6 2q-89 37 -128 116q-25 55 -25 112v404q0 58 25 112q40 80 128 116q39 16 74 18q21 2 48 2zM275 800q-57 0 -72 -35q-3 -8 -3 -15v-600q0 -31 37 -44q18 -6 38 -6h150
q57 0 72 35q3 8 3 15v600q0 31 -37 44q-17 6 -38 6h-150z" />
    <glyph glyph-name="Ocircumflex" unicode="&#xd4;" 
d="M350 1200q76 0 156 -62q5 -5 58 -48q52 -49 27 -77l-2 -2q-13 -11 -39 -11h-75q-29 0 -38 8q-3 3 -5 6q-12 13 -34 39q-39 47 -48 47t-50 -49q-21 -25 -32 -37q-8 -10 -15 -12t-28 -2h-75q-29 1 -39 11q-27 27 20 74l5 5q75 62 99 76q57 34 115 34zM275 900h150
q75 0 116 -18q4 -1 6 -2q89 -37 128 -116q25 -55 25 -112v-404q0 -58 -25 -112q-40 -80 -128 -116q-39 -16 -74 -18q-22 -2 -48 -2h-150q-75 0 -116 18q-4 1 -6 2q-89 37 -128 116q-25 55 -25 112v404q0 58 25 112q40 80 128 116q39 16 74 18q21 2 48 2zM275 800
q-57 0 -72 -35q-3 -8 -3 -15v-600q0 -31 37 -44q18 -6 38 -6h150q57 0 72 35q3 8 3 15v600q0 31 -37 44q-17 6 -38 6h-150z" />
    <glyph glyph-name="Otilde" unicode="&#xd5;" 
d="M283 1200q38 0 55 -6q32 -13 77 -72q17 -22 29 -22q18 0 55 47q25 32 34 41q15 12 42 12h75q49 -2 50 -38q0 -30 -75 -84q-54 -38 -109 -61q-39 -16 -88 -17h-10q-36 0 -56 7q-37 15 -68 60q-5 6 -8 12q-13 20 -28 21q-18 0 -57 -48q-24 -28 -33 -38q-8 -10 -15 -12
t-28 -2h-75q-29 1 -39 11q-27 27 20 74l5 5q63 59 149 94q36 15 82 16h16zM275 900h150q75 0 116 -18q4 -1 6 -2q89 -37 128 -116q25 -55 25 -112v-404q0 -58 -25 -112q-40 -80 -128 -116q-39 -16 -74 -18q-22 -2 -48 -2h-150q-75 0 -116 18q-4 1 -6 2q-89 37 -128 116
q-25 55 -25 112v404q0 58 25 112q40 80 128 116q39 16 74 18q21 2 48 2zM275 800q-57 0 -72 -35q-3 -8 -3 -15v-600q0 -31 37 -44q18 -6 38 -6h150q57 0 72 35q3 8 3 15v600q0 31 -37 44q-17 6 -38 6h-150z" />
    <glyph glyph-name="Odieresis" unicode="&#xd6;" 
d="M25 1100h150l13 -4q11 -7 12 -21v-50q0 -11 -6 -17.5t-12 -7.5h-7h-150l-13 4q-11 7 -12 21v50q0 11 6 17.5t12 7.5h7zM525 1100h150l13 -4q11 -7 12 -21v-50q0 -11 -6 -17.5t-12 -7.5h-7h-150l-13 4q-11 7 -12 21v50q0 11 6 17.5t12 7.5h7zM275 900h150q75 0 116 -18
q4 -1 6 -2q89 -37 128 -116q25 -55 25 -112v-404q0 -58 -25 -112q-40 -80 -128 -116q-39 -16 -74 -18q-22 -2 -48 -2h-150q-75 0 -116 18q-4 1 -6 2q-89 37 -128 116q-25 55 -25 112v404q0 58 25 112q40 80 128 116q39 16 74 18q21 2 48 2zM275 800q-57 0 -72 -35
q-3 -8 -3 -15v-600q0 -31 37 -44q18 -6 38 -6h150q57 0 72 35q3 8 3 15v600q0 31 -37 44q-17 6 -38 6h-150z" />
    <glyph glyph-name="multiply" unicode="&#xd7;" 
d="M25 700h100q36 0 60 -22q6 -5 15 -14l150 -154l150 154q29 28 47 33q12 3 28 3h100l13 -4q11 -7 12 -21q0 -21 -42 -65q-13 -15 -33 -35v0l-71 -75q-14 -16 -21 -25q-33 -47 -33 -75q0 -26 33 -71q1 -3 2 -4q9 -13 31.5 -38t40.5 -43l18 -19v0q69 -69 74 -91q1 -5 1 -9
q0 -11 -6 -17t-13 -7l-6 -1h-100q-36 0 -60 22q-6 5 -15 14l-150 154l-150 -154q-29 -28 -47 -33q-12 -3 -28 -3h-100l-13 4q-11 7 -12 21q0 21 42 66q13 14 33 34v0l71 75q14 16 21 25q33 46 33 75q-1 29 -34 75q-9 13 -32 38t-41 43l-18 19v0q-69 70 -74 91q-1 5 -1 9
q0 11 6 17.5t12 7.5h7z" />
    <glyph glyph-name="Oslash" unicode="&#xd8;" 
d="M575 1100q11 0 17.5 -6t7.5 -12v-7v-100q1 -21 16 -36q38 -32 59 -75q25 -55 25 -112v-504q0 -58 -25 -112q-40 -80 -128 -116q-39 -16 -74 -18q-22 -2 -48 -2h-150q-24 0 -44 -18q-3 -4 -6 -7q-70 -69 -91 -74q-5 -1 -9 -1q-11 0 -17.5 6t-7.5 12v7v100q-1 21 -16 36
q-38 32 -59 75q-25 55 -25 112v504q0 58 25 112q40 80 128 116q39 16 74 18q21 2 48 2h150q24 0 44 18q3 4 6 7q70 69 91 74q5 1 9 1zM275 900q-57 0 -72 -35q-3 -8 -3 -15v-625q16 -51 34 15q2 5 3 11l63 255q0 1 91 369q1 24 -16 25h-100zM486 798q-8 -1 -23 -49l-63 -254
q-63 -256 -91 -370q-1 -24 16 -25h100q57 0 72 35q3 8 3 15v625q-8 22 -14 23z" />
    <glyph glyph-name="Ugrave" unicode="&#xd9;" 
d="M225 1200h100q26 0 63 -38l4 -4l8 -8l50 -50q49 -53 50 -75q0 -11 -6 -17.5t-12 -7.5h-7h-100q-26 0 -63 37q-1 2 -4 5l-8 8l-25 25q-69 69 -74 91q-1 5 -1 9q0 11 6 17t13 7zM25 900h150l13 -4q11 -7 12 -21v-725q0 -31 37 -44q18 -6 38 -6h150q57 0 72 35q3 8 3 15v725
q0 11 6 17.5t12 7.5h7h150l13 -4q11 -7 12 -21v-626q0 -59 -25 -113q-40 -79 -128 -116q-39 -16 -74 -18q-22 -2 -48 -2h-150q-75 0 -116 18q-4 1 -6 2q-89 38 -128 116q-25 55 -25 113v626q0 11 6 17.5t12 7.5h7z" />
    <glyph glyph-name="Uacute" unicode="&#xda;" 
d="M375 1200h100l13 -4q11 -7 12 -21q0 -21 -42 -66q-14 -15 -33 -34l-25 -25q-38 -38 -52 -45q-12 -5 -23 -5h-100l-13 4q-11 7 -12 21q0 22 42 67l8 8l50 50q38 37 52 44q12 6 23 6zM25 900h150l13 -4q11 -7 12 -21v-725q0 -31 37 -44q18 -6 38 -6h150q57 0 72 35
q3 8 3 15v725q0 11 6 17.5t12 7.5h7h150l13 -4q11 -7 12 -21v-626q0 -59 -25 -113q-40 -79 -128 -116q-39 -16 -74 -18q-22 -2 -48 -2h-150q-75 0 -116 18q-4 1 -6 2q-89 38 -128 116q-25 55 -25 113v626q0 11 6 17.5t12 7.5h7z" />
    <glyph glyph-name="Ucircumflex" unicode="&#xdb;" 
d="M350 1200q76 0 156 -62q5 -5 58 -48q52 -49 27 -77l-2 -2q-13 -11 -39 -11h-75q-29 0 -38 8q-3 3 -5 6q-12 13 -34 39q-39 47 -48 47t-50 -49q-21 -25 -32 -37q-8 -10 -15 -12t-28 -2h-75q-29 1 -39 11q-27 27 20 74l5 5q75 62 99 76q57 34 115 34zM25 900h150l13 -4
q11 -7 12 -21v-725q0 -31 37 -44q18 -6 38 -6h150q57 0 72 35q3 8 3 15v725q0 11 6 17.5t12 7.5h7h150l13 -4q11 -7 12 -21v-626q0 -59 -25 -113q-40 -79 -128 -116q-39 -16 -74 -18q-22 -2 -48 -2h-150q-75 0 -116 18q-4 1 -6 2q-89 38 -128 116q-25 55 -25 113v626
q0 11 6 17.5t12 7.5h7z" />
    <glyph glyph-name="Udieresis" unicode="&#xdc;" 
d="M25 1100h150l13 -4q11 -7 12 -21v-50q0 -11 -6 -17.5t-12 -7.5h-7h-150l-13 4q-11 7 -12 21v50q0 11 6 17.5t12 7.5h7zM525 1100h150l13 -4q11 -7 12 -21v-50q0 -11 -6 -17.5t-12 -7.5h-7h-150l-13 4q-11 7 -12 21v50q0 11 6 17.5t12 7.5h7zM25 900h150l13 -4
q11 -7 12 -21v-725q0 -31 37 -44q18 -6 38 -6h150q57 0 72 35q3 8 3 15v725q0 11 6 17.5t12 7.5h7h150l13 -4q11 -7 12 -21v-626q0 -59 -25 -113q-40 -79 -128 -116q-39 -16 -74 -18q-22 -2 -48 -2h-150q-75 0 -116 18q-4 1 -6 2q-89 38 -128 116q-25 55 -25 113v626
q0 11 6 17.5t12 7.5h7z" />
    <glyph glyph-name="Yacute" unicode="&#xdd;" 
d="M475 1200h100l13 -4q11 -7 12 -21q0 -21 -42 -66q-14 -15 -33 -34l-25 -25q-38 -38 -52 -45q-12 -5 -23 -5h-100l-13 4q-11 7 -12 21q0 22 42 67l8 8l50 50q38 37 52 44q12 6 23 6zM25 1000h125h25l13 -4q11 -7 12 -21v-125q0 -39 26 -95q8 -18 17 -30q59 -77 112 -123
q18 -16 45 -37q78 63 121 114q15 19 36 46q30 39 41 107q2 11 2 18v125q0 11 6 17.5t12 7.5h7h25h125l13 -4q11 -7 12 -21v-140q0 -59 -35 -108q-23 -33 -77 -88q-65 -63 -111 -122q-27 -36 -62 -92q-15 -26 -15 -50v-50v-200q0 -11 6 -17.5t12 -7.5h7h50l13 -4
q11 -7 12 -21v-50q0 -11 -6 -17.5t-12 -7.5h-7h-350l-13 4q-11 7 -12 21v50q0 11 6 17.5t12 7.5h7h50l13 4q11 7 12 21v200v50q-1 30 -13 50q-26 43 -64 92q-47 60 -111 122q-84 86 -101 130q-11 29 -11 66v140q0 11 6 17.5t12 7.5h7z" />
    <glyph glyph-name="Thorn" unicode="&#xde;" 
d="M25 1000h350l13 -4q11 -7 12 -21v-50q0 -11 -6 -17.5t-12 -7.5h-7h-50l-13 -4q-11 -7 -12 -21v-50l4 -13q7 -11 21 -12h100q75 0 116 -18q4 -1 6 -2q89 -38 128 -116q25 -55 25 -113v-102q0 -59 -25 -113q-40 -79 -128 -116q-39 -16 -74 -18q-22 -2 -48 -2h-100
q-11 0 -17.5 -6t-7.5 -12v-7v-50q0 -11 6 -17.5t12 -7.5h7h50l13 -4q11 -7 12 -21v-50q0 -11 -6 -17.5t-12 -7.5h-7h-350l-13 4q-11 7 -12 21v50q0 11 6 17.5t12 7.5h7h50l13 4q11 7 12 21v75v100v575q0 11 -6 17.5t-12 7.5h-7h-50l-13 4q-11 7 -12 21v50q0 11 6 17.5
t12 7.5h7zM325 700q-11 0 -17.5 -6t-7.5 -12v-7v-50v-250v-50l4 -13q7 -11 21 -12h100q57 0 72 35q3 8 3 15v300q0 31 -37 44q-17 6 -38 6h-100z" />
    <glyph glyph-name="germandbls" unicode="&#xdf;" 
d="M275 1000h50q75 0 116 -18q4 -1 6 -2q89 -38 128 -116q25 -55 25 -114q0 -57 -11 -80q-2 -3 -17 -30q-25 -43 -48 -67l-24 -23l76 -77q75 -76 98 -116q21 -37 23 -54q3 -17 3 -53q0 -52 -8 -74q-5 -14 -15 -34q-30 -55 -94 -99q-20 -14 -36 -21q-48 -22 -97 -22
q-30 1 -39 10q-22 22 5 54q4 4 7 8q30 33 48 59q24 46 28 78q1 12 1 24v17q0 69 -30 115q-23 35 -91 105l-78 80l29 32q29 32 48 70q20 41 21 75q1 11 1 23v100q0 31 -37 44q-17 6 -38 6h-50q-57 0 -72 -35q-3 -8 -3 -15v-825q0 -11 -6 -17.5t-12 -7.5h-7h-150l-13 4
q-11 7 -12 21v726q0 59 25 113q40 79 128 116q39 16 74 18q22 2 48 2z" />
    <glyph glyph-name="agrave" unicode="&#xe0;" 
d="M125 1100h100q26 0 63 -38l4 -4l8 -8l150 -150q49 -53 50 -75q0 -11 -6 -17.5t-12 -7.5h-7h-100q-26 0 -63 37q-1 2 -4 5l-8 8l-125 125q-69 69 -74 91q-1 5 -1 9q0 11 6 17t13 7zM125 700h200q75 0 116 -18q4 -1 6 -2q89 -38 128 -116q25 -55 25 -113v-326l4 -13
q7 -11 21 -12h50l13 -4q11 -7 12 -21v-50q0 -11 -6 -17.5t-12 -7.5h-7h-28q-70 0 -90 5q-37 12 -57 45q-28 48 -44 50q-15 1 -49 -41q-4 -5 -7 -9q-32 -39 -68 -46q-21 -4 -57 -4q-76 0 -117 18q-3 1 -5 2q-89 37 -128 115q-25 52 -25 115q0 60 25 114q40 80 128 116
q39 16 74 18q22 2 48 2h100q11 0 17.5 6t7.5 12v7v25q0 31 -37 44q-17 6 -38 6h-200l-13 4q-11 7 -12 21v50q0 11 6 17.5t12 7.5h7zM275 400q-57 0 -72 -35q-3 -8 -3 -15v-200q0 -31 37 -45q18 -5 38 -5h75l21 5q28 13 29 45v225l-4 13q-7 11 -21 12h-100zM0 250z" />
    <glyph glyph-name="aacute" unicode="&#xe1;" 
d="M375 1100h100l13 -4q11 -7 12 -21q0 -21 -42 -66q-14 -15 -33 -34l-125 -125q-38 -38 -52 -45q-12 -5 -23 -5h-100l-13 4q-11 7 -12 21q0 22 42 67l8 8l150 150q38 37 52 44q12 6 23 6zM125 700h200q75 0 116 -18q4 -1 6 -2q89 -38 128 -116q25 -55 25 -113v-326l4 -13
q7 -11 21 -12h50l13 -4q11 -7 12 -21v-50q0 -11 -6 -17.5t-12 -7.5h-7h-28q-70 0 -90 5q-37 12 -57 45q-28 48 -44 50q-15 1 -49 -41q-4 -5 -7 -9q-32 -39 -68 -46q-21 -4 -57 -4q-76 0 -117 18q-3 1 -5 2q-89 37 -128 115q-25 52 -25 115q0 60 25 114q40 80 128 116
q39 16 74 18q22 2 48 2h100q11 0 17.5 6t7.5 12v7v25q0 31 -37 44q-17 6 -38 6h-200l-13 4q-11 7 -12 21v50q0 11 6 17.5t12 7.5h7zM275 400q-57 0 -72 -35q-3 -8 -3 -15v-200q0 -31 37 -45q18 -5 38 -5h75l21 5q28 13 29 45v225l-4 13q-7 11 -21 12h-100zM0 250z" />
    <glyph glyph-name="acircumflex" unicode="&#xe2;" 
d="M350 1100l175 -175v0q69 -69 74 -91q1 -5 1 -9q0 -11 -6 -17t-13 -7l-6 -1h-100q-36 0 -60 22q-5 5 -15 14l-50 62l-50 -62q-29 -28 -47 -33q-12 -3 -28 -3h-100l-13 4q-11 7 -12 21q0 21 42 66q14 14 33 34v0zM125 700h200q75 0 116 -18q4 -1 6 -2q89 -38 128 -116
q25 -55 25 -113v-326l4 -13q7 -11 21 -12h50l13 -4q11 -7 12 -21v-50q0 -11 -6 -17.5t-12 -7.5h-7h-28q-70 0 -90 5q-37 12 -57 45q-28 48 -44 50q-15 1 -49 -41q-4 -5 -7 -9q-32 -39 -68 -46q-21 -4 -57 -4q-76 0 -117 18q-3 1 -5 2q-89 37 -128 115q-25 52 -25 115
q0 60 25 114q40 80 128 116q39 16 74 18q22 2 48 2h100q11 0 17.5 6t7.5 12v7v25q0 31 -37 44q-17 6 -38 6h-200l-13 4q-11 7 -12 21v50q0 11 6 17.5t12 7.5h7zM275 400q-57 0 -72 -35q-3 -8 -3 -15v-200q0 -31 37 -45q18 -5 38 -5h75l21 5q28 13 29 45v225l-4 13
q-7 11 -21 12h-100zM0 250z" />
    <glyph glyph-name="atilde" unicode="&#xe3;" 
d="M283 1000q38 0 55 -6q32 -13 77 -72q17 -22 29 -22q18 0 55 47q25 32 34 41q15 12 42 12h75q49 -2 50 -38q0 -30 -75 -84q-54 -38 -109 -61q-39 -16 -88 -17h-10q-36 0 -56 7q-37 15 -68 60q-5 6 -8 12q-13 20 -28 21q-18 0 -57 -48q-24 -28 -33 -38q-8 -10 -15 -12
t-28 -2h-75q-29 1 -39 11q-27 27 20 74l5 5q63 59 149 94q36 15 82 16h16zM125 700h200q75 0 116 -18q4 -1 6 -2q89 -38 128 -116q25 -55 25 -113v-326l4 -13q7 -11 21 -12h50l13 -4q11 -7 12 -21v-50q0 -11 -6 -17.5t-12 -7.5h-7h-28q-70 0 -90 5q-37 12 -57 45
q-28 48 -44 50q-15 1 -49 -41q-4 -5 -7 -9q-32 -39 -68 -46q-21 -4 -57 -4q-76 0 -117 18q-3 1 -5 2q-89 37 -128 115q-25 52 -25 115q0 60 25 114q40 80 128 116q39 16 74 18q22 2 48 2h100q11 0 17.5 6t7.5 12v7v25q0 31 -37 44q-17 6 -38 6h-200l-13 4q-11 7 -12 21v50
q0 11 6 17.5t12 7.5h7zM275 400q-57 0 -72 -35q-3 -8 -3 -15v-200q0 -31 37 -45q18 -5 38 -5h75l21 5q28 13 29 45v225l-4 13q-7 11 -21 12h-100zM0 250z" />
    <glyph glyph-name="adieresis" unicode="&#xe4;" 
d="M125 700h200q75 0 116 -18q4 -1 6 -2q89 -38 128 -116q25 -55 25 -113v-326l4 -13q7 -11 21 -12h50l13 -4q11 -7 12 -21v-50q0 -11 -6 -17.5t-12 -7.5h-7h-28q-70 0 -90 5q-37 12 -57 45q-28 48 -44 50q-15 1 -49 -41q-4 -5 -7 -9q-32 -39 -68 -46q-21 -4 -57 -4
q-76 0 -117 18q-3 1 -5 2q-89 37 -128 115q-25 52 -25 115q0 60 25 114q40 80 128 116q39 16 74 18q22 2 48 2h100q11 0 17.5 6t7.5 12v7v25q0 31 -37 44q-17 6 -38 6h-200l-13 4q-11 7 -12 21v50q0 11 6 17.5t12 7.5h7zM275 400q-57 0 -72 -35q-3 -8 -3 -15v-200
q0 -31 37 -45q18 -5 38 -5h75l21 5q28 13 29 45v225l-4 13q-7 11 -21 12h-100zM0 250zM25 1000h150l13 -4q11 -7 12 -21v-50q0 -11 -6 -17.5t-12 -7.5h-7h-150l-13 4q-11 7 -12 21v50q0 11 6 17.5t12 7.5h7zM425 1000h150l13 -4q11 -7 12 -21v-50q0 -11 -6 -17.5t-12 -7.5
h-7h-150l-13 4q-11 7 -12 21v50q0 11 6 17.5t12 7.5h7z" />
    <glyph glyph-name="aring" unicode="&#xe5;" 
d="M350 1100q105 0 186 -56q63 -45 64 -94q0 -55 -76 -102q-79 -48 -174 -48q-105 0 -186 56q-63 45 -64 94q0 55 76 102q79 48 174 48zM350 1000q-33 0 -46 -30q-4 -10 -4 -20q0 -33 30 -46q10 -4 20 -4q33 0 46 30q4 10 4 20q0 33 -30 46q-10 4 -20 4zM125 700h200
q75 0 116 -18q4 -1 6 -2q89 -38 128 -116q25 -55 25 -113v-326l4 -13q7 -11 21 -12h50l13 -4q11 -7 12 -21v-50q0 -11 -6 -17.5t-12 -7.5h-7h-28q-70 0 -90 5q-37 12 -57 45q-28 48 -44 50q-15 1 -49 -41q-4 -5 -7 -9q-32 -39 -68 -46q-21 -4 -57 -4q-76 0 -117 18
q-3 1 -5 2q-89 37 -128 115q-25 52 -25 115q0 60 25 114q40 80 128 116q39 16 74 18q22 2 48 2h100q11 0 17.5 6t7.5 12v7v25q0 31 -37 44q-17 6 -38 6h-200l-13 4q-11 7 -12 21v50q0 11 6 17.5t12 7.5h7zM275 400q-57 0 -72 -35q-3 -8 -3 -15v-200q0 -31 37 -45
q18 -5 38 -5h75l21 5q28 13 29 45v225l-4 13q-7 11 -21 12h-100zM0 250z" />
    <glyph glyph-name="ae" unicode="&#xe6;" 
d="M154 700q60 0 103 -22q42 -21 84 -72q62 74 165 91q22 3 44 3q110 0 187 -72q62 -59 63 -128q0 -77 -73 -138q-76 -62 -177 -62h-25l-14 -3q-11 -8 -11 -22l7 -24q3 -6 6 -11q61 -96 137 -129q27 -11 50 -11h75l13 -4q11 -7 12 -21v-50q0 -11 -6 -17.5t-12 -7.5h-7h-75
q-147 1 -249 85q-68 -74 -174 -84q-14 -1 -27 -1q-110 0 -187 72q-62 59 -63 128q0 77 73 138q72 58 167 62l25 4q6 2 9 4q25 16 26 31q0 18 -77 83q-22 19 -44 36q-64 49 -72 62q-7 14 -7 30q0 28 9 38q2 1 3 2q10 10 42 10zM550 600q-33 0 -46 -30q-4 -10 -4 -20v-100
q0 -33 30 -46q10 -4 20 -4q33 0 46 30q4 10 4 20v100q0 33 -30 46q-10 4 -20 4zM250 300q-33 0 -46 -30q-4 -10 -4 -20v-100q0 -33 30 -46q10 -4 20 -4q33 0 46 30q4 10 4 20v100q0 33 -30 46q-10 4 -20 4z" />
    <glyph glyph-name="ccedilla" unicode="&#xe7;" 
d="M375 800q94 0 130 -13q83 -29 149 -90q45 -43 46 -72q0 -11 -6 -17.5t-12 -7.5h-7h-50q-55 0 -73 11q-7 4 -24 18q-17 13 -28 21q-57 41 -89 47q-16 3 -36 3q-57 0 -72 -35q-3 -8 -3 -15v-300q0 -31 37 -44q17 -6 38 -6q48 0 88 25q15 9 37 25q11 9 28 21q29 24 48 27
q14 2 49 2h50l13 -4q11 -7 12 -21q0 -42 -82 -101q-34 -25 -70 -43q-14 -10 -7 -18q20 -16 59 -44q99 -72 100 -119q0 -45 -71 -97q-22 -17 -45 -29q-47 -24 -109 -24h-250l-13 4q-11 7 -12 21v50q0 11 6 17.5t12 7.5h7h250l13 4q11 7 12 21q-1 81 -160 156q-19 9 -53 24
q-24 11 -34 15q-89 37 -128 116q-25 54 -25 112v104q0 59 25 112q40 80 128 116q39 16 74 18q22 2 48 2z" />
    <glyph glyph-name="egrave" unicode="&#xe8;" 
d="M125 1100h100q26 0 63 -38l4 -4l8 -8l125 -125q69 -69 74 -91q1 -5 1 -9q0 -11 -6 -17.5t-12 -7.5h-7h-100q-26 0 -63 37q-1 2 -4 5l-8 8l-150 150q-49 53 -50 75q0 11 6 17t13 7zM425 700q75 0 116 -18q4 -1 6 -2q89 -38 128 -116q25 -55 25 -113v-28q-1 -10 -7 -16
t-12 -6l-6 -1h-75h-375q-22 -6 -25 -25v-225q0 -31 37 -44q18 -6 38 -6h75q71 0 104 18q12 7 46 32q11 9 28 21q29 24 48 27q14 2 49 2h50l13 -4q11 -7 12 -21q0 -42 -82 -101q-57 -41 -113 -61q-38 -13 -155 -13h-75q-75 0 -116 18q-4 1 -6 2q-89 37 -128 116
q-25 54 -25 112v203q0 60 25 113q40 79 128 116q39 15 74 18q21 2 48 2h150zM425 600h-150q-57 0 -72 -35q-3 -8 -3 -15v-25q0 -11 6 -17.5t12 -7.5h7h250l13 4q11 7 12 21v25q0 31 -37 44q-17 6 -38 6z" />
    <glyph glyph-name="eacute" unicode="&#xe9;" 
d="M375 1100h100l13 -4q11 -7 12 -21q0 -22 -42 -67l-8 -8l-150 -150q-38 -38 -52 -45q-12 -5 -23 -5h-100l-13 4q-11 7 -12 21q0 21 42 66q14 14 33 34l125 125q38 37 52 44q12 6 23 6zM425 700q75 0 116 -18q4 -1 6 -2q89 -38 128 -116q25 -55 25 -113v-28q-1 -10 -7 -16
t-12 -6l-6 -1h-75h-375q-22 -6 -25 -25v-225q0 -31 37 -44q18 -6 38 -6h75q71 0 104 18q12 7 46 32q11 9 28 21q29 24 48 27q14 2 49 2h50l13 -4q11 -7 12 -21q0 -42 -82 -101q-57 -41 -113 -61q-38 -13 -155 -13h-75q-75 0 -116 18q-4 1 -6 2q-89 37 -128 116
q-25 54 -25 112v203q0 60 25 113q40 79 128 116q39 15 74 18q21 2 48 2h150zM425 600h-150q-57 0 -72 -35q-3 -8 -3 -15v-25q0 -11 6 -17.5t12 -7.5h7h250l13 4q11 7 12 21v25q0 31 -37 44q-17 6 -38 6z" />
    <glyph glyph-name="ecircumflex" unicode="&#xea;" 
d="M350 1100l175 -175v0q69 -70 74 -91q1 -5 1 -9q0 -11 -6 -17.5t-12 -7.5h-7h-100q-36 0 -60 22q-6 5 -15 14l-50 62l-50 -62q-29 -28 -47 -33q-12 -3 -28 -3h-100l-13 4q-11 7 -12 21q0 21 42 65q13 15 33 35v0zM425 700q75 0 116 -18q4 -1 6 -2q89 -38 128 -116
q25 -55 25 -113v-28q-1 -10 -7 -16t-12 -6l-6 -1h-75h-375q-22 -6 -25 -25v-225q0 -31 37 -44q18 -6 38 -6h75q71 0 104 18q12 7 46 32q11 9 28 21q29 24 48 27q14 2 49 2h50l13 -4q11 -7 12 -21q0 -42 -82 -101q-57 -41 -113 -61q-38 -13 -155 -13h-75q-75 0 -116 18
q-4 1 -6 2q-89 37 -128 116q-25 54 -25 112v203q0 60 25 113q40 79 128 116q39 15 74 18q21 2 48 2h150zM425 600h-150q-57 0 -72 -35q-3 -8 -3 -15v-25q0 -11 6 -17.5t12 -7.5h7h250l13 4q11 7 12 21v25q0 31 -37 44q-17 6 -38 6z" />
    <glyph glyph-name="edieresis" unicode="&#xeb;" 
d="M25 1000h150l13 -4q11 -7 12 -21v-50q0 -11 -6 -17.5t-12 -7.5h-7h-150l-13 4q-11 7 -12 21v50q0 11 6 17.5t12 7.5h7zM525 1000h150l13 -4q11 -7 12 -21v-50q0 -11 -6 -17.5t-12 -7.5h-7h-150l-13 4q-11 7 -12 21v50q0 11 6 17.5t12 7.5h7zM425 700q75 0 116 -18
q4 -1 6 -2q89 -38 128 -116q25 -55 25 -113v-28q-1 -10 -7 -16t-12 -6l-6 -1h-75h-375q-22 -6 -25 -25v-225q0 -31 37 -44q18 -6 38 -6h75q71 0 104 18q12 7 46 32q11 9 28 21q29 24 48 27q14 2 49 2h50l13 -4q11 -7 12 -21q0 -42 -82 -101q-57 -41 -113 -61
q-38 -13 -155 -13h-75q-75 0 -116 18q-4 1 -6 2q-89 37 -128 116q-25 54 -25 112v203q0 60 25 113q40 79 128 116q39 15 74 18q21 2 48 2h150zM425 600h-150q-57 0 -72 -35q-3 -8 -3 -15v-25q0 -11 6 -17.5t12 -7.5h7h250l13 4q11 7 12 21v25q0 31 -37 44q-17 6 -38 6z" />
    <glyph glyph-name="igrave" unicode="&#xec;" 
d="M125 1100h100q26 0 63 -37q1 -2 4 -5l8 -8l125 -125q69 -69 74 -91q1 -5 1 -9q0 -11 -6 -17t-13 -7l-6 -1h-100q-26 0 -63 38l-4 4l-8 8l-150 150q-49 53 -50 75q0 11 6 17.5t12 7.5h7zM225 700h250l13 -4q11 -7 12 -21v-550q0 -11 6 -17.5t12 -7.5h7h50l13 -4
q11 -7 12 -21v-50q0 -11 -6 -17.5t-12 -7.5h-7h-350l-13 4q-11 7 -12 21v50q0 11 6 17.5t12 7.5h7h50l13 4q11 7 12 21v450q0 11 -6 17.5t-12 7.5h-7h-50l-13 4q-11 7 -12 21v50q0 11 6 17.5t12 7.5h7z" />
    <glyph glyph-name="iacute" unicode="&#xed;" 
d="M473 1100h100l13 -4q11 -7 12 -21q0 -22 -42 -67q-5 -4 -8 -8l-150 -150q-38 -38 -52 -45q-12 -5 -23 -5h-100l-13 4q-12 7 -12 21q0 21 42 66q13 14 33 34l125 125q37 37 52 44q12 6 23 6zM225 700h250l13 -4q11 -7 12 -21v-550q0 -11 6 -17.5t12 -7.5h7h50l13 -4
q11 -7 12 -21v-50q0 -11 -6 -17.5t-12 -7.5h-7h-350l-13 4q-11 7 -12 21v50q0 11 6 17.5t12 7.5h7h50l13 4q11 7 12 21v450q0 11 -6 17.5t-12 7.5h-7h-50l-13 4q-11 7 -12 21v50q0 11 6 17.5t12 7.5h7z" />
    <glyph glyph-name="icircumflex" unicode="&#xee;" 
d="M400 1100q13 0 99 -64q10 -7 18 -13q84 -66 166 -159q17 -21 17 -39q0 -11 -6.5 -17.5t-12.5 -7.5h-6h-50q-59 0 -72 5q-16 8 -53 45q-32 32 -49 40q-22 10 -51 10q-50 0 -83 -32l-9 -9t-8 -9q-40 -40 -55 -46q-14 -4 -70 -4h-50l-13 4q-11 7 -12 21q1 24 15 38
q114 130 228 205q13 8 23 15zM225 700h250l13 -4q11 -7 12 -21v-550q0 -11 6 -17.5t12 -7.5h7h50l13 -4q11 -7 12 -21v-50q0 -11 -6 -17.5t-12 -7.5h-7h-350l-13 4q-11 7 -12 21v50q0 11 6 17.5t12 7.5h7h50l13 4q11 7 12 21v450q0 11 -6 17.5t-12 7.5h-7h-50l-13 4
q-11 7 -12 21v50q0 11 6 17.5t12 7.5h7z" />
    <glyph glyph-name="idieresis" unicode="&#xef;" 
d="M225 700h250l13 -4q11 -7 12 -21v-550q0 -11 6 -17.5t12 -7.5h7h50l13 -4q11 -7 12 -21v-50q0 -11 -6 -17.5t-12 -7.5h-7h-350l-13 4q-11 7 -12 21v50q0 11 6 17.5t12 7.5h7h50l13 4q11 7 12 21v450q0 11 -6 17.5t-12 7.5h-7h-50l-13 4q-11 7 -12 21v50q0 11 6 17.5
t12 7.5h7zM125 1000h150l13 -4q11 -7 12 -21v-50q0 -11 -6 -17.5t-12 -7.5h-7h-150l-13 4q-11 7 -12 21v50q0 11 6 17.5t12 7.5h7zM525 1000h150l13 -4q11 -7 12 -21v-50q0 -11 -6 -17.5t-12 -7.5h-7h-150l-13 4q-11 7 -12 21v50q0 11 6 17.5t12 7.5h7z" />
    <glyph glyph-name="eth" unicode="&#xf0;" 
d="M271 1000q66 0 105 -29q17 -13 36 -34q34 -35 45 -37q9 2 29 29q32 47 66 66q9 5 14 5q20 0 31 -20q3 -7 3 -13q0 -21 -46 -61q-13 -11 -25 -20q-39 -28 -23 -47q1 0 8 -7q39 -35 66 -62q67 -66 92 -110q26 -46 28 -96v-14v-150v-151q0 -59 -25 -113q-40 -79 -128 -116
q-39 -16 -74 -18q-22 -2 -48 -2h-50q-75 0 -116 18q-4 1 -6 2q-89 38 -128 116q-25 54 -25 113v103q0 59 25 112q40 80 128 116q39 16 73 18q22 2 49 2h75q56 0 53 29q-2 11 -10 22q-36 47 -114 121q-23 22 -29 25q-14 4 -27 -14q-32 -46 -72 -74q-12 -8 -17 -9
q-22 0 -31 21q-3 6 -3 11q0 21 43 61q14 12 28 21q27 20 28 25q-1 7 -50 56q-48 50 -49 66q0 29 27 35q16 4 44 4zM375 500q-57 0 -72 -35q-3 -8 -3 -15v-300q0 -31 37 -44q18 -6 38 -6h50q57 0 72 35q3 8 3 15v325q0 11 -6 17.5t-13 6.5l-6 1h-100z" />
    <glyph glyph-name="ntilde" unicode="&#xf1;" 
d="M283 1000q38 0 55 -6q32 -13 77 -72q17 -22 29 -22q18 0 55 47q25 32 34 41q15 12 42 12h75q49 -2 50 -38q0 -30 -75 -84q-54 -38 -109 -61q-39 -16 -88 -17h-10q-36 0 -56 7q-37 15 -68 60q-5 6 -8 12q-13 20 -28 21q-18 0 -57 -48q-24 -28 -33 -38q-8 -10 -15 -12
t-28 -2h-75q-29 1 -39 11q-27 27 20 74l5 5q63 59 149 94q36 15 82 16h16zM75 700q73 0 103 -24q13 -11 22 -26q28 -48 44 -50q15 -1 48 40l8 10q32 39 66 46q17 3 43 4h41q54 -2 93 -19q2 -1 4 -1q89 -38 128 -116q25 -55 25 -113v-428q-1 -10 -7 -16t-12 -6l-6 -1h-150
l-13 4q-11 7 -12 21v525q0 31 -37 44q-17 6 -38 6h-75l-21 -5q-28 -13 -29 -45v-525q0 -11 -6 -17.5t-12 -7.5h-7h-150l-13 4q-11 7 -12 21v550l-4 13q-7 11 -21 12h-50l-13 4q-11 7 -12 21v50q0 11 6 17.5t12 7.5h7h29h12h9z" />
    <glyph glyph-name="ograve" unicode="&#xf2;" 
d="M125 1100h100q26 0 63 -38l4 -4l8 -8l150 -150q49 -53 50 -75q0 -11 -6 -17.5t-12 -7.5h-7h-100q-26 0 -63 37q-1 2 -4 5l-8 8l-125 125q-69 69 -74 91q-1 5 -1 9q0 11 6 17t13 7zM275 700h150q74 0 116 -18q4 -1 6 -2q89 -37 128 -116q25 -55 25 -112v-203
q0 -59 -25 -113q-40 -79 -128 -116q-39 -15 -73 -18q-22 -2 -49 -2h-150q-74 0 -116 18q-4 1 -6 2q-89 38 -128 116q-25 55 -25 113v202v1q0 58 25 112q40 80 128 116q39 16 73 18q21 2 49 2zM275 600q-57 0 -72 -35q-3 -8 -3 -15v-400q0 -31 37 -44q18 -6 38 -6h150
q57 0 72 35q3 8 3 15v400q0 31 -37 44q-17 6 -38 6h-150z" />
    <glyph glyph-name="oacute" unicode="&#xf3;" 
d="M375 1100h100l13 -4q11 -7 12 -21q0 -21 -42 -66q-14 -15 -33 -34l-125 -125q-38 -38 -52 -45q-12 -5 -23 -5h-100l-13 4q-11 7 -12 21q0 22 42 67l8 8l150 150q38 37 52 44q12 6 23 6zM275 700h150q74 0 116 -18q4 -1 6 -2q89 -38 128 -116q25 -55 25 -113v-202v-1
q0 -58 -25 -112q-40 -80 -128 -116q-39 -16 -73 -18q-22 -2 -49 -2h-150q-74 0 -116 18q-4 1 -6 2q-89 38 -128 116q-25 55 -25 113v202v1q0 58 25 112q40 80 128 116q39 16 73 18q21 2 49 2zM275 600q-57 0 -72 -35q-3 -8 -3 -15v-400q0 -31 37 -44q17 -6 38 -6h150
q57 0 72 35q3 8 3 15v400q0 31 -37 44q-17 6 -38 6h-150z" />
    <glyph glyph-name="ocircumflex" unicode="&#xf4;" 
d="M350 1100l175 -175v0q69 -70 74 -91q1 -5 1 -9q0 -11 -6 -17.5t-12 -7.5h-7h-100q-36 0 -60 22q-6 5 -15 14l-50 62l-50 -62q-29 -28 -47 -33q-12 -3 -28 -3h-100l-13 4q-11 7 -12 21q0 21 42 65q13 15 33 35v0zM275 700h150q74 0 116 -18q4 -1 6 -2q89 -38 128 -116
q25 -55 25 -113v-202v-1q0 -58 -25 -112q-40 -80 -128 -116q-39 -16 -73 -18q-22 -2 -49 -2h-150q-74 0 -116 18q-4 1 -6 2q-89 38 -128 116q-25 55 -25 113v202v1q0 58 25 112q40 80 128 116q39 16 73 18q21 2 49 2zM275 600q-57 0 -72 -35q-3 -8 -3 -15v-400q0 -31 37 -44
q17 -6 38 -6h150q57 0 72 35q3 8 3 15v400q0 31 -37 44q-17 6 -38 6h-150z" />
    <glyph glyph-name="otilde" unicode="&#xf5;" 
d="M283 1000q38 0 55 -6q32 -13 77 -72q17 -22 29 -22q18 0 55 47q25 32 34 41q15 12 42 12h75q49 -2 50 -38q0 -30 -75 -84q-54 -38 -109 -61q-39 -16 -88 -17h-10q-36 0 -56 7q-37 15 -68 60q-5 6 -8 12q-13 20 -28 21q-18 0 -57 -48q-24 -28 -33 -38q-8 -10 -15 -12
t-28 -2h-75q-29 1 -39 11q-27 27 20 74l5 5q63 59 149 94q36 15 82 16h16zM275 700h150q74 0 116 -18q4 -1 6 -2q89 -38 128 -116q25 -55 25 -113v-202v-1q0 -58 -25 -112q-40 -80 -128 -116q-39 -16 -73 -18q-22 -2 -49 -2h-150q-74 0 -116 18q-4 1 -6 2q-89 38 -128 116
q-25 55 -25 113v202v1q0 58 25 112q40 80 128 116q39 16 73 18q21 2 49 2zM275 600q-57 0 -72 -35q-3 -8 -3 -15v-400q0 -31 37 -44q17 -6 38 -6h150q57 0 72 35q3 8 3 15v400q0 31 -37 44q-17 6 -38 6h-150z" />
    <glyph glyph-name="odieresis" unicode="&#xf6;" 
d="M25 1000h150l13 -4q11 -7 12 -21v-50q0 -11 -6 -17.5t-12 -7.5h-7h-150l-13 4q-11 7 -12 21v50q0 11 6 17.5t12 7.5h7zM525 1000h150l13 -4q11 -7 12 -21v-50q0 -11 -6 -17.5t-12 -7.5h-7h-150l-13 4q-11 7 -12 21v50q0 11 6 17.5t12 7.5h7zM275 700h150q74 0 116 -18
q4 -1 6 -2q89 -38 128 -116q25 -55 25 -113v-202v-1q0 -58 -25 -112q-40 -80 -128 -116q-39 -16 -73 -18q-22 -2 -49 -2h-150q-74 0 -116 18q-4 1 -6 2q-89 38 -128 116q-25 55 -25 113v202v1q0 58 25 112q40 80 128 116q39 16 73 18q21 2 49 2zM275 600q-57 0 -72 -35
q-3 -8 -3 -15v-400q0 -31 37 -44q17 -6 38 -6h150q57 0 72 35q3 8 3 15v400q0 31 -37 44q-17 6 -38 6h-150z" />
    <glyph glyph-name="divide" unicode="&#xf7;" 
d="M325 800h150l13 -4q11 -7 12 -21v-150q0 -11 -6 -17.5t-12 -7.5h-7h-150l-13 4q-11 7 -12 21v150q0 11 6 17.5t12 7.5h7zM125 500h550l13 -4q11 -7 12 -21v-50q0 -11 -6 -17.5t-12 -7.5h-7h-550l-13 4q-11 7 -12 21v50q0 11 6 17.5t12 7.5h7zM325 300h150l13 -4
q11 -7 12 -21v-150q0 -11 -6 -17.5t-12 -7.5h-7h-150l-13 4q-11 7 -12 21v150q0 11 6 17.5t12 7.5h7z" />
    <glyph glyph-name="oslash" unicode="&#xf8;" 
d="M275 700h150q74 0 116 -18q4 -1 6 -2q89 -38 128 -116q25 -55 25 -113v-202q0 -59 -25 -113q-40 -79 -128 -116q-39 -15 -73 -18q-22 -2 -49 -2h-150q-74 0 -116 18q-4 1 -6 2q-89 38 -128 116q-25 55 -25 113v202q0 59 25 113q40 79 128 116q39 15 73 18q21 2 49 2z
M275 600q-57 0 -72 -35q-3 -8 -3 -15v-200l248 248q-11 2 -23 2h-150zM500 450l-300 -300q0 -31 37 -44q18 -6 38 -6h150q57 0 72 35q3 8 3 15v300z" />
    <glyph glyph-name="ugrave" unicode="&#xf9;" 
d="M125 1100h100q26 0 63 -38l4 -4l8 -8l150 -150q49 -53 50 -75q0 -11 -6 -17.5t-12 -7.5h-7h-100q-26 0 -63 37q-1 2 -4 5l-8 8l-125 125q-69 69 -74 91q-1 5 -1 9q0 11 6 17t13 7zM25 700h150l13 -4q11 -7 12 -21v-525q0 -31 37 -44q18 -6 38 -6h75l21 5q28 13 29 45v525
q0 11 6 17.5t12 7.5h7h150l13 -4q11 -7 12 -21v-550l4 -13q7 -11 21 -12h50l13 -4q11 -7 12 -21v-50q0 -11 -6 -17.5t-12 -7.5h-7h-29h-12h-9q-73 0 -103 24q-13 11 -22 26q-28 48 -44 50q-15 1 -48 -40l-8 -10q-32 -39 -66 -46q-17 -3 -43 -4h-41q-54 2 -93 19q-2 1 -4 1
q-89 38 -128 116q-25 55 -25 113v428q1 10 7 16t12 6z" />
    <glyph glyph-name="uacute" unicode="&#xfa;" 
d="M375 1100h100l13 -4q11 -7 12 -21q0 -21 -42 -66q-14 -15 -33 -34l-125 -125q-38 -38 -52 -45q-12 -5 -23 -5h-100l-13 4q-11 7 -12 21q0 22 42 67l8 8l150 150q38 37 52 44q12 6 23 6zM25 700h150l13 -4q11 -7 12 -21v-525q0 -31 37 -44q18 -6 38 -6h75l21 5
q28 13 29 45v525q0 11 6 17.5t12 7.5h7h150l13 -4q11 -7 12 -21v-550l4 -13q7 -11 21 -12h50l13 -4q11 -7 12 -21v-50q0 -11 -6 -17.5t-12 -7.5h-7h-29h-12h-9q-73 0 -103 24q-13 11 -22 26q-28 48 -44 50q-15 1 -48 -40l-8 -10q-32 -39 -66 -46q-17 -3 -43 -4h-41
q-54 2 -93 19q-2 1 -4 1q-89 38 -128 116q-25 55 -25 113v428q1 10 7 16t12 6z" />
    <glyph glyph-name="ucircumflex" unicode="&#xfb;" 
d="M300 1100q13 0 99 -64q10 -7 18 -13q84 -66 166 -159q17 -21 17 -39q0 -11 -6.5 -17.5t-12.5 -7.5h-6h-50q-59 0 -72 5q-16 8 -53 45q-32 32 -49 40q-22 10 -51 10q-50 0 -83 -32l-9 -9t-8 -9q-40 -40 -55 -46q-14 -4 -70 -4h-50l-13 4q-11 7 -12 21q1 24 15 38
q114 130 228 205q13 8 23 15zM25 700h150l13 -4q11 -7 12 -21v-525q0 -31 37 -44q18 -6 38 -6h75l21 5q28 13 29 45v525q0 11 6 17.5t12 7.5h7h150l13 -4q11 -7 12 -21v-550l4 -13q7 -11 21 -12h50l13 -4q11 -7 12 -21v-50q0 -11 -6 -17.5t-12 -7.5h-7h-29h-12h-9
q-73 0 -103 24q-13 11 -22 26q-28 48 -44 50q-15 1 -48 -40l-8 -10q-32 -39 -66 -46q-17 -3 -43 -4h-41q-54 2 -93 19q-2 1 -4 1q-89 38 -128 116q-25 55 -25 113v428q1 10 7 16t12 6z" />
    <glyph glyph-name="udieresis" unicode="&#xfc;" 
d="M625 0q-73 0 -103 24q-13 11 -22 26q-28 48 -44 50q-15 1 -48 -40l-8 -10q-32 -39 -66 -46q-17 -3 -43 -4h-41q-54 2 -93 19q-2 1 -4 1q-89 38 -128 116q-25 55 -25 113v428q1 10 7 16t12 6l6 1h150l13 -4q11 -7 12 -21v-525q0 -31 37 -44q18 -6 38 -6h75l21 5
q28 13 29 45v525q0 11 6 17.5t12 7.5h7h150l13 -4q11 -7 12 -21v-550l4 -13q7 -11 21 -12h50l13 -4q11 -7 12 -21v-50q0 -11 -6 -17.5t-12 -7.5h-7h-29h-12h-9zM25 1000h150l13 -4q11 -7 12 -21v-50q0 -11 -6 -17.5t-12 -7.5h-7h-150l-13 4q-11 7 -12 21v50q0 11 6 17.5
t12 7.5h7zM425 1000h150l13 -4q11 -7 12 -21v-50q0 -11 -6 -17.5t-12 -7.5h-7h-150l-13 4q-11 7 -12 21v50q0 11 6 17.5t12 7.5h7z" />
    <glyph glyph-name="yacute" unicode="&#xfd;" 
d="M475 1100h100l13 -4q11 -7 12 -21q0 -21 -42 -66q-14 -15 -33 -34l-125 -125q-38 -38 -52 -45q-12 -5 -23 -5h-100l-13 4q-11 7 -12 21q0 22 42 67l8 8l150 150q38 37 52 44q12 6 23 6zM25 700h150l13 -4q11 -7 12 -21v-525q0 -31 37 -44q18 -6 38 -6h200q11 0 17.5 6
t7.5 12v7v550q0 11 6 17.5t12 7.5h7h150l13 -4q11 -7 12 -21v-625q-1 -60 -26 -107q-35 -69 -127 -150q-52 -45 -93 -66q-55 -27 -104 -27h-125h-200l-13 4q-11 7 -12 21v50q0 11 6 17.5t12 7.5h7h200q90 0 140 24q17 8 35 19q99 62 100 115v7v10l-4 13q-7 11 -21 12h-200
q-63 1 -122 20q-89 38 -128 116q-25 55 -25 113v428q1 10 7 16t12 6z" />
    <glyph glyph-name="thorn" unicode="&#xfe;" 
d="M25 1000h250l13 -4q11 -7 12 -21v-250l4 -13q7 -11 21 -12h100q75 0 116 -18q4 -1 6 -2q89 -37 128 -116q25 -54 25 -112v-204q0 -59 -25 -112q-40 -80 -128 -116q-39 -16 -74 -18q-22 -2 -48 -2h-100q-11 0 -17.5 -6t-7.5 -12v-7v-150q0 -11 6 -17.5t12 -7.5h7h50l13 -4
q11 -7 12 -21v-50q0 -11 -6 -17.5t-12 -7.5h-7h-350l-13 4q-11 7 -12 21v50q0 11 6 17.5t12 7.5h7h50l13 4q11 7 12 21v1050q0 11 -6 17.5t-12 7.5h-7h-50l-13 4q-11 7 -12 21v50q0 11 6 17.5t12 7.5h7zM325 600q-11 0 -17.5 -6t-7.5 -12v-7v-450l4 -13q7 -11 21 -12h100
q57 0 72 35q3 8 3 15v400q0 31 -37 44q-17 6 -38 6h-100z" />
    <glyph glyph-name="ydieresis" unicode="&#xff;" 
d="M25 1000h150l13 -4q11 -7 12 -21v-50q0 -11 -6 -17.5t-12 -7.5h-7h-150l-13 4q-11 7 -12 21v50q0 11 6 17.5t12 7.5h7zM525 1000h150l13 -4q11 -7 12 -21v-50q0 -11 -6 -17.5t-12 -7.5h-7h-150l-13 4q-11 7 -12 21v50q0 11 6 17.5t12 7.5h7zM25 700h150l13 -4
q11 -7 12 -21v-525q0 -31 37 -44q18 -6 38 -6h200q11 0 17.5 6t7.5 12v7v550q0 11 6 17.5t12 7.5h7h150l13 -4q11 -7 12 -21v-625q-1 -60 -26 -107q-35 -69 -127 -150q-52 -45 -93 -66q-55 -27 -104 -27h-125h-200l-13 4q-11 7 -12 21v50q0 11 6 17.5t12 7.5h7h200
q90 0 140 24q17 8 35 19q99 62 100 115v7v10l-4 13q-7 11 -21 12h-200q-63 1 -122 20q-89 38 -128 116q-25 55 -25 113v428q1 10 7 16t12 6z" />
    <glyph glyph-name="Amacron" unicode="&#x100;" 
d="M125 1200h450l13 -4q11 -7 12 -21v-50q0 -11 -6 -17.5t-12 -7.5h-7h-450l-13 4q-11 7 -12 21v50q0 11 6 17.5t12 7.5h7zM350 1000q1 -2 150 -150q136 -136 172 -190q28 -43 28 -85v-550q0 -11 -6 -17.5t-12 -7.5h-7h-150l-13 4q-11 7 -12 21v325v25q0 11 -6 17.5t-12 7.5
h-7h-250l-13 -4q-11 -7 -12 -21v-25v-325q0 -11 -6 -17.5t-12 -7.5h-7h-150l-13 4q-11 7 -12 21v550q1 38 27 85q22 39 153 170l20 20l46.5 46.5l41.5 41.5t31.5 32t22.5 22zM350 800l-50 -50q-77 -77 -93 -126q-7 -24 -7 -49v-55q2 -9 8 -14t11 -5l6 -1h250l13 4
q11 7 12 21v50q-4 67 -61 134q-17 19 -39 41z" />
    <glyph glyph-name="amacron" unicode="&#x101;" 
d="M125 1000h450l13 -4q11 -7 12 -21v-50q0 -11 -6 -17.5t-12 -7.5h-7h-450l-13 4q-11 7 -12 21v50q0 11 6 17.5t12 7.5h7zM125 700h200q75 0 116 -18q4 -1 6 -2q89 -38 128 -116q25 -55 25 -113v-326l4 -13q7 -11 21 -12h50l13 -4q11 -7 12 -21v-50q0 -11 -6 -17.5
t-12 -7.5h-7h-28q-70 0 -90 5q-37 12 -57 45q-28 48 -44 50q-15 1 -49 -41q-4 -5 -7 -9q-32 -39 -68 -46q-21 -4 -57 -4q-76 0 -117 18q-3 1 -5 2q-89 37 -128 115q-25 52 -25 115q0 60 25 114q40 80 128 116q39 16 74 18q22 2 48 2h100q11 0 17.5 6t7.5 12v7v25
q0 31 -37 44q-17 6 -38 6h-200l-13 4q-11 7 -12 21v50q0 11 6 17.5t12 7.5h7zM275 400q-57 0 -72 -35q-3 -8 -3 -15v-200q0 -31 37 -45q18 -5 38 -5h75l21 5q28 13 29 45v225l-4 13q-7 11 -21 12h-100zM0 250z" />
    <glyph glyph-name="Abreve" unicode="&#x102;" 
d="M25 1200h50q55 0 73 -11q7 -4 24 -18q17 -13 28 -21q56 -40 81 -47q14 -3 29 -3h80q39 0 84 31q9 6 26 19q11 9 28 21q29 24 48 27q14 2 49 2h50l13 -4q11 -7 12 -21q0 -42 -82 -101q-57 -41 -113 -61q-38 -13 -155 -13q-119 0 -155 13q-83 29 -149 90q-45 43 -46 72
q0 11 6 17.5t12 7.5h7zM350 900q1 -2 150 -150q136 -136 172 -190q28 -43 28 -85v-450q0 -11 -6 -17.5t-12 -7.5h-7h-150l-13 4q-11 7 -12 21v250q0 11 -6 17.5t-12 7.5h-7h-250l-13 -4q-11 -7 -12 -21v-250q0 -11 -6 -17.5t-12 -7.5h-7h-150l-13 4q-11 7 -12 21v450
q1 38 27 85q22 39 153 170l20 20l46.5 46.5l41.5 41.5t31.5 32t22.5 22zM350 700l-50 -50q-75 -77 -92 -124q-8 -25 -8 -51v-55q2 -9 8 -14t11 -5l6 -1h250l13 4q11 7 12 21v50q-4 67 -61 134q-17 19 -39 41z" />
    <glyph glyph-name="abreve" unicode="&#x103;" 
d="M25 1000h50q55 0 73 -11q7 -4 24 -18q17 -13 28 -21q56 -40 81 -47q14 -3 29 -3h80q39 0 84 31q9 6 26 19q11 9 28 21q29 24 48 27q14 2 49 2h50l13 -4q11 -7 12 -21q0 -42 -82 -101q-57 -41 -113 -61q-38 -13 -155 -13q-119 0 -155 13q-83 29 -149 90q-45 43 -46 72
q0 11 6 17.5t12 7.5h7zM125 700h200q75 0 116 -18q4 -1 6 -2q89 -38 128 -116q25 -55 25 -113v-326l4 -13q7 -11 21 -12h50l13 -4q11 -7 12 -21v-50q0 -11 -6 -17.5t-12 -7.5h-7h-28q-70 0 -90 5q-37 12 -57 45q-28 48 -44 50q-15 1 -49 -41q-4 -5 -7 -9q-32 -39 -68 -46
q-21 -4 -57 -4q-76 0 -117 18q-3 1 -5 2q-89 37 -128 115q-25 52 -25 115q0 60 25 114q40 80 128 116q39 16 74 18q22 2 48 2h100q11 0 17.5 6t7.5 12v7v25q0 31 -37 44q-17 6 -38 6h-200l-13 4q-11 7 -12 21v50q0 11 6 17.5t12 7.5h7zM275 400q-57 0 -72 -35q-3 -8 -3 -15
v-200q0 -31 37 -45q18 -5 38 -5h75l21 5q28 13 29 45v225l-4 13q-7 11 -21 12h-100zM0 250z" />
    <glyph glyph-name="Aogonek" unicode="&#x104;" 
d="M350 1000q1 -2 150 -150q136 -136 172 -190q28 -43 28 -85v-550q0 -11 -6 -17.5t-12 -7.5h-7q-56 0 -141 -39q-39 -19 -59 -36q-73 -69 -75 -100q0 -11 6 -17.5t12 -7.5h7h250l13 -4q11 -7 12 -21v-50q0 -11 -6 -17.5t-12 -7.5h-7h-250q-63 0 -109 24q-73 39 -104 89
q-12 21 -12 37q0 44 70 96q23 16 46 28q67 30 118 33q52 3 62 25q4 8 4 18v325q0 11 -6 17.5t-12 7.5h-7h-250l-13 -4q-11 -7 -12 -21v-350q0 -11 -6 -17.5t-12 -7.5h-7h-150l-13 4q-11 7 -12 21v550q1 38 27 85q22 39 153 170l20 20l46.5 46.5l41.5 41.5t31.5 32t22.5 22z
M350 800l-50 -50q-77 -77 -93 -126q-7 -24 -7 -49v-55q2 -9 8 -14t11 -5l6 -1h250l13 4q11 7 12 21v50q-4 67 -61 134q-17 19 -39 41z" />
    <glyph glyph-name="aogonek" unicode="&#x105;" 
d="M125 700h200q75 0 116 -18q4 -1 6 -2q89 -38 128 -116q25 -55 25 -113v-326l4 -13q7 -11 21 -12h50l13 -4q11 -7 12 -21v-50q0 -11 -6 -17.5t-12 -7.5h-7h-28q-70 0 -90 5q-37 12 -57 45q-28 49 -44 50q-17 -1 -48 -40q-12 -17 0 -27q4 -3 8 -5q84 -49 84 -78
q0 -15 -41 -48q-49 -41 -57 -64q-2 -7 -2 -13q0 -11 6 -17.5t12 -7.5h7h250l13 -4q11 -7 12 -21v-50q0 -11 -6 -17.5t-12 -7.5h-7h-250q-63 0 -109 24q-73 39 -104 89q-12 21 -12 37q0 44 70 96q9 7 18 12q15 10 12 30q-1 3 -1 4q-5 7 -20 8h-4q-76 0 -117 18q-3 1 -5 2
q-89 37 -128 115q-25 52 -25 115q0 60 25 114q40 80 128 116q39 16 74 18q22 2 48 2h100q11 0 17.5 6t7.5 12v7v25q0 31 -37 44q-17 6 -38 6h-200l-13 4q-11 7 -12 21v50q0 11 6 17.5t12 7.5h7zM275 400q-57 0 -72 -35q-3 -8 -3 -15v-200q0 -31 37 -45q18 -5 38 -5h75l21 5
q28 13 29 45v225l-4 13q-7 11 -21 12h-100zM0 250z" />
    <glyph glyph-name="Cacute" unicode="&#x106;" 
d="M475 1200h100l13 -4q11 -7 12 -21q0 -21 -42 -66q-14 -15 -33 -34l-25 -25q-38 -38 -52 -45q-12 -5 -23 -5h-100l-13 4q-11 7 -12 21q0 22 42 67l8 8l50 50q38 37 52 44q12 6 23 6zM400 900q83 0 117 -10q15 -4 31 -11q56 -22 106 -86q16 -19 24 -36q17 -34 20 -84
q2 -31 2 -48q0 -11 -6.5 -17t-12.5 -7l-6 -1h-21q-21 0 -32 13q-8 10 -25 34q-52 76 -108 122q-13 10 -21 14q-34 17 -68 17q-65 0 -130 -76q-25 -30 -44 -64q-26 -61 -26 -134v-152q0 -75 26 -134q50 -92 122 -127q28 -13 52 -13q34 0 68 17q37 19 100 97q16 20 29 39
q27 40 38 44q7 3 19 3h21l13 -4q11 -7 12 -21q0 -15 -2 -48q-3 -51 -20 -84q-26 -52 -85 -96q-24 -18 -45 -26q-50 -20 -116 -21h-32q-211 0 -336 183q-18 26 -35 57q-28 48 -29 141v21v96q0 95 17 137q5 14 12 25q92 165 224 215q67 25 147 25z" />
    <glyph glyph-name="cacute" unicode="&#x107;" 
d="M475 1100h100l13 -4q11 -7 12 -21q0 -21 -42 -66q-14 -15 -33 -34l-125 -125q-38 -38 -52 -45q-12 -5 -23 -5h-100l-13 4q-11 7 -12 21q0 22 42 67l8 8l150 150q38 37 52 44q12 6 23 6zM275 700h75q119 0 155 -13q83 -29 149 -90q45 -43 46 -72q0 -11 -6 -17.5t-13 -6.5
l-6 -1h-50q-55 0 -73 10q-7 5 -24 18q-17 14 -28 22q-49 35 -70 42q-27 8 -80 8h-75q-57 0 -72 -35q-3 -8 -3 -15v-400q0 -31 37 -44q18 -6 38 -6h75q71 0 104 18q12 7 46 32q11 9 28 21q29 24 48 27q14 2 49 2h50l13 -4q11 -7 12 -21q0 -42 -82 -101q-57 -41 -113 -61
q-38 -13 -155 -13h-75q-75 0 -116 18q-4 1 -6 2q-89 37 -128 116q-25 54 -25 112v203q0 60 25 113q40 79 128 116q39 15 74 18q21 2 48 2z" />
    <glyph glyph-name="Ccircumflex" unicode="&#x108;" 
d="M450 1200q76 0 156 -62q5 -5 58 -48q52 -49 27 -77l-2 -2q-13 -11 -39 -11h-75q-29 0 -38 8q-3 3 -5 6q-12 13 -34 39q-39 47 -48 47t-50 -49q-21 -25 -32 -37q-8 -10 -15 -12t-28 -2h-75q-29 1 -39 11q-27 27 20 74l5 5q75 62 99 76q57 34 115 34zM400 900q83 0 117 -10
q15 -4 31 -11q56 -22 106 -86q16 -19 24 -36q17 -34 20 -84q2 -31 2 -48q0 -11 -6.5 -17t-12.5 -7l-6 -1h-21q-21 0 -32 13q-8 10 -25 34q-52 76 -108 122q-13 10 -21 14q-34 17 -68 17q-65 0 -130 -76q-25 -30 -44 -64q-26 -61 -26 -134v-152q0 -75 26 -134
q50 -92 122 -127q28 -13 52 -13q34 0 68 17q37 19 100 97q16 20 29 39q27 40 38 44q7 3 19 3h21l13 -4q11 -7 12 -21q0 -15 -2 -48q-3 -51 -20 -84q-26 -52 -85 -96q-24 -18 -45 -26q-50 -20 -116 -21h-32q-211 0 -336 183q-18 26 -35 57q-28 48 -29 141v21v96q0 95 17 137
q5 14 12 25q92 165 224 215q67 25 147 25z" />
    <glyph glyph-name="ccircumflex" unicode="&#x109;" 
d="M350 1100l175 -175v0q69 -70 74 -91q1 -5 1 -9q0 -11 -6 -17.5t-12 -7.5h-7h-100q-36 0 -60 22q-6 5 -15 14l-50 62l-50 -62q-29 -28 -47 -33q-12 -3 -28 -3h-100l-13 4q-11 7 -12 21q0 21 42 65q13 15 33 35v0zM275 700h75q119 0 155 -13q83 -29 149 -90q45 -43 46 -72
q0 -11 -6 -17.5t-13 -6.5l-6 -1h-50q-55 0 -73 10q-7 5 -24 18q-17 14 -28 22q-49 35 -70 42q-27 8 -80 8h-75q-57 0 -72 -35q-3 -8 -3 -15v-400q0 -31 37 -44q18 -6 38 -6h75q71 0 104 18q12 7 46 32q11 9 28 21q29 24 48 27q14 2 49 2h50l13 -4q11 -7 12 -21
q0 -42 -82 -101q-57 -41 -113 -61q-38 -13 -155 -13h-75q-75 0 -116 18q-4 1 -6 2q-89 37 -128 116q-25 54 -25 112v203q0 60 25 113q40 79 128 116q39 15 74 18q21 2 48 2z" />
    <glyph glyph-name="Cdotaccent" unicode="&#x10a;" 
d="M325 1200h150l13 -4q11 -7 12 -21v-150q0 -11 -6 -17.5t-12 -7.5h-7h-150l-13 4q-11 7 -12 21v150q0 11 6 17.5t12 7.5h7zM400 900q83 0 117 -10q15 -4 31 -11q56 -22 106 -86q16 -19 24 -36q17 -34 20 -84q2 -31 2 -48q0 -11 -6.5 -17t-12.5 -7l-6 -1h-21q-21 0 -32 13
q-8 10 -25 34q-52 76 -108 122q-13 10 -21 14q-34 17 -68 17q-65 0 -130 -76q-25 -30 -44 -64q-26 -61 -26 -134v-152q0 -75 26 -134q50 -92 122 -127q28 -13 52 -13q34 0 68 17q37 19 100 97q16 20 29 39q27 40 38 44q7 3 19 3h21l13 -4q11 -7 12 -21q0 -15 -2 -48
q-3 -51 -20 -84q-26 -52 -85 -96q-24 -18 -45 -26q-50 -20 -116 -21h-32q-211 0 -336 183q-18 26 -35 57q-28 48 -29 141v21v96q0 95 17 137q5 14 12 25q92 165 224 215q67 25 147 25z" />
    <glyph glyph-name="cdotaccent" unicode="&#x10b;" 
d="M325 1000h150l13 -4q11 -7 12 -21v-150q0 -11 -6 -17.5t-12 -7.5h-7h-150l-13 4q-11 7 -12 21v150q0 11 6 17.5t12 7.5h7zM275 700h75q119 0 155 -13q83 -29 149 -90q45 -43 46 -72q0 -11 -6 -17.5t-13 -6.5l-6 -1h-50q-55 0 -73 10q-7 5 -24 18q-17 14 -28 22
q-49 35 -70 42q-27 8 -80 8h-75q-57 0 -72 -35q-3 -8 -3 -15v-400q0 -31 37 -44q18 -6 38 -6h75q71 0 104 18q12 7 46 32q11 9 28 21q29 24 48 27q14 2 49 2h50l13 -4q11 -7 12 -21q0 -42 -82 -101q-57 -41 -113 -61q-38 -13 -155 -13h-75q-75 0 -116 18q-4 1 -6 2
q-89 37 -128 116q-25 54 -25 112v203q0 60 25 113q40 79 128 116q39 15 74 18q21 2 48 2z" />
    <glyph glyph-name="Ccaron" unicode="&#x10c;" 
d="M200 1200q41 0 58 -11q12 -9 42 -39q38 -38 68 -46q15 -4 32 -4q49 0 91 41l9 9q40 40 55 46q14 4 70 4h50l13 -4q11 -7 12 -21q0 -43 -69 -100q-51 -42 -106 -62q-32 -11 -53 -12q-20 -1 -72 -1q-89 0 -108 7q-3 0 -8.5 2.5t-8.5 3.5q-80 28 -138 92q-36 41 -37 70
q0 11 6 17.5t12 7.5h7h50h16h9zM400 900q83 0 117 -10q15 -4 31 -11q56 -22 106 -86q16 -19 24 -36q17 -34 20 -84q2 -31 2 -48q0 -11 -6.5 -17t-12.5 -7l-6 -1h-21q-21 0 -32 13q-8 10 -25 34q-52 76 -108 122q-13 10 -21 14q-34 17 -68 17q-65 0 -130 -76q-25 -30 -44 -64
q-26 -61 -26 -134v-152q0 -75 26 -134q50 -92 122 -127q28 -13 52 -13q34 0 68 17q37 19 100 97q16 20 29 39q27 40 38 44q7 3 19 3h21l13 -4q11 -7 12 -21q0 -15 -2 -48q-3 -51 -20 -84q-26 -52 -85 -96q-24 -18 -45 -26q-50 -20 -116 -21h-32q-211 0 -336 183
q-18 26 -35 57q-28 48 -29 141v21v96q0 95 17 137q5 14 12 25q92 165 224 215q67 25 147 25z" />
    <glyph glyph-name="ccaron" unicode="&#x10d;" 
d="M150 1000h75q29 0 38 -8q3 -3 5 -6q12 -13 34 -39q39 -47 48 -47t50 49q21 25 32 37q8 10 15 12t28 2h75q29 -1 39 -11q27 -27 -20 -74l-5 -5q-75 -62 -99 -76q-57 -34 -115 -34q-76 0 -156 62q-5 5 -58 48q-52 49 -27 77l2 2q13 11 39 11zM275 700h75q119 0 155 -13
q83 -29 149 -90q45 -43 46 -72q0 -11 -6 -17.5t-13 -6.5l-6 -1h-50q-55 0 -73 10q-7 5 -24 18q-17 14 -28 22q-49 35 -70 42q-27 8 -80 8h-75q-57 0 -72 -35q-3 -8 -3 -15v-400q0 -31 37 -44q18 -6 38 -6h75q71 0 104 18q12 7 46 32q11 9 28 21q29 24 48 27q14 2 49 2h50
l13 -4q11 -7 12 -21q0 -42 -82 -101q-57 -41 -113 -61q-38 -13 -155 -13h-75q-75 0 -116 18q-4 1 -6 2q-89 37 -128 116q-25 54 -25 112v203q0 60 25 113q40 79 128 116q39 15 74 18q21 2 48 2z" />
    <glyph glyph-name="Dcaron" unicode="&#x10e;" 
d="M150 1200h75q29 0 38 -8q3 -3 5 -6q12 -13 34 -39q39 -47 48 -47t50 49q21 25 32 37q8 10 15 12t28 2h75q29 -1 39 -11q27 -27 -20 -74l-5 -5q-75 -62 -99 -76q-57 -34 -115 -34q-76 0 -156 62q-5 5 -58 48q-52 49 -27 77l2 2q13 11 39 11zM25 900h275q211 0 336 -183
q18 -26 35 -57q28 -48 29 -141v-21v-96q0 -95 -17 -137q-5 -14 -12 -25q-92 -165 -224 -215q-67 -25 -147 -25h-275l-13 4q-11 7 -12 21v50q0 11 6 17.5t12 7.5h7h50l13 4q11 7 12 21v650q0 11 -6 17.5t-12 7.5h-7h-50l-13 4q-11 7 -12 21v50q0 11 6 17.5t12 7.5h7zM325 800
q-11 0 -17.5 -6t-7.5 -12v-7v-650l4 -13q7 -11 21 -12q66 1 148 143q20 35 24 75q2 24 3 66v132q-2 91 -16 120q-4 9 -11 21q-82 143 -148 143z" />
    <glyph glyph-name="dcaron" unicode="&#x10f;" 
d="M625 1200h150l13 -4q11 -7 12 -21v-50q0 -43 -14 -67l-9 -16q-30 -55 -94 -99q-20 -14 -36 -21q-18 -8 -32 -12.5t-15 -17.5v-5v-763q4 -23 25 -24h50l13 -4q11 -7 12 -21v-50q0 -11 -6 -17.5t-12 -7.5h-7h-28q-72 0 -92 6q-36 12 -55 44q-28 48 -44 50q-15 1 -49 -41
q-4 -5 -7 -9q-33 -39 -72 -46q-21 -4 -56 -4q-73 0 -112 17q-4 2 -7 3q-89 38 -128 116q-24 53 -25 108v106q5 67 29 109q92 164 223 215q57 22 123 25l14 4q10 8 11 22v150q0 11 -6 17.5t-12 7.5h-7h-50l-13 4q-11 7 -12 21v50q0 11 6 17.5t12 7.5h7h200q23 1 36 17
q38 53 39 116v42q0 11 6 17.5t12 7.5h7zM387 599h-2q-6 -1 -10 -2q-74 -17 -134 -113q-8 -13 -15 -25q-26 -61 -26 -134v-25v-150q0 -31 38 -44q17 -6 37 -6h75l21 5q28 13 29 45v425q-2 22 -13 24z" />
    <glyph glyph-name="Dcroat" unicode="&#x110;" 
d="M25 1000h275q211 0 336 -183q18 -26 35 -57q28 -48 29 -141v-21v-196q0 -95 -17 -137q-5 -14 -12 -25q-92 -165 -224 -215q-67 -25 -147 -25h-275l-13 4q-11 7 -12 21v50q0 11 6 17.5t12 7.5h7h50l13 4q11 7 12 21v350l-4 13q-7 11 -21 12h-50l-13 4q-11 7 -12 21v50
q0 11 6 17.5t12 7.5h7h50q11 0 17.5 6t7.5 12v7v250q0 11 -6 17.5t-12 7.5h-7h-50l-13 4q-11 7 -12 21v50q0 11 6 17.5t12 7.5h7zM325 900q-11 0 -17.5 -6t-7.5 -12v-7v-250l4 -13q7 -11 21 -12h50l13 -4q11 -7 12 -21v-50q0 -11 -6 -17.5t-12 -7.5h-7h-50q-11 0 -17.5 -6
t-7.5 -12v-7v-350l4 -13q7 -11 21 -12q66 1 148 143q20 35 24 75q2 24 3 66v232q-2 91 -16 120q-4 9 -11 21q-82 143 -148 143z" />
    <glyph glyph-name="dcroat" unicode="&#x111;" 
d="M425 1000h150q11 0 17.5 -6t7.5 -12v-7v-150l4 -13q7 -11 21 -12h50l13 -4q11 -7 12 -21v-50q0 -11 -6 -17.5t-12 -7.5h-7h-50q-23 -1 -25 -25v-551q4 -23 25 -24h50l13 -4q11 -7 12 -21v-50q0 -11 -6 -17.5t-12 -7.5h-7h-28q-72 0 -92 6q-36 12 -55 44q-28 48 -44 50
q-15 1 -49 -41q-4 -5 -7 -9q-33 -39 -72 -46q-21 -4 -56 -4q-73 0 -112 17q-4 2 -7 3q-89 38 -128 116q-24 53 -25 108v6q5 67 29 109q91 164 223 215q57 22 123 25l13 4q11 8 12 22v50l-4 13q-7 11 -21 12h-250l-13 4q-11 7 -12 21v50q0 11 6 17.5t12 7.5h7h250
q11 0 17.5 6t7.5 12v7v150l4 13q7 11 21 12zM387 499h-3q-5 -1 -9 -2q-74 -17 -135 -113q-7 -13 -14 -25q-26 -61 -26 -134v-25v-50q0 -31 38 -44q17 -6 37 -6h75l21 5q28 13 29 45v325q-2 22 -13 24z" />
    <glyph glyph-name="Emacron" unicode="&#x112;" 
d="M125 1200h450l13 -4q11 -7 12 -21v-50q0 -11 -6 -17.5t-12 -7.5h-7h-450l-13 4q-11 7 -12 21v50q0 11 6 17.5t12 7.5h7zM25 1000h650l13 -4q11 -7 12 -21v-250q0 -11 -9 -17.5t-18 -6.5l-9 -1q-30 1 -67 52q-5 7 -14 21q-13 18 -19 27q-44 61 -110 88q-29 12 -54 12h-75
l-13 -4q-11 -7 -12 -21v-250q0 -11 6 -17.5t12 -7.5h7h50q11 0 17.5 6t7.5 12v7v50l4 13q7 11 21 12h50q11 0 17.5 -6t7.5 -12v-7v-250l-4 -13q-7 -11 -21 -12h-50q-11 0 -17.5 6t-7.5 12v7v50l-4 13q-7 11 -21 12h-50l-13 -4q-11 -7 -12 -21v-350q0 -11 6 -17.5t12 -7.5h7
h75q63 0 130 62q20 19 34 38q7 9 19 27q38 55 59 67q11 5 22 6l20 -4q15 -7 16 -21v-250q0 -11 -6 -17.5t-12 -7.5h-7h-650l-13 4q-11 7 -12 21v50q0 11 6 17.5t12 7.5h7h50l13 4q11 7 12 21v750q0 11 -6 17.5t-12 7.5h-7h-50l-13 4q-11 7 -12 21v50q0 11 6 17.5t12 7.5h7z
" />
    <glyph glyph-name="emacron" unicode="&#x113;" 
d="M125 1000h450l13 -4q11 -7 12 -21v-50q0 -11 -6 -17.5t-12 -7.5h-7h-450l-13 4q-11 7 -12 21v50q0 11 6 17.5t12 7.5h7zM425 700q75 0 116 -18q4 -1 6 -2q89 -38 128 -116q25 -55 25 -113v-28q-1 -10 -7 -16t-12 -6l-6 -1h-75h-375q-22 -6 -25 -25v-225q0 -31 37 -44
q18 -6 38 -6h75q71 0 104 18q12 7 46 32q11 9 28 21q29 24 48 27q14 2 49 2h50l13 -4q11 -7 12 -21q0 -42 -82 -101q-57 -41 -113 -61q-38 -13 -155 -13h-75q-75 0 -116 18q-4 1 -6 2q-89 37 -128 116q-25 54 -25 112v203q0 60 25 113q40 79 128 116q39 15 74 18q21 2 48 2
h150zM425 600h-150q-57 0 -72 -35q-3 -8 -3 -15v-25q0 -11 6 -17.5t12 -7.5h7h250l13 4q11 7 12 21v25q0 31 -37 44q-17 6 -38 6z" />
    <glyph glyph-name="Ebreve" unicode="&#x114;" 
d="M25 1200h50q55 0 73 -11q7 -4 24 -18q17 -13 28 -21q56 -40 81 -47q14 -3 29 -3h80q39 0 84 31q9 6 26 19q11 9 28 21q29 24 48 27q14 2 49 2h50l13 -4q11 -7 12 -21q0 -42 -82 -101q-57 -41 -113 -61q-38 -13 -155 -13q-119 0 -155 13q-83 29 -149 90q-45 43 -46 72
q0 11 6 17.5t12 7.5h7zM25 900h650l13 -4q11 -7 12 -21v-250q0 -11 -9 -17.5t-18 -6.5l-9 -1q-30 1 -67 52q-5 7 -14 21q-13 18 -19 27q-44 61 -110 88q-29 12 -54 12h-75l-13 -4q-11 -7 -12 -21v-250q0 -11 6 -17.5t12 -7.5h7h50q11 0 17.5 6t7.5 12v7v50l4 13q7 11 21 12
h50q11 0 17.5 -6t7.5 -12v-7v-250l-4 -13q-7 -11 -21 -12h-50q-11 0 -17.5 6t-7.5 12v7v50l-4 13q-7 11 -21 12h-50l-13 -4q-11 -7 -12 -21v-250q0 -11 6 -17.5t12 -7.5h7h75q63 0 130 62q20 19 34 38q7 9 19 27q38 55 59 67q11 5 22 6l20 -4q15 -7 16 -21v-250
q0 -11 -6 -17.5t-12 -7.5h-7h-650l-13 4q-11 7 -12 21v50q0 11 6 17.5t12 7.5h7h50l13 4q11 7 12 21v650q0 11 -6 17.5t-12 7.5h-7h-50l-13 4q-11 7 -12 21v50q0 11 6 17.5t12 7.5h7z" />
    <glyph glyph-name="ebreve" unicode="&#x115;" 
d="M25 1000h50q55 0 73 -11q7 -4 24 -18q17 -13 28 -21q56 -40 81 -47q14 -3 29 -3h80q39 0 84 31q9 6 26 19q11 9 28 21q29 24 48 27q14 2 49 2h50l13 -4q11 -7 12 -21q0 -42 -82 -101q-57 -41 -113 -61q-38 -13 -155 -13q-119 0 -155 13q-83 29 -149 90q-45 43 -46 72
q0 11 6 17.5t12 7.5h7zM425 700q75 0 116 -18q4 -1 6 -2q89 -38 128 -116q25 -55 25 -113v-28q-1 -10 -7 -16t-12 -6l-6 -1h-75h-375q-22 -6 -25 -25v-225q0 -31 37 -44q18 -6 38 -6h75q71 0 104 18q12 7 46 32q11 9 28 21q29 24 48 27q14 2 49 2h50l13 -4q11 -7 12 -21
q0 -42 -82 -101q-57 -41 -113 -61q-38 -13 -155 -13h-75q-75 0 -116 18q-4 1 -6 2q-89 37 -128 116q-25 54 -25 112v203q0 60 25 113q40 79 128 116q39 15 74 18q21 2 48 2h150zM425 600h-150q-57 0 -72 -35q-3 -8 -3 -15v-25q0 -11 6 -17.5t12 -7.5h7h250l13 4q11 7 12 21
v25q0 31 -37 44q-17 6 -38 6z" />
    <glyph glyph-name="Edotaccent" unicode="&#x116;" 
d="M325 1200h150l13 -4q11 -7 12 -21v-150q0 -11 -6 -17.5t-12 -7.5h-7h-150l-13 4q-11 7 -12 21v150q0 11 6 17.5t12 7.5h7zM25 900h650l13 -4q11 -7 12 -21v-250q0 -11 -9 -17.5t-18 -6.5l-9 -1q-30 1 -67 52q-5 7 -14 21q-13 18 -19 27q-44 61 -110 88q-29 12 -54 12h-75
l-13 -4q-11 -7 -12 -21v-250q0 -11 6 -17.5t12 -7.5h7h50q11 0 17.5 6t7.5 12v7v50l4 13q7 11 21 12h50q11 0 17.5 -6t7.5 -12v-7v-250l-4 -13q-7 -11 -21 -12h-50q-11 0 -17.5 6t-7.5 12v7v50l-4 13q-7 11 -21 12h-50l-13 -4q-11 -7 -12 -21v-250q0 -11 6 -17.5t12 -7.5h7
h75q63 0 130 62q20 19 34 38q7 9 19 27q38 55 59 67q11 5 22 6l20 -4q15 -7 16 -21v-250q0 -11 -6 -17.5t-12 -7.5h-7h-650l-13 4q-11 7 -12 21v50q0 11 6 17.5t12 7.5h7h50l13 4q11 7 12 21v650q0 11 -6 17.5t-12 7.5h-7h-50l-13 4q-11 7 -12 21v50q0 11 6 17.5t12 7.5h7z
" />
    <glyph glyph-name="edotaccent" unicode="&#x117;" 
d="M325 1000h150l13 -4q11 -7 12 -21v-150q0 -11 -6 -17.5t-12 -7.5h-7h-150l-13 4q-11 7 -12 21v150q0 11 6 17.5t12 7.5h7zM425 700q75 0 116 -18q4 -1 6 -2q89 -38 128 -116q25 -55 25 -113v-28q-1 -10 -7 -16t-12 -6l-6 -1h-75h-375q-22 -6 -25 -25v-225q0 -31 37 -44
q18 -6 38 -6h75q71 0 104 18q12 7 46 32q11 9 28 21q29 24 48 27q14 2 49 2h50l13 -4q11 -7 12 -21q0 -42 -82 -101q-57 -41 -113 -61q-38 -13 -155 -13h-75q-75 0 -116 18q-4 1 -6 2q-89 37 -128 116q-25 54 -25 112v203q0 60 25 113q40 79 128 116q39 15 74 18q21 2 48 2
h150zM425 600h-150q-57 0 -72 -35q-3 -8 -3 -15v-25q0 -11 6 -17.5t12 -7.5h7h250l13 4q11 7 12 21v25q0 31 -37 44q-17 6 -38 6z" />
    <glyph glyph-name="Eogonek" unicode="&#x118;" 
d="M25 1000h650l13 -4q11 -7 12 -21v-250q0 -11 -9 -17.5t-18 -6.5l-9 -1q-30 1 -67 52q-5 7 -14 21q-13 18 -19 27q-44 61 -110 88q-29 12 -54 12h-75l-13 -4q-11 -7 -12 -21v-250q0 -11 6 -17.5t12 -7.5h7h50q11 0 17.5 6t7.5 12v7v50l4 13q7 11 21 12h50q11 0 17.5 -6
t7.5 -12v-7v-250l-4 -13q-7 -11 -21 -12h-50q-11 0 -17.5 6t-7.5 12v7v50l-4 13q-7 11 -21 12h-50l-13 -4q-11 -7 -12 -21v-350q0 -11 6 -17.5t12 -7.5h7h75q63 0 130 62q20 19 34 38q7 9 19 27q38 55 59 67q11 5 22 6l20 -4q15 -7 16 -21v-250q0 -11 -6 -17.5t-12 -7.5h-7
q-56 0 -141 -39q-39 -19 -59 -36q-73 -69 -75 -100q0 -11 6 -17.5t12 -7.5h7h250l13 -4q11 -7 12 -21v-50q0 -11 -6 -17.5t-12 -7.5h-7h-250q-63 0 -109 24q-73 39 -104 89q-12 21 -12 37q0 44 70 96q23 16 46 28q11 5 7 16q-5 9 -23 10h-275l-13 4q-11 7 -12 21v50
q0 11 6 17.5t12 7.5h7h50l13 4q11 7 12 21v750q0 11 -6 17.5t-12 7.5h-7h-50l-13 4q-11 7 -12 21v50q0 11 6 17.5t12 7.5h7z" />
    <glyph glyph-name="eogonek" unicode="&#x119;" 
d="M425 700q75 0 116 -18q4 -1 6 -2q89 -38 128 -116q25 -55 25 -113v-28q-1 -10 -7 -16t-12 -6l-6 -1h-75h-375q-22 -6 -25 -25v-225q0 -31 37 -44q18 -6 38 -6h75q71 0 104 18q12 7 46 32q11 9 28 21q29 24 48 27q14 2 49 2h50l13 -4q11 -7 12 -21q0 -42 -82 -101
q-57 -41 -113 -61q-68 -25 -136 -82q-68 -59 -69 -106q0 -11 6 -17.5t12 -7.5h7h350l13 -4q11 -7 12 -21v-50q0 -11 -6 -17.5t-12 -7.5h-7h-350q-63 0 -109 24q-73 39 -104 89q-12 21 -12 37q1 51 80 99q8 5 63 27q9 4 16 7q17 14 0 17h-7q-56 2 -95 19q-3 1 -4 1
q-89 37 -128 116q-25 54 -25 112v203q0 60 25 113q40 79 128 116q39 15 74 18q21 2 48 2h150zM425 600h-150q-57 0 -72 -35q-3 -8 -3 -15v-25q0 -11 6 -17.5t12 -7.5h7h250l13 4q11 7 12 21v25q0 31 -37 44q-17 6 -38 6z" />
    <glyph glyph-name="Ecaron" unicode="&#x11a;" 
d="M150 1200h75q29 0 38 -8q3 -3 5 -6q12 -13 34 -39q39 -47 48 -47t50 49q21 25 32 37q8 10 15 12t28 2h75q29 -1 39 -11q27 -27 -20 -74l-5 -5q-75 -62 -99 -76q-57 -34 -115 -34q-76 0 -156 62q-5 5 -58 48q-52 49 -27 77l2 2q13 11 39 11zM25 900h650l13 -4
q11 -7 12 -21v-250q0 -11 -9 -17.5t-18 -6.5l-9 -1q-30 1 -67 52q-5 7 -14 21q-13 18 -19 27q-44 61 -110 88q-29 12 -54 12h-75l-13 -4q-11 -7 -12 -21v-250q0 -11 6 -17.5t12 -7.5h7h50q11 0 17.5 6t7.5 12v7v50l4 13q7 11 21 12h50q11 0 17.5 -6t7.5 -12v-7v-250l-4 -13
q-7 -11 -21 -12h-50q-11 0 -17.5 6t-7.5 12v7v50l-4 13q-7 11 -21 12h-50l-13 -4q-11 -7 -12 -21v-250q0 -11 6 -17.5t12 -7.5h7h75q63 0 130 62q20 19 34 38q7 9 19 27q38 55 59 67q11 5 22 6l20 -4q15 -7 16 -21v-250q0 -11 -6 -17.5t-12 -7.5h-7h-650l-13 4q-11 7 -12 21
v50q0 11 6 17.5t12 7.5h7h50l13 4q11 7 12 21v650q0 11 -6 17.5t-12 7.5h-7h-50l-13 4q-11 7 -12 21v50q0 11 6 17.5t12 7.5h7z" />
    <glyph glyph-name="ecaron" unicode="&#x11b;" 
d="M200 1000q41 0 58 -11q12 -9 42 -39q38 -38 68 -46q15 -4 32 -4q49 0 91 41l9 9q40 40 55 46q14 4 70 4h50l13 -4q11 -7 12 -21q0 -43 -69 -100q-51 -42 -106 -62q-32 -11 -53 -12q-20 -1 -72 -1q-89 0 -108 7q-3 0 -8.5 2.5t-8.5 3.5q-80 28 -138 92q-36 41 -37 70
q0 11 6 17.5t12 7.5h7h50h16h9zM425 700q75 0 116 -18q4 -1 6 -2q89 -38 128 -116q25 -55 25 -113v-28q-1 -10 -7 -16t-12 -6l-6 -1h-75h-375q-22 -6 -25 -25v-225q0 -31 37 -44q18 -6 38 -6h75q71 0 104 18q12 7 46 32q11 9 28 21q29 24 48 27q14 2 49 2h50l13 -4
q11 -7 12 -21q0 -42 -82 -101q-57 -41 -113 -61q-38 -13 -155 -13h-75q-75 0 -116 18q-4 1 -6 2q-89 37 -128 116q-25 54 -25 112v203q0 60 25 113q40 79 128 116q39 15 74 18q21 2 48 2h150zM425 600h-150q-57 0 -72 -35q-3 -8 -3 -15v-25q0 -11 6 -17.5t12 -7.5h7h250
l13 4q11 7 12 21v25q0 31 -37 44q-17 6 -38 6z" />
    <glyph glyph-name="Gcircumflex" unicode="&#x11c;" 
d="M450 1200q76 0 156 -62q5 -5 58 -48q52 -49 27 -77l-2 -2q-13 -11 -39 -11h-75q-29 0 -38 8q-3 3 -5 6q-12 13 -34 39q-39 47 -48 47t-50 -49q-21 -25 -32 -37q-8 -10 -15 -12t-28 -2h-75q-29 1 -39 11q-27 27 20 74l5 5q75 62 99 76q57 34 115 34zM400 899q83 0 117 -10
q15 -4 31 -11q56 -22 106 -86q16 -19 24 -36q17 -34 20 -84q2 -31 2 -48q0 -11 -6.5 -17t-12.5 -7l-6 -1h-21q-21 0 -32 13q-8 10 -25 34q-52 76 -108 122q-13 10 -21 14q-34 17 -68 17q-65 0 -130 -76q-25 -30 -44 -64q-26 -61 -26 -134v-151q0 -75 26 -134
q50 -92 122 -127q28 -13 52 -13h25q40 0 51 9q4 3 7 7q15 17 17 59v100q0 11 -6 17.5t-12 7.5h-7h-150l-13 4q-11 7 -12 21v50q0 11 6 17.5t12 7.5h7h350l13 -4q11 -7 12 -21v-325q-1 -29 -11 -40q-18 -19 -46 2q-16 12 -42 38q-50 50 -62 50q-8 -2 -19 -19q-23 -38 -65 -65
q-10 -7 -17 -9q-16 -6 -31 -7h-7h-5h-6h-4q-203 6 -324 188q-17 24 -32 52q-28 48 -29 141v21v95q0 95 17 137q5 14 12 25q92 165 224 215q67 25 147 25z" />
    <glyph glyph-name="gcircumflex" unicode="&#x11d;" 
d="M350 1100l175 -175v0q69 -70 74 -91q1 -5 1 -9q0 -11 -6 -17.5t-12 -7.5h-7h-100q-36 0 -60 22q-6 5 -15 14l-50 62l-50 -62q-29 -28 -47 -33q-12 -3 -28 -3h-100l-13 4q-11 7 -12 21q0 21 42 65q13 15 33 35v0zM625 700h9h12h29l13 -4q11 -7 12 -21v-50q0 -11 -6 -17.5
t-12 -7.5h-7h-50q-11 0 -17.5 -6t-7.5 -12v-7v-627q0 -58 -25 -112q-40 -80 -128 -116q-39 -16 -74 -18q-21 -2 -48 -2q-94 0 -130 13q-83 29 -149 90q-45 43 -46 72q0 11 6 17.5t12 7.5h7h50q55 0 73 -11q7 -4 24 -18q17 -13 28 -21q57 -41 89 -47q16 -3 36 -3q57 0 72 35
q3 8 3 15v125l-4 13q-7 11 -21 12h-100q-75 0 -116 18q-4 1 -6 2q-89 38 -128 116q-25 55 -25 113v202q0 59 25 113q40 79 128 116q39 16 74 18q22 2 48 2q67 0 94 -20q15 -11 31 -30q37 -48 52 -50q16 -2 42 40l6 10q27 46 98 50h27zM275 600q-57 0 -72 -35q-3 -8 -3 -15
v-400q0 -31 37 -44q18 -6 38 -6h100q11 0 17.5 6t7.5 12v7v425q0 22 -12.5 34.5t-25.5 13.5l-12 2h-75z" />
    <glyph glyph-name="Gbreve" unicode="&#x11e;" 
d="M200 1200q41 0 58 -11q12 -9 42 -39q38 -38 68 -46q15 -4 32 -4q49 0 91 41l9 9q40 40 55 46q14 4 70 4h50l13 -4q11 -7 12 -21q0 -43 -69 -100q-51 -42 -106 -62q-32 -11 -53 -12q-20 -1 -72 -1q-89 0 -108 7q-3 0 -8.5 2.5t-8.5 3.5q-80 28 -138 92q-36 41 -37 70
q0 11 6 17.5t12 7.5h7h50h16h9zM400 899q83 0 117 -10q15 -4 31 -11q56 -22 106 -86q16 -19 24 -36q17 -34 20 -84q2 -31 2 -48q0 -11 -6.5 -17t-12.5 -7l-6 -1h-21q-21 0 -32 13q-8 10 -25 34q-52 76 -108 122q-13 10 -21 14q-34 17 -68 17q-65 0 -130 -76q-25 -30 -44 -64
q-26 -61 -26 -134v-151q0 -75 26 -134q50 -92 122 -127q28 -13 52 -13h25q40 0 51 9q4 3 7 7q15 17 17 59v100q0 11 -6 17.5t-12 7.5h-7h-150l-13 4q-11 7 -12 21v50q0 11 6 17.5t12 7.5h7h350l13 -4q11 -7 12 -21v-325q-1 -29 -11 -40q-18 -19 -46 2q-16 12 -42 38
q-50 50 -62 50q-8 -2 -19 -19q-23 -38 -65 -65q-10 -7 -17 -9q-16 -6 -31 -7h-7h-5h-6h-4q-203 6 -324 188q-17 24 -32 52q-28 48 -29 141v21v95q0 95 17 137q5 14 12 25q92 165 224 215q67 25 147 25z" />
    <glyph glyph-name="gbreve" unicode="&#x11f;" 
d="M25 1000h50q55 0 73 -11q7 -4 24 -18q17 -13 28 -21q56 -40 81 -47q14 -3 29 -3h80q39 0 84 31q9 6 26 19q11 9 28 21q29 24 48 27q14 2 49 2h50l13 -4q11 -7 12 -21q0 -42 -82 -101q-57 -41 -113 -61q-38 -13 -155 -13q-119 0 -155 13q-83 29 -149 90q-45 43 -46 72
q0 11 6 17.5t12 7.5h7zM625 700h9h12h29l13 -4q11 -7 12 -21v-50q0 -11 -6 -17.5t-12 -7.5h-7h-50q-11 0 -17.5 -6t-7.5 -12v-7v-627q0 -58 -25 -112q-40 -80 -128 -116q-39 -16 -74 -18q-21 -2 -48 -2q-94 0 -130 13q-83 29 -149 90q-45 43 -46 72q0 11 6 17.5t12 7.5h7h50
q55 0 73 -11q7 -4 24 -18q17 -13 28 -21q57 -41 89 -47q16 -3 36 -3q57 0 72 35q3 8 3 15v125l-4 13q-7 11 -21 12h-100q-75 0 -116 18q-4 1 -6 2q-89 38 -128 116q-25 55 -25 113v202q0 59 25 113q40 79 128 116q39 16 74 18q22 2 48 2q67 0 94 -20q15 -11 31 -30
q37 -48 52 -50q16 -2 42 40l6 10q27 46 98 50h27zM275 600q-57 0 -72 -35q-3 -8 -3 -15v-400q0 -31 37 -44q18 -6 38 -6h100q11 0 17.5 6t7.5 12v7v425q0 22 -12.5 34.5t-25.5 13.5l-12 2h-75z" />
    <glyph glyph-name="Gdotaccent" unicode="&#x120;" 
d="M325 1200h150l13 -4q11 -7 12 -21v-150q0 -11 -6 -17.5t-12 -7.5h-7h-150l-13 4q-11 7 -12 21v150q0 11 6 17.5t12 7.5h7zM400 899q83 0 117 -10q15 -4 31 -11q56 -22 106 -86q16 -19 24 -36q17 -34 20 -84q2 -31 2 -48q0 -11 -6.5 -17t-12.5 -7l-6 -1h-21q-21 0 -32 13
q-8 10 -25 34q-52 76 -108 122q-13 10 -21 14q-34 17 -68 17q-65 0 -130 -76q-25 -30 -44 -64q-26 -61 -26 -134v-151q0 -75 26 -134q50 -92 122 -127q28 -13 52 -13h25q40 0 51 9q4 3 7 7q15 17 17 59v100q0 11 -6 17.5t-12 7.5h-7h-150l-13 4q-11 7 -12 21v50q0 11 6 17.5
t12 7.5h7h350l13 -4q11 -7 12 -21v-325q-1 -29 -11 -40q-18 -19 -46 2q-16 12 -42 38q-50 50 -62 50q-8 -2 -19 -19q-23 -38 -65 -65q-10 -7 -17 -9q-16 -6 -31 -7h-7h-5h-6h-4q-203 6 -324 188q-17 24 -32 52q-28 48 -29 141v21v95q0 95 17 137q5 14 12 25q92 165 224 215
q67 25 147 25z" />
    <glyph glyph-name="gdotaccent" unicode="&#x121;" 
d="M325 1000h150l13 -4q11 -7 12 -21v-150q0 -11 -6 -17.5t-12 -7.5h-7h-150l-13 4q-11 7 -12 21v150q0 11 6 17.5t12 7.5h7zM625 700h9h12h29l13 -4q11 -7 12 -21v-50q0 -11 -6 -17.5t-12 -7.5h-7h-50q-11 0 -17.5 -6t-7.5 -12v-7v-627q0 -58 -25 -112q-40 -80 -128 -116
q-39 -16 -74 -18q-21 -2 -48 -2q-94 0 -130 13q-83 29 -149 90q-45 43 -46 72q0 11 6 17.5t12 7.5h7h50q55 0 73 -11q7 -4 24 -18q17 -13 28 -21q57 -41 89 -47q16 -3 36 -3q57 0 72 35q3 8 3 15v125l-4 13q-7 11 -21 12h-100q-75 0 -116 18q-4 1 -6 2q-89 38 -128 116
q-25 55 -25 113v202q0 59 25 113q40 79 128 116q39 16 74 18q22 2 48 2q67 0 94 -20q15 -11 31 -30q37 -48 52 -50q16 -2 42 40l6 10q27 46 98 50h27zM275 600q-57 0 -72 -35q-3 -8 -3 -15v-400q0 -31 37 -44q18 -6 38 -6h100q11 0 17.5 6t7.5 12v7v425q0 22 -12.5 34.5
t-25.5 13.5l-12 2h-75z" />
    <glyph glyph-name="uni0122" unicode="&#x122;" 
d="M400 1000q83 0 117 -10q15 -4 31 -11q56 -22 106 -86q16 -19 24 -36q17 -34 20 -84q2 -31 2 -48q0 -11 -6.5 -17t-12.5 -7l-6 -1h-21q-21 0 -32 13q-8 10 -25 34q-52 76 -108 122q-13 10 -21 14q-34 17 -68 17q-65 0 -130 -76q-25 -30 -44 -64q-26 -61 -26 -134v-252
q0 -75 26 -134q50 -92 122 -127q28 -13 52 -13h25q40 0 51 9q4 3 7 7q15 17 17 59v200q0 11 -6 17.5t-12 7.5h-7h-150l-13 4q-11 7 -12 21v50q0 11 6 17.5t12 7.5h7h350l13 -4q11 -7 12 -21v-425q-1 -29 -11 -40q-18 -19 -46 2q-16 12 -42 38q-50 50 -62 50q-8 -2 -19 -19
q-11 -18 -44 -49q-30 -28 -10 -46q7 -6 18 -12q75 -39 105 -89q11 -19 11 -35q0 -45 -71 -97q-22 -17 -45 -29q-47 -24 -109 -24h-250l-13 4q-11 7 -12 21v50q0 11 6 17.5t12 7.5h7h250l13 4q11 7 12 21q0 21 -42 66q-13 14 -33 34q-25 26 -25 66q-1 19 -19 25
q-147 42 -245 211q-4 7 -7 13q-28 48 -29 141v21v196q0 95 17 137q5 14 12 25q92 165 224 215q67 25 147 25z" />
    <glyph glyph-name="uni0123" unicode="&#x123;" 
d="M425 1100h250l13 -4q11 -7 12 -21v-50q0 -11 -6 -17.5t-12 -7.5h-7h-250l-13 -4q-11 -7 -12 -21q0 -21 42 -66q13 -14 33 -34q21 -21 24 -28q1 -4 1 -7q-1 -17 -10 -26q-15 -14 -47 -14q-68 1 -119 22q-5 2 -8 4q-73 37 -104 87q-12 20 -12 37q0 45 71 97q22 17 45 29
q47 24 109 24zM625 700h9h12h29l13 -4q11 -7 12 -21v-50q0 -11 -6 -17.5t-12 -7.5h-7h-50q-11 0 -17.5 -6t-7.5 -12v-7v-627q0 -58 -25 -112q-40 -80 -128 -116q-39 -16 -74 -18q-21 -2 -48 -2q-94 0 -130 13q-83 29 -149 90q-45 43 -46 72q0 11 6 17.5t12 7.5h7h50
q55 0 73 -11q7 -4 24 -18q17 -13 28 -21q57 -41 89 -47q16 -3 36 -3q57 0 72 35q3 8 3 15v125l-4 13q-7 11 -21 12h-100q-75 0 -116 18q-4 1 -6 2q-89 38 -128 116q-25 55 -25 113v202q0 59 25 113q40 79 128 116q39 16 74 18q22 2 48 2q67 0 94 -20q15 -11 31 -30
q37 -48 52 -50q16 -2 42 40l6 10q27 46 98 50h27zM275 600q-57 0 -72 -35q-3 -8 -3 -15v-400q0 -31 37 -44q18 -6 38 -6h100q11 0 17.5 6t7.5 12v7v425q0 22 -12.5 34.5t-25.5 13.5l-12 2h-75z" />
    <glyph glyph-name="Hcircumflex" unicode="&#x124;" 
d="M350 1200q76 0 156 -62q5 -5 58 -48q52 -49 27 -77l-2 -2q-13 -11 -39 -11h-75q-29 0 -38 8q-3 3 -5 6q-12 13 -34 39q-39 47 -48 47t-50 -49q-21 -25 -32 -37q-8 -10 -15 -12t-28 -2h-75q-29 1 -39 11q-27 27 20 74l5 5q75 62 99 76q57 34 115 34zM25 900h150l13 -4
q11 -7 12 -21v-350l4 -13q7 -11 21 -12h250q11 0 17.5 6t7.5 12v7v350q0 11 6 17.5t12 7.5h7h150l13 -4q11 -7 12 -21v-850q0 -11 -6 -17.5t-12 -7.5h-7h-150l-13 4q-11 7 -12 21v357q-6 17 -24 18h-252q-19 -1 -24 -18v-357q0 -11 -6 -17.5t-12 -7.5h-7h-150l-13 4
q-11 7 -12 21v850q0 11 6 17.5t12 7.5h7z" />
    <glyph glyph-name="hcircumflex" unicode="&#x125;" 
d="M350 1200q76 0 156 -62q5 -5 58 -48q52 -49 27 -77l-2 -2q-13 -11 -39 -11h-75q-29 0 -38 8q-3 3 -5 6q-12 13 -34 39q-39 47 -48 47t-50 -49q-21 -25 -32 -37q-8 -10 -15 -12t-28 -2h-75q-29 1 -39 11q-27 27 20 74l5 5q75 62 99 76q57 34 115 34zM25 900h250l13 -4
q11 -7 12 -21v-300q0 -42 16 -58q29 -29 55 -11q6 4 10 9q57 72 84 82q10 3 21 3q56 -1 126 -62q44 -39 67 -81q21 -42 21 -82v-350q0 -11 -6.5 -17.5t-12.5 -7.5h-6h-150l-13 4q-11 7 -12 21v350q-1 26 -7 55q-9 41 -40 63q-11 7 -20 7q-27 0 -71 -66q-36 -54 -49 -104
q-13 -53 -13 -105v-25v-175q0 -11 -6.5 -17.5t-12.5 -7.5h-6h-250l-13 4q-11 7 -12 21v50q0 11 6 17.5t12 7.5h7h50l13 4q11 7 12 21v650q0 11 -6 17.5t-12 7.5h-7h-50l-13 4q-11 7 -12 21v50q0 11 6 17.5t12 7.5h7z" />
    <glyph glyph-name="Hbar" unicode="&#x126;" 
d="M125 1000h150l13 -4q11 -7 12 -21v-150l4 -13q7 -11 21 -12h150q11 0 17.5 6t7.5 12v7v150q0 11 6 17.5t12 7.5h7h150l13 -4q11 -7 12 -21v-150l4 -13q7 -11 21 -12h50l13 -4q11 -7 12 -21v-50q0 -11 -6 -17.5t-12 -7.5h-7h-50q-11 0 -17.5 -6t-7.5 -12v-7v-50v-600
q0 -11 -6 -17.5t-12 -7.5h-7h-150l-13 4q-11 7 -12 21v457q-6 17 -24 18h-152q-19 -1 -24 -18v-457q0 -11 -6 -17.5t-12 -7.5h-7h-150l-13 4q-11 7 -12 21v600v50l-4 13q-7 11 -21 12h-50l-13 4q-11 7 -12 21v50q0 11 6 17.5t12 7.5h7h50q11 0 17.5 6t7.5 12v7v150
q0 11 6 17.5t12 7.5h7zM325 700q-11 0 -17.5 -6t-7.5 -12v-7v-50l4 -13q7 -11 21 -12h150q11 0 17.5 6t7.5 12v7v50l-4 13q-7 11 -21 12h-150z" />
    <glyph glyph-name="hbar" unicode="&#x127;" 
d="M25 1000h250l13 -4q11 -7 12 -21v-100v-50l4 -13q7 -11 21 -12h150l13 -4q11 -7 12 -21v-50q0 -11 -6 -17.5t-12 -7.5h-7h-150q-11 0 -17.5 -6t-7.5 -12v-7v-100q0 -42 16 -58q29 -29 55 -11q6 4 10 9q57 72 84 82q10 3 21 3q56 -1 126 -62q44 -39 67 -81q21 -42 21 -82
v-350q0 -11 -6.5 -17.5t-12.5 -7.5h-6h-150l-13 4q-11 7 -12 21v350q-1 26 -7 55q-9 41 -40 63q-11 7 -20 7q-27 0 -71 -66q-36 -54 -49 -104q-13 -53 -13 -105v-25v-175q0 -11 -6.5 -17.5t-12.5 -7.5h-6h-250l-13 4q-11 7 -12 21v50q0 11 6 17.5t12 7.5h7h50l13 4
q11 7 12 21v550l-4 13q-7 11 -21 12h-50l-13 4q-11 7 -12 21v50q0 11 6 17.5t12 7.5h7h50q11 0 17.5 6t7.5 12v7v50q0 11 -6 17.5t-12 7.5h-7h-50l-13 4q-11 7 -12 21v50q0 11 6 17.5t12 7.5h7z" />
    <glyph glyph-name="Itilde" unicode="&#x128;" 
d="M283 1200q38 0 55 -6q32 -13 77 -72q17 -22 29 -22q18 0 55 47q25 32 34 41q15 12 42 12h75q49 -2 50 -38q0 -30 -75 -84q-54 -38 -109 -61q-39 -16 -88 -17h-10q-36 0 -56 7q-37 15 -68 60q-5 6 -8 12q-13 20 -28 21q-18 0 -57 -48q-24 -28 -33 -38q-8 -10 -15 -12
t-28 -2h-75q-29 1 -39 11q-27 27 20 74l5 5q63 59 149 94q36 15 82 16h16zM225 900h350l13 -4q11 -7 12 -21v-50q0 -11 -6 -17.5t-12 -7.5h-7h-50l-13 -4q-11 -7 -12 -21v-650q0 -11 6 -17.5t12 -7.5h7h50l13 -4q11 -7 12 -21v-50q0 -11 -6 -17.5t-12 -7.5h-7h-350l-13 4
q-11 7 -12 21v50q0 11 6 17.5t12 7.5h7h50l13 4q11 7 12 21v650q0 11 -6 17.5t-12 7.5h-7h-50l-13 4q-11 7 -12 21v50q0 11 6 17.5t12 7.5h7z" />
    <glyph glyph-name="itilde" unicode="&#x129;" 
d="M283 1000q38 0 55 -6q32 -13 77 -72q17 -22 29 -22q18 0 55 47q25 32 34 41q15 12 42 12h75q49 -2 50 -38q0 -30 -75 -84q-54 -38 -109 -61q-39 -16 -88 -17h-10q-36 0 -56 7q-37 15 -68 60q-5 6 -8 12q-13 20 -28 21q-18 0 -57 -48q-24 -28 -33 -38q-8 -10 -15 -12
t-28 -2h-75q-29 1 -39 11q-27 27 20 74l5 5q63 59 149 94q36 15 82 16h16zM225 700h250l13 -4q11 -7 12 -21v-550q0 -11 6 -17.5t12 -7.5h7h50l13 -4q11 -7 12 -21v-50q0 -11 -6 -17.5t-12 -7.5h-7h-350l-13 4q-11 7 -12 21v50q0 11 6 17.5t12 7.5h7h50l13 4q11 7 12 21v450
q0 11 -6 17.5t-12 7.5h-7h-50l-13 4q-11 7 -12 21v50q0 11 6 17.5t12 7.5h7z" />
    <glyph glyph-name="Imacron" unicode="&#x12a;" 
d="M125 1200h550l13 -4q11 -7 12 -21v-50q0 -11 -6 -17.5t-12 -7.5h-7h-550l-13 4q-11 7 -12 21v50q0 11 6 17.5t12 7.5h7zM225 1000h350l13 -4q11 -7 12 -21v-50q0 -11 -6 -17.5t-12 -7.5h-7h-50l-13 -4q-11 -7 -12 -21v-750q0 -11 6 -17.5t12 -7.5h7h50l13 -4
q11 -7 12 -21v-50q0 -11 -6 -17.5t-12 -7.5h-7h-350l-13 4q-11 7 -12 21v50q0 11 6 17.5t12 7.5h7h50l13 4q11 7 12 21v750q0 11 -6 17.5t-12 7.5h-7h-50l-13 4q-11 7 -12 21v50q0 11 6 17.5t12 7.5h7z" />
    <glyph glyph-name="imacron" unicode="&#x12b;" 
d="M125 1000h450l13 -4q11 -7 12 -21v-50q0 -11 -6 -17.5t-12 -7.5h-7h-450l-13 4q-11 7 -12 21v50q0 11 6 17.5t12 7.5h7zM225 700h250l13 -4q11 -7 12 -21v-550q0 -11 6 -17.5t12 -7.5h7h50l13 -4q11 -7 12 -21v-50q0 -11 -6 -17.5t-12 -7.5h-7h-350l-13 4q-11 7 -12 21
v50q0 11 6 17.5t12 7.5h7h50l13 4q11 7 12 21v450q0 11 -6 17.5t-12 7.5h-7h-50l-13 4q-11 7 -12 21v50q0 11 6 17.5t12 7.5h7z" />
    <glyph glyph-name="Ibreve" unicode="&#x12c;" 
d="M200 1200q41 0 58 -11q12 -9 42 -39q38 -38 68 -46q15 -4 32 -4q49 0 91 41l9 9q40 40 55 46q14 4 70 4h50l13 -4q11 -7 12 -21q0 -43 -69 -100q-51 -42 -106 -62q-32 -11 -53 -12q-20 -1 -72 -1q-89 0 -108 7q-3 0 -8.5 2.5t-8.5 3.5q-80 28 -138 92q-36 41 -37 70
q0 11 6 17.5t12 7.5h7h50h16h9zM225 900h350l13 -4q11 -7 12 -21v-50q0 -11 -6 -17.5t-12 -7.5h-7h-50l-13 -4q-11 -7 -12 -21v-650q0 -11 6 -17.5t12 -7.5h7h50l13 -4q11 -7 12 -21v-50q0 -11 -6 -17.5t-12 -7.5h-7h-350l-13 4q-11 7 -12 21v50q0 11 6 17.5t12 7.5h7h50
l13 4q11 7 12 21v650q0 11 -6 17.5t-12 7.5h-7h-50l-13 4q-11 7 -12 21v50q0 11 6 17.5t12 7.5h7z" />
    <glyph glyph-name="ibreve" unicode="&#x12d;" 
d="M200 1000q41 0 58 -11q12 -9 42 -39q38 -38 68 -46q15 -4 32 -4q49 0 91 41l9 9q40 40 55 46q14 4 70 4h50l13 -4q11 -7 12 -21q0 -43 -69 -100q-51 -42 -106 -62q-32 -11 -53 -12q-20 -1 -72 -1q-89 0 -108 7q-3 0 -8.5 2.5t-8.5 3.5q-80 28 -138 92q-36 41 -37 70
q0 11 6 17.5t12 7.5h7h50h16h9zM225 700h250l13 -4q11 -7 12 -21v-550q0 -11 6 -17.5t12 -7.5h7h50l13 -4q11 -7 12 -21v-50q0 -11 -6 -17.5t-12 -7.5h-7h-350l-13 4q-11 7 -12 21v50q0 11 6 17.5t12 7.5h7h50l13 4q11 7 12 21v450q0 11 -6 17.5t-12 7.5h-7h-50l-13 4
q-11 7 -12 21v50q0 11 6 17.5t12 7.5h7z" />
    <glyph glyph-name="Iogonek" unicode="&#x12e;" 
d="M225 1000h350l13 -4q11 -7 12 -21v-50q0 -11 -6 -17.5t-12 -7.5h-7h-50l-13 -4q-11 -7 -12 -21v-750q0 -11 6 -17.5t12 -7.5h7h50l13 -4q11 -7 12 -21v-50q0 -16 -11 -20q-1 0 -4 -1q-7 -3 -10 -4q-137 -60 -166 -127q-9 -23 -9 -48q0 -11 6 -17.5t12 -7.5h7h250l13 -4
q11 -7 12 -21v-50q0 -11 -6 -17.5t-12 -7.5h-7h-250q-74 0 -148 43q-76 46 -77 101q0 49 65 98q33 27 35 33q0 19 -21 23q-12 2 -29 2h-25l-13 4q-11 7 -12 21v50q0 11 6 17.5t12 7.5h7h50l13 4q11 7 12 21v750q0 11 -6 17.5t-12 7.5h-7h-50l-13 4q-11 7 -12 21v50
q0 11 6 17.5t12 7.5h7z" />
    <glyph glyph-name="iogonek" unicode="&#x12f;" 
d="M325 1000h150l13 -4q11 -7 12 -21v-150q0 -11 -6 -17.5t-12 -7.5h-7h-150l-13 4q-11 7 -12 21v150q0 11 6 17.5t12 7.5h7zM225 700h250l13 -4q11 -7 12 -21v-550q0 -11 6 -17.5t12 -7.5h7h50l13 -4q11 -7 12 -21v-51q0 -11 -6.5 -17t-12.5 -6l-6 -1q-40 0 -101 -54
q-71 -66 -74 -121q0 -11 6 -17.5t12 -7.5h7h250l13 -4q11 -7 12 -21v-50q0 -11 -6 -17.5t-12 -7.5h-7h-250q-63 0 -109 24q-73 39 -104 89q-12 21 -12 37q1 51 116 124q15 10 4 20q-7 6 -20 6h-75l-13 4q-11 7 -12 21v50q0 11 6 17.5t12 7.5h7h50l13 4q11 7 12 21v450
q0 11 -6 17.5t-12 7.5h-7h-50l-13 4q-11 7 -12 21v50q0 11 6 17.5t12 7.5h7z" />
    <glyph glyph-name="Idotaccent" unicode="&#x130;" 
d="M325 1200h150l13 -4q11 -7 12 -21v-150q0 -11 -6 -17.5t-12 -7.5h-7h-150l-13 4q-11 7 -12 21v150q0 11 6 17.5t12 7.5h7zM225 900h350l13 -4q11 -7 12 -21v-50q0 -11 -6 -17.5t-12 -7.5h-7h-50l-13 -4q-11 -7 -12 -21v-650q0 -11 6 -17.5t12 -7.5h7h50l13 -4
q11 -7 12 -21v-50q0 -11 -6 -17.5t-12 -7.5h-7h-350l-13 4q-11 7 -12 21v50q0 11 6 17.5t12 7.5h7h50l13 4q11 7 12 21v650q0 11 -6 17.5t-12 7.5h-7h-50l-13 4q-11 7 -12 21v50q0 11 6 17.5t12 7.5h7z" />
    <glyph glyph-name="dotlessi" unicode="&#x131;" 
d="M225 700h250l13 -4q11 -7 12 -21v-550q0 -11 6 -17.5t12 -7.5h7h50l13 -4q11 -7 12 -21v-50q0 -11 -6 -17.5t-12 -7.5h-7h-350l-13 4q-11 7 -12 21v50q0 11 6 17.5t12 7.5h7h50l13 4q11 7 12 21v450q0 11 -6 17.5t-12 7.5h-7h-50l-13 4q-11 7 -12 21v50q0 11 6 17.5
t12 7.5h7z" />
    <glyph glyph-name="IJ" unicode="&#x132;" 
d="M25 1000h150l13 -4q11 -7 12 -21v-950q0 -11 -6 -17.5t-12 -7.5h-7h-150l-13 4q-11 7 -12 21v950q0 11 6 17.5t12 7.5h7zM525 1000h250l13 -4q11 -7 12 -21v-700q0 -75 -18 -116q-1 -4 -2 -6q-37 -89 -116 -128q-55 -25 -114 -25q-64 0 -115 25q-79 40 -115 128
q-16 39 -19 82q-1 18 -1 40v100q0 11 6 17.5t12 7.5h7h150l13 -4q11 -7 12 -21v-225q0 -33 30 -46q10 -4 20 -4q33 0 46 30q4 10 4 20v725q0 11 -6 17.5t-12 7.5h-7h-50l-13 4q-11 7 -12 21v50q0 11 6 17.5t12 7.5h7zM548 0h2h-2z" />
    <glyph glyph-name="ij" unicode="&#x133;" 
d="M25 1000h150l13 -4q11 -7 12 -21v-150q0 -11 -6 -17.5t-12 -7.5h-7h-150l-13 4q-11 7 -12 21v150q0 11 6 17.5t12 7.5h7zM625 1000h150l13 -4q11 -7 12 -21v-150q0 -11 -6 -17.5t-12 -7.5h-7h-150l-13 4q-11 7 -12 21v150q0 11 6 17.5t12 7.5h7zM25 700h150l13 -4
q11 -7 12 -21v-650q0 -11 -6 -17.5t-12 -7.5h-7h-150l-13 4q-11 7 -12 21v650q0 11 6 17.5t12 7.5h7zM525 700h250l13 -4q11 -7 12 -21v-700q0 -75 -18 -116q-1 -4 -2 -6q-37 -89 -116 -128q-55 -25 -114 -25q-64 0 -115 25q-79 40 -115 128q-20 57 -20 122q0 11 6 17.5
t12 7.5h7h150l13 -4q11 -7 12 -21v-125q0 -33 30 -46q10 -4 20 -4q33 0 46 30q4 10 4 20v725q0 11 -6 17.5t-12 7.5h-7h-50l-13 4q-11 7 -12 21v50q0 11 6 17.5t12 7.5h7zM548 -300h2h-3h1z" />
    <glyph glyph-name="Jcircumflex" unicode="&#x134;" 
d="M450 1200q76 0 156 -62q5 -5 58 -48q52 -49 27 -77l-2 -2q-13 -11 -39 -11h-75q-29 0 -38 8q-3 3 -5 6q-12 13 -34 39q-39 47 -48 47t-50 -49q-21 -25 -32 -37q-8 -10 -15 -12t-28 -2h-75q-29 1 -39 11q-27 27 20 74l5 5q75 62 99 76q57 34 115 34zM325 900h350l13 -4
q11 -7 12 -21v-50q0 -11 -6 -17.5t-12 -7.5h-7h-50l-13 -4q-11 -7 -12 -21v-527q0 -59 -25 -112q-40 -80 -128 -116q-39 -16 -74 -18q-12 -1 -23 -2h-25h-50h-25q-54 2 -94 19q-2 1 -3 1q-89 37 -128 116q-25 54 -25 112v27q0 11 6 17.5t12 7.5h7h150l13 -4q11 -7 12 -21
v-125q0 -31 37 -44q18 -6 38 -6h50q57 0 72 35q3 8 3 15v625q0 11 -6 17.5t-12 7.5h-7h-50l-13 4q-11 7 -12 21v50q0 11 6 17.5t12 7.5h7z" />
    <glyph glyph-name="jcircumflex" unicode="&#x135;" 
d="M450 1100l175 -175v0q69 -70 74 -91q1 -5 1 -9q0 -11 -6 -17.5t-12 -7.5h-7h-100q-36 0 -60 22q-6 5 -15 14l-50 62l-50 -62q-29 -28 -47 -33q-12 -3 -28 -3h-100l-13 4q-11 7 -12 21q0 21 42 65q13 15 33 35v0zM325 700h250l13 -4q11 -7 12 -21v-726q0 -59 -25 -113
q-40 -79 -128 -116q-39 -16 -74 -18q-12 -1 -23 -2h-100q-54 2 -94 19q-2 1 -3 1q-89 38 -128 116q-25 55 -25 113v28q1 10 7 16t12 6l6 1h150l13 -4q11 -7 12 -21v-125q0 -31 37 -44q18 -6 38 -6h50q57 0 72 35q3 8 3 15v725q0 11 -6 17.5t-12 7.5h-7h-50l-13 4
q-11 7 -12 21v50q0 11 6 17.5t12 7.5h7z" />
    <glyph glyph-name="uni0136" unicode="&#x136;" 
d="M25 1000h250l13 -4q11 -7 12 -21v-75v-275l4 -13q7 -11 21 -12q66 1 148 143q20 35 24 75q2 24 3 66v92q0 11 6.5 17t12.5 6l6 1h75h50q22 0 34.5 -12.5t13.5 -25.5l2 -12v-75q0 -12 -0.5 -23t-1 -19.5t-2 -17.5t-2 -14t-3 -12t-3 -9.5t-3.5 -9t-3 -7t-4 -7.5l-3 -6
q-25 -48 -112 -136l-113 -114l113 -114q91 -92 112 -136q18 -38 22 -70q3 -24 3 -55v-75l-4 -21q-13 -28 -46 -29h-50h-75l-14 4q-10 8 -11 20v92q-2 91 -16 120q-4 9 -11 21q-82 143 -148 143q-11 0 -17.5 -6t-7.5 -12v-7v-275v-75q0 -11 -6 -17.5t-12 -7.5h-7h-250l-13 4
q-11 7 -12 21v50q0 11 6 17.5t12 7.5h7h50l13 4q11 7 12 21v750q0 11 -6 17.5t-12 7.5h-7h-50l-13 4q-11 7 -12 21v50q0 11 6 17.5t12 7.5h7zM353 0h4q68 -1 119 -22q5 -2 8 -4q73 -37 104 -87q12 -20 12 -37q0 -45 -71 -97q-22 -17 -45 -29q-47 -24 -109 -24h-250l-13 4
q-11 7 -12 21v50q0 11 6 17.5t12 7.5h7h250l13 4q11 7 12 21q0 21 -42 66q-13 14 -33 34q-21 21 -24 28q-1 4 -1 7q1 17 10 26q15 14 43 14z" />
    <glyph glyph-name="uni0137" unicode="&#x137;" 
d="M25 1000h250l13 -4q11 -7 12 -21v-75v-375l4 -13q7 -11 21 -12q25 0 75 50l100 114q29 28 47 33q12 3 28 3h100l13 -4q11 -7 12 -21q0 -21 -42 -66q-13 -14 -33 -34v0l-75 -75l-100 -100l113 -114q91 -92 112 -136q18 -38 22 -70q3 -24 3 -55q0 -11 -6 -17.5t-12 -7.5h-7
h-150l-13 4q-11 7 -12 21q0 80 -19 118q-3 7 -8 14q-82 143 -148 143q-11 0 -17.5 -6t-7.5 -12v-7v-175v-75q0 -11 -6 -17.5t-12 -7.5h-7h-250l-13 4q-11 7 -12 21v50q0 11 6 17.5t12 7.5h7h50l13 4q11 7 12 21v750q0 11 -6 17.5t-12 7.5h-7h-50l-13 4q-11 7 -12 21v50
q0 11 6 17.5t12 7.5h7zM353 0h4q68 -1 119 -22q5 -2 8 -4q73 -37 104 -87q12 -20 12 -37q0 -45 -71 -97q-22 -17 -45 -29q-47 -24 -109 -24h-250l-13 4q-11 7 -12 21v50q0 11 6 17.5t12 7.5h7h250l13 4q11 7 12 21q0 21 -42 66q-13 14 -33 34q-21 21 -24 28q-1 4 -1 7
q1 17 10 26q15 14 43 14z" />
    <glyph glyph-name="kgreenlandic" unicode="&#x138;" 
d="M25 700h250l13 -4q11 -7 12 -21v-75v-175l4 -13q7 -11 21 -12q66 1 148 143q23 40 26 93q1 17 1 39q0 11 6 17.5t12 7.5h7h150l13 -4q11 -7 12 -21q-1 -75 -22 -119l-3 -6q-22 -45 -112 -136l-63 -64l63 -64q91 -92 112 -136q18 -38 22 -70q3 -24 3 -55q0 -11 -6 -17.5
t-12 -7.5h-7h-150l-13 4q-11 7 -12 21q0 80 -19 118q-3 7 -8 14q-82 143 -148 143q-11 0 -17.5 -6t-7.5 -12v-7v-175v-75q0 -11 -6 -17.5t-12 -7.5h-7h-250l-13 4q-11 7 -12 21v50q0 11 6 17.5t12 7.5h7h50l13 4q11 7 12 21v450q0 11 -6 17.5t-12 7.5h-7h-50l-13 4
q-11 7 -12 21v50q0 11 6 17.5t12 7.5h7z" />
    <glyph glyph-name="Lacute" unicode="&#x139;" 
d="M25 1000h350l13 -4q11 -7 12 -21v-50q0 -11 -6 -17.5t-12 -7.5h-7h-50h-1q-22 -4 -24 -25v-175v-575q0 -11 6 -17.5t12 -7.5h7h75q63 0 130 62q20 19 34 38q7 9 19 27q38 55 59 67q11 5 22 6l20 -4q15 -7 16 -21v-250q0 -11 -6 -17.5t-12 -7.5h-7h-650l-13 4
q-11 7 -12 21v50q0 11 6 17.5t12 7.5h7h50l13 4q11 7 12 21v575v175q0 11 -6 17.5t-12 7.5h-7h-50l-13 4q-11 7 -12 21v50q0 11 6 17.5t12 7.5h7zM575 1000h100l13 -4q11 -7 12 -21q0 -21 -42 -66q-14 -15 -33 -34l-25 -25q-38 -38 -52 -45q-12 -5 -23 -5h-100l-13 4
q-11 7 -12 21q0 22 42 67l8 8l50 50q38 37 52 44q12 6 23 6z" />
    <glyph glyph-name="lacute" unicode="&#x13a;" 
d="M25 1000h250l13 -4q11 -7 12 -21v-75v-775q0 -11 6 -17.5t12 -7.5h7h50l13 -4q11 -7 12 -21v-50q0 -11 -6 -17.5t-12 -7.5h-7h-350l-13 4q-11 7 -12 21v50q0 11 6 17.5t12 7.5h7h50l13 4q11 7 12 21v750q0 11 -6 17.5t-12 7.5h-7h-50l-13 4q-11 7 -12 21v50q0 11 6 17.5
t12 7.5h7zM575 1000h100l13 -4q11 -7 12 -21q0 -21 -42 -66q-14 -15 -33 -34l-25 -25q-38 -38 -52 -45q-12 -5 -23 -5h-100l-13 4q-11 7 -12 21q0 22 42 67l8 8l50 50q38 37 52 44q12 6 23 6z" />
    <glyph glyph-name="uni013B" unicode="&#x13b;" 
d="M25 1000h350l13 -4q11 -7 12 -21v-50q0 -11 -6 -17.5t-12 -7.5h-7h-50h-1q-22 -4 -24 -25v-175v-575q0 -11 6 -17.5t12 -7.5h7h75q63 0 130 62q20 19 34 38q7 9 19 27q38 55 59 67q11 5 22 6l20 -4q15 -7 16 -21v-250q0 -11 -6 -17.5t-12 -7.5h-7h-175q-24 0 -24 -14
q1 -8 8 -12q73 -37 104 -87q12 -20 12 -37q0 -45 -71 -97q-22 -17 -45 -29q-47 -24 -109 -24h-250l-13 4q-11 7 -12 21v50q0 11 6 17.5t12 7.5h7h250l13 4q11 7 12 21q0 29 -53 80l-22 20q-43 38 -137 64q-39 11 -63 11h-100l-13 4q-11 7 -12 21v50q0 11 6 17.5t12 7.5h7h50
l13 4q11 7 12 21v575v175q0 11 -6 17.5t-12 7.5h-7h-50l-13 4q-11 7 -12 21v50q0 11 6 17.5t12 7.5h7z" />
    <glyph glyph-name="uni013C" unicode="&#x13c;" 
d="M225 1000h250l13 -4q11 -7 12 -21v-75v-775q0 -11 6 -17.5t12 -7.5h7h50l13 -4q11 -7 12 -21v-50q0 -11 -6 -17.5t-12 -7.5h-7h-75q-24 0 -24 -14q1 -8 8 -12q73 -37 104 -87q12 -20 12 -37q0 -45 -71 -97q-22 -17 -45 -29q-47 -24 -109 -24h-250l-13 4q-11 7 -12 21v50
q0 11 6 17.5t12 7.5h7h225q23 0 39 31q8 17 6 31q-6 31 -59 80q-62 57 -111 58l-13 4q-11 7 -12 21v25v25q0 11 6 17.5t12 7.5h7h50l13 4q11 7 12 21v750q0 11 -6 17.5t-12 7.5h-7h-50l-13 4q-11 7 -12 21v50q0 11 6 17.5t12 7.5h7z" />
    <glyph glyph-name="Lcaron" unicode="&#x13d;" 
d="M525 1100h150l13 -4q11 -7 12 -21v-50q0 -43 -14 -67l-9 -16q-30 -55 -94 -99q-20 -14 -36 -21q-48 -22 -97 -22q-30 1 -39 10q-22 22 5 54q4 4 7 8q30 33 48 59q24 46 28 78q1 12 1 24v42q0 11 6 17.5t12 7.5h7zM25 1000h350l13 -4q11 -7 12 -21v-50q0 -11 -6 -17.5
t-12 -7.5h-7h-50h-1q-22 -4 -24 -25v-175v-575q0 -11 6 -17.5t12 -7.5h7h75q63 0 130 62q20 19 34 38q7 9 19 27q38 55 59 67q11 5 22 6l20 -4q15 -7 16 -21v-250q0 -11 -6 -17.5t-12 -7.5h-7h-650l-13 4q-11 7 -12 21v50q0 11 6 17.5t12 7.5h7h50l13 4q11 7 12 21v575v175
q0 11 -6 17.5t-12 7.5h-7h-50l-13 4q-11 7 -12 21v50q0 11 6 17.5t12 7.5h7z" />
    <glyph glyph-name="lcaron" unicode="&#x13e;" 
d="M525 1100h150l13 -4q11 -7 12 -21v-50q0 -43 -14 -67l-9 -16q-30 -55 -94 -99q-20 -14 -36 -21q-48 -22 -97 -22q-30 1 -39 10q-22 22 5 54q4 4 7 8q30 33 48 59q24 46 28 78q1 12 1 24v42q0 11 6 17.5t12 7.5h7zM25 1000h250l13 -4q11 -7 12 -21v-75v-775q0 -11 6 -17.5
t12 -7.5h7h50l13 -4q11 -7 12 -21v-50q0 -11 -6 -17.5t-12 -7.5h-7h-350l-13 4q-11 7 -12 21v50q0 11 6 17.5t12 7.5h7h50l13 4q11 7 12 21v750q0 11 -6 17.5t-12 7.5h-7h-50l-13 4q-11 7 -12 21v50q0 11 6 17.5t12 7.5h7z" />
    <glyph glyph-name="Ldot" unicode="&#x13f;" 
d="M25 1000h350l13 -4q11 -7 12 -21v-50q0 -11 -6 -17.5t-12 -7.5h-7h-50h-1q-22 -4 -24 -25v-175v-575q0 -11 6 -17.5t12 -7.5h7h75q63 0 130 62q20 19 34 38q7 9 19 27q38 55 59 67q11 5 22 6l20 -4q15 -7 16 -21v-250q0 -11 -6 -17.5t-12 -7.5h-7h-650l-13 4
q-11 7 -12 21v50q0 11 6 17.5t12 7.5h7h50l13 4q11 7 12 21v575v175q0 11 -6 17.5t-12 7.5h-7h-50l-13 4q-11 7 -12 21v50q0 11 6 17.5t12 7.5h7zM525 700h150l13 -4q11 -7 12 -21v-150q0 -11 -6 -17.5t-12 -7.5h-7h-150l-13 4q-11 7 -12 21v150q0 11 6 17.5t12 7.5h7z" />
    <glyph glyph-name="ldot" unicode="&#x140;" 
d="M125 1000h250l13 -4q11 -7 12 -21v-75v-775q0 -11 6 -17.5t12 -7.5h7h50l13 -4q11 -7 12 -21v-50q0 -11 -6 -17.5t-12 -7.5h-7h-350l-13 4q-11 7 -12 21v50q0 11 6 17.5t12 7.5h7h50l13 4q11 7 12 21v750q0 11 -6 17.5t-12 7.5h-7h-50l-13 4q-11 7 -12 21v50q0 11 6 17.5
t12 7.5h7zM525 600h150l13 -4q11 -7 12 -21v-150q0 -11 -6 -17.5t-12 -7.5h-7h-150l-13 4q-11 7 -12 21v150q0 11 6 17.5t12 7.5h7z" />
    <glyph glyph-name="Lslash" unicode="&#x141;" 
d="M25 1000h350l13 -4q11 -7 12 -21v-50q0 -11 -6 -17.5t-12 -7.5h-7h-50h-1q-22 -4 -24 -25v-175v-50l50 50l150 150q53 49 75 50q11 0 17.5 -6t7.5 -12v-7v-100q0 -26 -37 -63q-2 -1 -5 -4l-8 -8l-125 -125q-69 -69 -125 -119v-331q0 -11 6 -17.5t12 -7.5h7h75
q63 0 130 62q20 19 34 38q7 9 19 27q38 55 59 67q11 5 22 6l20 -4q15 -7 16 -21v-250q0 -11 -6 -17.5t-12 -7.5h-7h-650l-13 4q-11 7 -12 21v50q0 11 6 17.5t12 7.5h7h50l13 4q11 7 12 21v226q-54 -50 -75 -51q-11 0 -17 6t-7 13l-1 6v100q0 26 38 63l4 4l8 8l50 50v150v175
q0 11 -6 17.5t-12 7.5h-7h-50l-13 4q-11 7 -12 21v50q0 11 6 17.5t12 7.5h7z" />
    <glyph glyph-name="lslash" unicode="&#x142;" 
d="M225 1000h250l13 -4q11 -7 12 -21v-75v-150l100 100q53 49 75 50q11 0 17.5 -6t7.5 -12v-7v-100q0 -26 -37 -63q-2 -1 -5 -4l-8 -8l-150 -149v-426q0 -11 6 -17.5t12 -7.5h7h50l13 -4q11 -7 12 -21v-50q0 -11 -6 -17.5t-12 -7.5h-7h-350l-13 4q-11 7 -12 21v50
q0 11 6 17.5t12 7.5h7h50l13 4q11 7 12 21v225l-75 -75q-69 -69 -91 -74q-5 -1 -9 -1q-11 0 -17 6t-7 13l-1 6v100q0 26 38 63l4 4l8 8l150 150v325q0 11 -6 17.5t-12 7.5h-7h-50l-13 4q-11 7 -12 21v50q0 11 6 17.5t12 7.5h7z" />
    <glyph glyph-name="Nacute" unicode="&#x143;" 
d="M475 1200h100l13 -4q11 -7 12 -21q0 -21 -42 -66q-14 -15 -33 -34l-25 -25q-38 -38 -52 -45q-12 -5 -23 -5h-100l-13 4q-11 7 -12 21q0 22 42 67l8 8l50 50q38 37 52 44q12 6 23 6zM25 900h40q61 0 114 -39q40 -30 121 -111l115 -115q33 -34 57 -35h3q11 0 17.5 6t7.5 12
v7v250q0 11 6 17.5t12 7.5h7h150l13 -4q11 -7 12 -21v-850q0 -11 -6 -17.5t-12 -7.5h-7h-150l-13 4q-11 7 -12 21v140q-3 62 -37 110q-29 40 -109 121q-91 92 -116 101q-7 3 -13 3q-11 0 -17.5 -6t-7.5 -12v-7v-450q0 -11 -6 -17.5t-12 -7.5h-7h-75h-75l-13 4q-11 7 -12 21
v850l4 13q7 11 21 12z" />
    <glyph glyph-name="nacute" unicode="&#x144;" 
d="M475 1100h100l13 -4q11 -7 12 -21q0 -21 -42 -66q-14 -15 -33 -34l-125 -125q-38 -38 -52 -45q-12 -5 -23 -5h-100l-13 4q-11 7 -12 21q0 22 42 67l8 8l150 150q38 37 52 44q12 6 23 6zM75 700q73 0 103 -24q13 -11 22 -26q28 -48 44 -50q15 -1 48 40l8 10q32 39 66 46
q17 3 43 4h41q54 -2 93 -19q2 -1 4 -1q89 -38 128 -116q25 -55 25 -113v-428q-1 -10 -7 -16t-12 -6l-6 -1h-150l-13 4q-11 7 -12 21v525q0 31 -37 44q-17 6 -38 6h-75l-21 -5q-28 -13 -29 -45v-525q0 -11 -6 -17.5t-12 -7.5h-7h-150l-13 4q-11 7 -12 21v550l-4 13
q-7 11 -21 12h-50l-13 4q-11 7 -12 21v50q0 11 6 17.5t12 7.5h7h29h12h9z" />
    <glyph glyph-name="uni0145" unicode="&#x145;" 
d="M25 1000h40q61 0 114 -39q40 -30 121 -111l115 -115q33 -34 57 -35h3q11 0 17.5 6t7.5 12v7v250q0 11 6 17.5t12 7.5h7h150l13 -4q11 -7 12 -21v-950q0 -11 -6 -17.5t-12 -7.5h-7h-150l-13 4q-11 7 -12 21v240q-3 62 -37 110q-29 40 -109 121q-91 92 -116 101q-7 3 -13 3
q-11 0 -17.5 -6t-7.5 -12v-7v-550q0 -11 -6 -17.5t-12 -7.5h-7h-75h-75l-13 4q-11 7 -12 21v950l4 13q7 11 21 12zM353 0h4q68 -1 119 -22q5 -2 8 -4q73 -37 104 -87q12 -20 12 -37q0 -45 -71 -97q-22 -17 -45 -29q-47 -24 -109 -24h-250l-13 4q-11 7 -12 21v50q0 11 6 17.5
t12 7.5h7h250l13 4q11 7 12 21q0 21 -42 66q-13 14 -33 34q-21 21 -24 28q-1 4 -1 7q1 17 10 26q15 14 43 14z" />
    <glyph glyph-name="uni0146" unicode="&#x146;" 
d="M75 700q73 0 103 -24q13 -11 22 -26q28 -48 44 -50q15 -1 48 40l8 10q32 39 66 46q17 3 43 4h41q54 -2 93 -19q2 -1 4 -1q89 -38 128 -116q25 -55 25 -113v-428q-1 -10 -7 -16t-12 -6l-6 -1h-150l-13 4q-11 7 -12 21v525q0 31 -37 44q-17 6 -38 6h-75l-21 -5
q-28 -13 -29 -45v-525q0 -11 -6 -17.5t-12 -7.5h-7h-150l-13 4q-11 7 -12 21v550l-4 13q-7 11 -21 12h-50l-13 4q-11 7 -12 21v50q0 11 6 17.5t12 7.5h7h29h12h9zM353 0h4q68 0 119 -22q4 -2 8 -3q73 -37 104 -88q11 -20 12 -37q0 -44 -71 -97q-22 -16 -45 -28
q-47 -24 -109 -25h-250l-13 4q-12 7 -12 21v50q0 11 6 17.5t13 7.5h6h250l13 4q11 7 12 21q0 21 -42 66q-14 15 -33 34q-22 22 -24 29q-1 4 -1 7q1 16 10 26q14 13 43 13z" />
    <glyph glyph-name="Ncaron" unicode="&#x147;" 
d="M150 1200h75q29 0 38 -8q3 -3 5 -6q12 -13 34 -39q39 -47 48 -47t50 49q21 25 32 37q8 10 15 12t28 2h75q29 -1 39 -11q27 -27 -20 -74l-5 -5q-75 -62 -99 -76q-57 -34 -115 -34q-76 0 -156 62q-5 5 -58 48q-52 49 -27 77l2 2q13 11 39 11zM25 900h40q61 0 114 -39
q40 -30 121 -111l115 -115q33 -34 57 -35h3q11 0 17.5 6t7.5 12v7v250q0 11 6 17.5t12 7.5h7h150l13 -4q11 -7 12 -21v-850q0 -11 -6 -17.5t-12 -7.5h-7h-150l-13 4q-11 7 -12 21v140q-3 62 -37 110q-29 40 -109 121q-91 92 -116 101q-7 3 -13 3q-11 0 -17.5 -6t-7.5 -12v-7
v-450q0 -11 -6 -17.5t-12 -7.5h-7h-75h-75l-13 4q-11 7 -12 21v850l4 13q7 11 21 12z" />
    <glyph glyph-name="ncaron" unicode="&#x148;" 
d="M150 1000h75q29 0 38 -8q3 -3 5 -6q12 -13 34 -39q39 -47 48 -47t50 49q21 25 32 37q8 10 15 12t28 2h75q29 -1 39 -11q27 -27 -20 -74l-5 -5q-75 -62 -99 -76q-57 -34 -115 -34q-76 0 -156 62q-5 5 -58 48q-52 49 -27 77l2 2q13 11 39 11zM75 700q73 0 103 -24
q13 -11 22 -26q28 -48 44 -50q15 -1 48 40l8 10q32 39 66 46q17 3 43 4h41q54 -2 93 -19q2 -1 4 -1q89 -38 128 -116q25 -55 25 -113v-428q-1 -10 -7 -16t-12 -6l-6 -1h-150l-13 4q-11 7 -12 21v525q0 31 -37 44q-17 6 -38 6h-75l-21 -5q-28 -13 -29 -45v-525
q0 -11 -6 -17.5t-12 -7.5h-7h-150l-13 4q-11 7 -12 21v550l-4 13q-7 11 -21 12h-50l-13 4q-11 7 -12 21v50q0 11 6 17.5t12 7.5h7h29h12h9z" />
    <glyph glyph-name="napostrophe" unicode="&#x149;" 
d="M125 1200h150l13 -4q11 -7 12 -21v-150q0 -43 -14 -67l-9 -16q-30 -55 -94 -99q-20 -14 -36 -21q-48 -22 -97 -22q-30 1 -39 10q-22 22 5 54q4 4 7 8q30 33 48 59q24 46 28 78q1 12 1 24v142q0 11 6 17.5t12 7.5h7zM75 700q73 0 103 -24q13 -11 22 -26q28 -48 44 -50
q15 -1 48 40l8 10q32 39 66 46q17 3 43 4h41q54 -2 93 -19q2 -1 4 -1q89 -38 128 -116q25 -55 25 -113v-428q-1 -10 -7 -16t-12 -6l-6 -1h-150l-13 4q-11 7 -12 21v525q0 31 -37 44q-17 6 -38 6h-75l-21 -5q-28 -13 -29 -45v-525q0 -11 -6 -17.5t-12 -7.5h-7h-150l-13 4
q-11 7 -12 21v550l-4 13q-7 11 -21 12h-50l-13 4q-11 7 -12 21v50q0 11 6 17.5t12 7.5h7h29h12h9z" />
    <glyph glyph-name="Eng" unicode="&#x14a;" 
d="M25 1000h40q61 0 114 -39q40 -30 121 -111l115 -115q33 -34 57 -35h3q11 0 17.5 6t7.5 12v7v250q0 11 6 17.5t12 7.5h7h150l13 -4q11 -7 12 -21v-1026q0 -59 -25 -113q-40 -79 -128 -116q-39 -16 -74 -18q-22 -2 -48 -2h-100l-13 4q-11 7 -12 21v50q0 11 6 17.5t12 7.5h7
h100q57 0 72 35q3 8 3 15v415q-3 62 -37 110q-29 40 -109 121q-91 92 -116 101q-7 3 -13 3q-11 0 -17.5 -6t-7.5 -12v-7v-550q0 -11 -6 -17.5t-12 -7.5h-7h-75h-75l-13 4q-11 7 -12 21v950l4 13q7 11 21 12z" />
    <glyph glyph-name="eng" unicode="&#x14b;" 
d="M75 700q73 0 103 -24q13 -11 22 -26q28 -48 44 -50q15 -1 48 40l8 10q32 39 66 46q17 3 43 4h41q54 -2 93 -19q2 -1 4 -1q89 -38 128 -116q25 -55 25 -113v-503q0 -59 -25 -112q-40 -80 -128 -116q-39 -16 -74 -18q-22 -2 -48 -2h-100l-13 4q-11 7 -12 21v50q0 11 6 17.5
t12 7.5h7h100q57 0 72 35q3 8 3 15v700q0 31 -37 44q-17 6 -38 6h-75l-21 -5q-28 -13 -29 -45v-525q0 -11 -6 -17.5t-12 -7.5h-7h-150l-13 4q-11 7 -12 21v550l-4 13q-7 11 -21 12h-50l-13 4q-11 7 -12 21v50q0 11 6 17.5t12 7.5h7h29h12h9z" />
    <glyph glyph-name="Omacron" unicode="&#x14c;" 
d="M125 1200h450l13 -4q11 -7 12 -21v-50q0 -11 -6 -17.5t-12 -7.5h-7h-450l-13 4q-11 7 -12 21v50q0 11 6 17.5t12 7.5h7zM275 1000h150q75 0 116 -18q4 -1 6 -2q89 -37 128 -116q25 -55 25 -112v-504q0 -58 -25 -112q-40 -80 -128 -116q-39 -16 -74 -18q-22 -2 -48 -2
h-150q-75 0 -116 18q-4 1 -6 2q-89 37 -128 116q-25 55 -25 112v504q0 58 25 112q40 80 128 116q39 16 74 18q21 2 48 2zM275 900q-57 0 -72 -35q-3 -8 -3 -15v-700q0 -31 37 -44q18 -6 38 -6h150q57 0 72 35q3 8 3 15v700q0 31 -37 44q-17 6 -38 6h-150z" />
    <glyph glyph-name="omacron" unicode="&#x14d;" 
d="M125 1000h450l13 -4q11 -7 12 -21v-50q0 -11 -6 -17.5t-12 -7.5h-7h-450l-13 4q-11 7 -12 21v50q0 11 6 17.5t12 7.5h7zM275 700h150q74 0 116 -18q4 -1 6 -2q89 -38 128 -116q25 -55 25 -113v-202v-1q0 -58 -25 -112q-40 -80 -128 -116q-39 -16 -73 -18q-22 -2 -49 -2
h-150q-74 0 -116 18q-4 1 -6 2q-89 38 -128 116q-25 55 -25 113v202v1q0 58 25 112q40 80 128 116q39 16 73 18q21 2 49 2zM275 600q-57 0 -72 -35q-3 -8 -3 -15v-400q0 -31 37 -44q17 -6 38 -6h150q57 0 72 35q3 8 3 15v400q0 31 -37 44q-17 6 -38 6h-150z" />
    <glyph glyph-name="Obreve" unicode="&#x14e;" 
d="M25 1200h50q55 0 73 -11q7 -4 24 -18q17 -13 28 -21q56 -40 81 -47q14 -3 29 -3h80q39 0 84 31q9 6 26 19q11 9 28 21q29 24 48 27q14 2 49 2h50l13 -4q11 -7 12 -21q0 -42 -82 -101q-57 -41 -113 -61q-38 -13 -155 -13q-119 0 -155 13q-83 29 -149 90q-45 43 -46 72
q0 11 6 17.5t12 7.5h7zM275 900h150q75 0 116 -18q4 -1 6 -2q89 -37 128 -116q25 -55 25 -112v-404q0 -58 -25 -112q-40 -80 -128 -116q-39 -16 -74 -18q-22 -2 -48 -2h-150q-75 0 -116 18q-4 1 -6 2q-89 37 -128 116q-25 55 -25 112v404q0 58 25 112q40 80 128 116
q39 16 74 18q21 2 48 2zM275 800q-57 0 -72 -35q-3 -8 -3 -15v-600q0 -31 37 -44q18 -6 38 -6h150q57 0 72 35q3 8 3 15v600q0 31 -37 44q-17 6 -38 6h-150z" />
    <glyph glyph-name="obreve" unicode="&#x14f;" 
d="M25 1000h50q55 0 73 -11q7 -4 24 -18q17 -13 28 -21q56 -40 81 -47q14 -3 29 -3h80q39 0 84 31q9 6 26 19q11 9 28 21q29 24 48 27q14 2 49 2h50l13 -4q11 -7 12 -21q0 -42 -82 -101q-57 -41 -113 -61q-38 -13 -155 -13q-119 0 -155 13q-83 29 -149 90q-45 43 -46 72
q0 11 6 17.5t12 7.5h7zM275 700h150q74 0 116 -18q4 -1 6 -2q89 -38 128 -116q25 -55 25 -113v-202v-1q0 -58 -25 -112q-40 -80 -128 -116q-39 -16 -73 -18q-22 -2 -49 -2h-150q-74 0 -116 18q-4 1 -6 2q-89 38 -128 116q-25 55 -25 113v202v1q0 58 25 112q40 80 128 116
q39 16 73 18q21 2 49 2zM275 600q-57 0 -72 -35q-3 -8 -3 -15v-400q0 -31 37 -44q17 -6 38 -6h150q57 0 72 35q3 8 3 15v400q0 31 -37 44q-17 6 -38 6h-150z" />
    <glyph glyph-name="Ohungarumlaut" unicode="&#x150;" 
d="M275 1200h100l13 -4q11 -7 12 -21q0 -21 -42 -66q-14 -15 -33 -34l-25 -25q-38 -38 -52 -45q-12 -5 -23 -5h-100l-13 4q-11 7 -12 21q0 22 42 67l8 8l50 50q38 37 52 44q12 6 23 6zM575 1200h100l13 -4q11 -7 12 -21q0 -21 -42 -66q-14 -15 -33 -34l-25 -25
q-38 -38 -52 -45q-12 -5 -23 -5h-100l-13 4q-11 7 -12 21q0 22 42 67l8 8l50 50q38 37 52 44q12 6 23 6zM275 900h150q75 0 116 -18q4 -1 6 -2q89 -37 128 -116q25 -55 25 -112v-404q0 -58 -25 -112q-40 -80 -128 -116q-39 -16 -74 -18q-22 -2 -48 -2h-150q-75 0 -116 18
q-4 1 -6 2q-89 37 -128 116q-25 55 -25 112v404q0 58 25 112q40 80 128 116q39 16 74 18q21 2 48 2zM275 800q-57 0 -72 -35q-3 -8 -3 -15v-600q0 -31 37 -44q18 -6 38 -6h150q57 0 72 35q3 8 3 15v600q0 31 -37 44q-17 6 -38 6h-150z" />
    <glyph glyph-name="ohungarumlaut" unicode="&#x151;" 
d="M275 1000h100l13 -4q11 -7 12 -21q0 -21 -42 -66q-14 -15 -33 -34l-25 -25q-38 -38 -52 -45q-12 -5 -23 -5h-100l-13 4q-11 7 -12 21q0 22 42 67l8 8l50 50q38 37 52 44q12 6 23 6zM575 1000h100l13 -4q11 -7 12 -21q0 -21 -42 -66q-14 -15 -33 -34l-25 -25
q-38 -38 -52 -45q-12 -5 -23 -5h-100l-13 4q-11 7 -12 21q0 22 42 67l8 8l50 50q38 37 52 44q12 6 23 6zM275 700h150q74 0 116 -18q4 -1 6 -2q89 -38 128 -116q25 -55 25 -113v-202v-1q0 -58 -25 -112q-40 -80 -128 -116q-39 -16 -73 -18q-22 -2 -49 -2h-150q-74 0 -116 18
q-4 1 -6 2q-89 38 -128 116q-25 55 -25 113v202v1q0 58 25 112q40 80 128 116q39 16 73 18q21 2 49 2zM275 600q-57 0 -72 -35q-3 -8 -3 -15v-400q0 -31 37 -44q17 -6 38 -6h150q57 0 72 35q3 8 3 15v400q0 31 -37 44q-17 6 -38 6h-150z" />
    <glyph glyph-name="OE" unicode="&#x152;" 
d="M275 1000h500l13 -4q11 -7 12 -21v-50q0 -11 -6 -17.5t-12 -7.5h-7h-150l-13 -4q-11 -7 -12 -21v-250l4 -13q7 -11 21 -12h150l13 -4q11 -7 12 -21v-50q0 -11 -6 -17.5t-12 -7.5h-7h-150q-11 0 -17.5 -6t-7.5 -12v-7v-350q0 -11 6 -17.5t12 -7.5h7h150l13 -4
q11 -7 12 -21v-50q0 -11 -6 -17.5t-12 -7.5h-7h-500q-75 0 -116 18q-4 1 -6 2q-89 37 -128 116q-25 55 -25 112v504q0 58 25 112q40 80 128 116q39 16 74 18q21 2 48 2zM275 900q-57 0 -72 -35q-3 -8 -3 -15v-700q0 -31 37 -44q18 -6 38 -6h100l13 4q11 7 12 21v750
q0 11 -6 17.5t-12 7.5h-7h-100z" />
    <glyph glyph-name="oe" unicode="&#x153;" 
d="M200 700q34 0 61 -12q52 -23 90 -77q2 -2 2 -4q34 44 82 68q56 25 115 25q63 0 114 -25q80 -40 116 -128q16 -39 18 -82q1 -18 2 -40v-100q0 -11 -6 -17.5t-12 -7.5h-7h-250l-13 -4q-11 -7 -12 -21q0 -56 93 -119q29 -20 50 -29q50 -22 95 -25q17 -2 37 -2l13 -4
q11 -7 12 -21v-50q0 -11 -6 -17.5t-12 -7.5h-7h-75q-152 1 -256 91q-33 -43 -80 -66q-55 -25 -114 -25q-64 0 -115 25q-79 40 -115 128q-16 39 -19 82q-1 18 -1 40v200q0 52 27 101q3 5 4 8q45 70 103 100q4 3 8 4q28 12 58 12zM550 700zM250 600q-33 0 -46 -30
q-4 -10 -4 -20v-400q0 -33 30 -46q10 -4 20 -4q33 0 46 30q4 10 4 20v400q0 33 -30 46q-10 4 -20 4zM550 600q-33 0 -46 -30q-4 -10 -4 -20v-100q0 -33 30 -46q10 -4 20 -4q33 0 46 30q4 10 4 20v100q0 33 -30 46q-10 4 -20 4zM248 0h2h-2z" />
    <glyph glyph-name="Racute" unicode="&#x154;" 
d="M375 1200h100l13 -4q11 -7 12 -21q0 -21 -42 -66q-14 -15 -33 -34l-25 -25q-38 -38 -52 -45q-12 -5 -23 -5h-100l-13 4q-11 7 -12 21q0 22 42 67l8 8l50 50q38 37 52 44q12 6 23 6zM25 900h400q75 0 116 -18q4 -1 6 -2q89 -37 128 -116q25 -55 25 -114v0q0 -64 -25 -115
q-18 -35 -45 -62q-22 -22 -26 -31.5t-4 -40.5v-1q0 -21 10 -42l3 -6q4 -8 6 -13q7 -14 24 -45q57 -108 57 -144v-75v-50q0 -11 -6 -17.5t-12 -7.5h-7h-150l-13 4q-11 7 -12 21v91q-2 91 -16 120q-4 9 -11 21q-82 143 -148 143q-11 0 -17.5 -6t-7.5 -12v-7v-275v-75
q0 -11 -6 -17.5t-12 -7.5h-7h-75h-175l-13 4q-11 7 -12 21v50q0 11 6 17.5t12 7.5h7h50l13 4q11 7 12 21v650q0 11 -6 17.5t-12 7.5h-7h-50l-13 4q-11 7 -12 21v50q0 11 6 17.5t12 7.5h7zM700 650zM325 800l-13 -4q-11 -7 -12 -21v-250q0 -12 6 -18t13 -7h6h100q57 0 72 35
q3 7 3 15v200q0 31 -37 44q-17 6 -38 6h-100z" />
    <glyph glyph-name="racute" unicode="&#x155;" 
d="M475 1100h100l13 -4q11 -7 12 -21q0 -21 -42 -66q-14 -15 -33 -34l-125 -125q-38 -38 -52 -45q-12 -5 -23 -5h-100l-13 4q-11 7 -12 21q0 22 42 67l8 8l150 150q38 37 52 44q12 6 23 6zM25 700h50q73 0 105 -27q11 -10 20 -23q29 -43 38 -48q13 -5 42 22l26 26
q51 49 111 50h33q90 0 163 -60q39 -33 62 -76q25 -49 25 -113v-26q0 -11 -6 -17.5t-12 -7.5h-7h-150l-13 4q-11 7 -12 21v150l-4 13q-7 11 -21 12q-66 -1 -148 -143q-20 -35 -24 -75q-2 -24 -3 -66v-91v-100q0 -11 6 -17.5t12 -7.5h7h50l13 -4q11 -7 12 -21v-50
q0 -11 -6 -17.5t-12 -7.5h-7h-350l-13 4q-11 7 -12 21v50q0 11 6 17.5t12 7.5h7h50l13 4q11 7 12 21v450l-4 13q-7 11 -21 12h-50l-13 4q-11 7 -12 21v50q0 11 6 17.5t12 7.5h7z" />
    <glyph glyph-name="uni0156" unicode="&#x156;" 
d="M25 1000h400q75 0 116 -18q4 -1 6 -2q89 -37 128 -116q25 -55 25 -114v0q0 -64 -25 -115q-18 -35 -45 -62q-22 -22 -26 -31.5t-4 -40.5v-1q0 -21 10 -42l3 -6q4 -8 6 -13q7 -14 24 -45q57 -108 57 -144v-75v-150q0 -11 -6 -17.5t-12 -7.5h-7h-150l-13 4q-11 7 -12 21v191
q-2 91 -16 120q-4 9 -11 21q-82 143 -148 143q-11 0 -17.5 -6t-7.5 -12v-7v-375v-75q0 -11 -6 -17.5t-12 -7.5h-7h-75h-175l-13 4q-11 7 -12 21v50q0 11 6 17.5t12 7.5h7h50l13 4q11 7 12 21v750q0 11 -6 17.5t-12 7.5h-7h-50l-13 4q-11 7 -12 21v50q0 11 6 17.5t12 7.5h7z
M700 750zM325 900l-13 -4q-11 -7 -12 -21v-250q0 -12 6 -18t13 -7h6h100q57 0 72 35q3 7 3 15v200q0 31 -37 44q-17 6 -38 6h-100zM353 0h4q68 -1 119 -22q5 -2 8 -4q73 -37 104 -87q12 -20 12 -37q0 -45 -71 -97q-22 -17 -45 -29q-47 -24 -109 -24h-250l-13 4q-11 7 -12 21
v50q0 11 6 17.5t12 7.5h7h250l13 4q11 7 12 21q0 21 -42 66q-13 14 -33 34q-21 21 -24 28q-1 4 -1 7q1 17 10 26q15 14 43 14z" />
    <glyph glyph-name="uni0157" unicode="&#x157;" 
d="M25 700h50q73 0 105 -27q11 -10 20 -23q29 -43 38 -48q13 -5 42 22l26 26q51 49 111 50h33q90 0 163 -60q39 -33 62 -76q25 -49 25 -113v-26q0 -11 -6 -17.5t-12 -7.5h-7h-150l-13 4q-11 7 -12 21v150l-4 13q-7 11 -21 12q-66 -1 -148 -143q-20 -35 -24 -75
q-2 -24 -3 -66v-91v-100q0 -11 6 -17.5t12 -7.5h7h50l13 -4q11 -7 12 -21v-50v-3q-1 -19 10 -22q3 -1 10 -3q34 -7 64 -23q75 -39 105 -89q11 -19 11 -35q0 -45 -71 -97q-22 -17 -45 -29q-47 -24 -109 -24h-250l-13 4q-11 7 -12 21v50q0 11 6 17.5t12 7.5h7h250l13 4
q11 7 12 21q0 29 -53 80l-22 20q-43 38 -137 64q-39 11 -63 11h-100l-13 4q-11 7 -12 21v50q0 11 6 17.5t12 7.5h7h50l13 4q11 7 12 21v450l-4 13q-7 11 -21 12h-50l-13 4q-11 7 -12 21v50q0 11 6 17.5t12 7.5h7z" />
    <glyph glyph-name="Rcaron" unicode="&#x158;" 
d="M150 1200h75q29 0 38 -8q3 -3 5 -6q12 -13 34 -39q39 -47 48 -47t50 49q21 25 32 37q8 10 15 12t28 2h75q29 -1 39 -11q27 -27 -20 -74l-5 -5q-75 -62 -99 -76q-57 -34 -115 -34q-76 0 -156 62q-5 5 -58 48q-52 49 -27 77l2 2q13 11 39 11zM25 900h400q75 0 116 -18
q4 -1 6 -2q89 -37 128 -116q25 -55 25 -114v0q0 -64 -25 -115q-18 -35 -45 -62q-22 -22 -26 -31.5t-4 -40.5v-1q0 -21 10 -42l3 -6q4 -8 6 -13q7 -14 24 -45q57 -108 57 -144v-75v-50q0 -11 -6 -17.5t-12 -7.5h-7h-150l-13 4q-11 7 -12 21v91q-2 91 -16 120q-4 9 -11 21
q-82 143 -148 143q-11 0 -17.5 -6t-7.5 -12v-7v-275v-75q0 -11 -6 -17.5t-12 -7.5h-7h-75h-175l-13 4q-11 7 -12 21v50q0 11 6 17.5t12 7.5h7h50l13 4q11 7 12 21v650q0 11 -6 17.5t-12 7.5h-7h-50l-13 4q-11 7 -12 21v50q0 11 6 17.5t12 7.5h7zM700 650zM325 800l-13 -4
q-11 -7 -12 -21v-250q0 -12 6 -18t13 -7h6h100q57 0 72 35q3 7 3 15v200q0 31 -37 44q-17 6 -38 6h-100z" />
    <glyph glyph-name="rcaron" unicode="&#x159;" 
d="M150 1000h75q29 0 38 -8q3 -3 5 -6q12 -13 34 -39q39 -47 48 -47t50 49q21 25 32 37q8 10 15 12t28 2h75q29 -1 39 -11q27 -27 -20 -74l-5 -5q-75 -62 -99 -76q-57 -34 -115 -34q-76 0 -156 62q-5 5 -58 48q-52 49 -27 77l2 2q13 11 39 11zM25 700h50q73 0 105 -27
q11 -10 20 -23q29 -43 38 -48q13 -5 42 22l26 26q51 49 111 50h33q90 0 163 -60q39 -33 62 -76q25 -49 25 -113v-26q0 -11 -6 -17.5t-12 -7.5h-7h-150l-13 4q-11 7 -12 21v150l-4 13q-7 11 -21 12q-66 -1 -148 -143q-20 -35 -24 -75q-2 -24 -3 -66v-91v-100q0 -11 6 -17.5
t12 -7.5h7h50l13 -4q11 -7 12 -21v-50q0 -11 -6 -17.5t-12 -7.5h-7h-350l-13 4q-11 7 -12 21v50q0 11 6 17.5t12 7.5h7h50l13 4q11 7 12 21v450l-4 13q-7 11 -21 12h-50l-13 4q-11 7 -12 21v50q0 11 6 17.5t12 7.5h7z" />
    <glyph glyph-name="Sacute" unicode="&#x15a;" 
d="M375 1200h100l13 -4q11 -7 12 -21q0 -21 -42 -66q-14 -15 -33 -34l-25 -25q-38 -38 -52 -45q-12 -5 -23 -5h-100l-13 4q-11 7 -12 21q0 22 42 67l8 8l50 50q38 37 52 44q12 6 23 6zM237 900h188q75 0 116 -18q4 -1 6 -2q89 -38 128 -116q25 -55 25 -113v-26v0
q0 -11 -6.5 -17.5t-12.5 -6.5l-6 -1h-150l-13 4q-11 7 -12 21v125q0 31 -37 44q-17 6 -38 6h-150h-1q-42 -1 -53 -12q-3 -2 -5 -4q-16 -18 -16 -49q0 -66 70 -142q55 -59 123 -89q14 -6 31 -15q111 -53 195 -146q66 -75 81 -143q4 -22 -14 -60q-30 -58 -113 -105
q-64 -35 -110 -35h-188q-75 0 -116 18q-4 1 -6 2q-89 38 -128 116q-25 55 -25 113v26v0q0 11 6.5 17.5t12.5 6.5l6 1h150l13 -4q11 -7 12 -21v-125q0 -31 37 -44q18 -6 38 -6h150h1q42 1 53 12q3 2 5 4q16 18 16 49q0 66 -70 142q-55 59 -123 89q-14 6 -31 15
q-111 53 -195 146q-66 75 -81 143q-4 22 14 60q30 58 113 105q64 35 110 35z" />
    <glyph glyph-name="sacute" unicode="&#x15b;" 
d="M475 1100h100l13 -4q11 -7 12 -21q0 -21 -42 -66q-14 -15 -33 -34l-125 -125q-38 -38 -52 -45q-12 -5 -23 -5h-100l-13 4q-11 7 -12 21q0 22 42 67l8 8l150 150q38 37 52 44q12 6 23 6zM275 700h75q119 0 155 -13q83 -29 149 -90q45 -43 46 -72q0 -11 -6 -17.5t-12 -7.5
h-7h-50q-55 0 -73 11q-7 4 -24 18q-17 13 -28 21q-49 36 -70 42q-27 8 -80 8h-100l-24 -4q-25 -12 -26 -36q0 -55 74 -96q12 -7 26 -14l100 -50q258 -132 295 -224q5 -14 5 -26q0 -32 -30 -67q-4 -5 -8 -8q-82 -75 -237 -75h-75q-119 0 -155 13q-83 29 -149 90
q-45 43 -46 72q0 11 6 17.5t12 7.5h7h50q55 0 73 -11q7 -4 24 -18q17 -13 28 -21q49 -36 70 -42q27 -8 80 -8h100l24 4q25 12 26 36q0 55 -74 96q-12 7 -26 14l-100 50q-258 132 -295 224q-5 14 -5 26q0 32 30 67q4 5 8 8q82 75 237 75z" />
    <glyph glyph-name="Scircumflex" unicode="&#x15c;" 
d="M350 1200q76 0 156 -62q5 -5 58 -48q52 -49 27 -77l-2 -2q-13 -11 -39 -11h-75q-29 0 -38 8q-3 3 -5 6q-12 13 -34 39q-39 47 -48 47t-50 -49q-21 -25 -32 -37q-8 -10 -15 -12t-28 -2h-75q-29 1 -39 11q-27 27 20 74l5 5q75 62 99 76q57 34 115 34zM237 900h188
q75 0 116 -18q4 -1 6 -2q89 -38 128 -116q25 -55 25 -113v-26v0q0 -11 -6.5 -17.5t-12.5 -6.5l-6 -1h-150l-13 4q-11 7 -12 21v125q0 31 -37 44q-17 6 -38 6h-150h-1q-42 -1 -53 -12q-3 -2 -5 -4q-16 -18 -16 -49q0 -66 70 -142q55 -59 123 -89q14 -6 31 -15
q111 -53 195 -146q66 -75 81 -143q4 -22 -14 -60q-30 -58 -113 -105q-64 -35 -110 -35h-188q-75 0 -116 18q-4 1 -6 2q-89 38 -128 116q-25 55 -25 113v26v0q0 11 6.5 17.5t12.5 6.5l6 1h150l13 -4q11 -7 12 -21v-125q0 -31 37 -44q18 -6 38 -6h150h1q42 1 53 12q3 2 5 4
q16 18 16 49q0 66 -70 142q-55 59 -123 89q-14 6 -31 15q-111 53 -195 146q-66 75 -81 143q-4 22 14 60q30 58 113 105q64 35 110 35z" />
    <glyph glyph-name="scircumflex" unicode="&#x15d;" 
d="M350 1100l175 -175v0q69 -70 74 -91q1 -5 1 -9q0 -11 -6 -17.5t-12 -7.5h-7h-100q-36 0 -60 22q-6 5 -15 14l-50 62l-50 -62q-29 -28 -47 -33q-12 -3 -28 -3h-100l-13 4q-11 7 -12 21q0 21 42 65q13 15 33 35v0zM275 700h75q119 0 155 -13q83 -29 149 -90q45 -43 46 -72
q0 -11 -6 -17.5t-12 -7.5h-7h-50q-55 0 -73 11q-7 4 -24 18q-17 13 -28 21q-49 36 -70 42q-27 8 -80 8h-100l-24 -4q-25 -12 -26 -36q0 -55 74 -96q12 -7 26 -14l100 -50q258 -132 295 -224q5 -14 5 -26q0 -32 -30 -67q-4 -5 -8 -8q-82 -75 -237 -75h-75q-119 0 -155 13
q-83 29 -149 90q-45 43 -46 72q0 11 6 17.5t12 7.5h7h50q55 0 73 -11q7 -4 24 -18q17 -13 28 -21q49 -36 70 -42q27 -8 80 -8h100l24 4q25 12 26 36q0 55 -74 96q-12 7 -26 14l-100 50q-258 132 -295 224q-5 14 -5 26q0 32 30 67q4 5 8 8q82 75 237 75z" />
    <glyph glyph-name="Scedilla" unicode="&#x15e;" 
d="M237 1000h188q75 0 116 -18q4 -1 6 -2q89 -38 128 -116q25 -55 25 -113v-26v0q0 -11 -6.5 -17.5t-12.5 -6.5l-6 -1h-150l-13 4q-11 7 -12 21v125q0 31 -37 44q-17 6 -38 6h-150h-1q-42 -1 -53 -12q-3 -2 -5 -4q-16 -18 -16 -49q0 -66 70 -142q55 -59 123 -89
q43 -18 93 -52q207 -149 214 -303q0 -59 -25 -113q-40 -79 -128 -116q-25 -10 -57 -16q-24 -5 1 -28q5 -4 9 -7q95 -74 100 -119q0 -45 -71 -97q-22 -17 -45 -29q-47 -24 -109 -24h-250l-13 4q-11 7 -12 21v50q0 11 6 17.5t12 7.5h7h250l13 4q11 7 12 21q0 21 -42 66
q-13 14 -33 34q-55 52 -172 95q-89 38 -128 116q-25 55 -25 113v26v0q0 11 6.5 17.5t12.5 6.5l6 1h150l13 -4q11 -7 12 -21v-125q0 -31 37 -44q18 -6 38 -6h150q57 0 72 35q3 8 3 15v99q-2 52 -18 84q-33 66 -107 123q-39 29 -75 44q-103 42 -194 132q-88 87 -106 168
q-4 22 14 60q30 58 113 105q64 35 110 35z" />
    <glyph glyph-name="scedilla" unicode="&#x15f;" 
d="M275 700h75q119 0 155 -13q83 -29 149 -90q45 -43 46 -72q0 -11 -6 -17.5t-12 -7.5h-7h-50q-55 0 -73 11q-7 4 -24 18q-17 13 -28 21q-49 36 -70 42q-27 8 -80 8h-100l-24 -4q-25 -12 -26 -36q0 -55 74 -96q12 -7 26 -14l100 -50q258 -132 295 -224q5 -14 5 -26
q0 -32 -30 -67q-4 -5 -8 -8q-62 -56 -161 -70q-22 -4 -15 -20q4 -9 14 -16q99 -72 100 -119q0 -45 -71 -97q-22 -17 -45 -29q-47 -24 -109 -24h-250l-13 4q-11 7 -12 21v50q0 11 6 17.5t12 7.5h7h250l13 4q11 7 12 21q0 21 -42 66q-13 14 -33 34q-24 24 -130 84
q-12 7 -22 13q-88 38 -142 96q-30 34 -31 57q0 11 6 17.5t12 7.5h7h50q55 0 73 -11q7 -4 24 -18q17 -13 28 -21q49 -36 70 -42q27 -8 80 -8h100l24 4q25 12 26 36q0 55 -74 96q-12 7 -26 14l-100 50q-258 132 -295 224q-5 14 -5 26q0 32 30 67q4 5 8 8q82 75 237 75z" />
    <glyph glyph-name="Scaron" unicode="&#x160;" 
d="M150 1200h75q29 0 38 -8q3 -3 5 -6q12 -13 34 -39q39 -47 48 -47t50 49q21 25 32 37q8 10 15 12t28 2h75q29 -1 39 -11q27 -27 -20 -74l-5 -5q-75 -62 -99 -76q-57 -34 -115 -34q-76 0 -156 62q-5 5 -58 48q-52 49 -27 77l2 2q13 11 39 11zM237 900h188q75 0 116 -18
q4 -1 6 -2q89 -38 128 -116q25 -55 25 -113v-26v0q0 -11 -6.5 -17.5t-12.5 -6.5l-6 -1h-150l-13 4q-11 7 -12 21v125q0 31 -37 44q-17 6 -38 6h-150h-1q-42 -1 -53 -12q-3 -2 -5 -4q-16 -18 -16 -49q0 -66 70 -142q55 -59 123 -89q14 -6 31 -15q111 -53 195 -146
q66 -75 81 -143q4 -22 -14 -60q-30 -58 -113 -105q-64 -35 -110 -35h-188q-75 0 -116 18q-4 1 -6 2q-89 38 -128 116q-25 55 -25 113v26v0q0 11 6.5 17.5t12.5 6.5l6 1h150l13 -4q11 -7 12 -21v-125q0 -31 37 -44q18 -6 38 -6h150h1q42 1 53 12q3 2 5 4q16 18 16 49
q0 66 -70 142q-55 59 -123 89q-14 6 -31 15q-111 53 -195 146q-66 75 -81 143q-4 22 14 60q30 58 113 105q64 35 110 35z" />
    <glyph glyph-name="scaron" unicode="&#x161;" 
d="M150 1000h75q29 0 38 -8q3 -3 5 -6q12 -13 34 -39q39 -47 48 -47t50 49q21 25 32 37q8 10 15 12t28 2h75q29 -1 39 -11q27 -27 -20 -74l-5 -5q-75 -62 -99 -76q-57 -34 -115 -34q-76 0 -156 62q-5 5 -58 48q-52 49 -27 77l2 2q13 11 39 11zM275 700h75q119 0 155 -13
q83 -29 149 -90q45 -43 46 -72q0 -11 -6 -17.5t-12 -7.5h-7h-50q-55 0 -73 11q-7 4 -24 18q-17 13 -28 21q-49 36 -70 42q-27 8 -80 8h-100l-24 -4q-25 -12 -26 -36q0 -55 74 -96q12 -7 26 -14l100 -50q258 -132 295 -224q5 -14 5 -26q0 -32 -30 -67q-4 -5 -8 -8
q-82 -75 -237 -75h-75q-119 0 -155 13q-83 29 -149 90q-45 43 -46 72q0 11 6 17.5t12 7.5h7h50q55 0 73 -11q7 -4 24 -18q17 -13 28 -21q49 -36 70 -42q27 -8 80 -8h100l24 4q25 12 26 36q0 55 -74 96q-12 7 -26 14l-100 50q-258 132 -295 224q-5 14 -5 26q0 32 30 67
q4 5 8 8q82 75 237 75z" />
    <glyph glyph-name="uni0162" unicode="&#x162;" 
d="M25 1000h750l13 -4q11 -7 12 -21v-250q0 -11 -9 -17.5t-18 -6.5l-9 -1q-30 1 -67 52q-5 7 -14 21q-13 18 -19 27q-72 99 -139 100l-13 -4q-11 -7 -12 -21v-325v-425q0 -11 6 -17.5t12 -7.5h7h50l13 -4q11 -7 12 -21v-50q0 -11 -6 -17.5t-12 -7.5h-7h-25q-46 0 -49 -18
q-1 -4 -1 -7q0 -6 30 -29q60 -45 68 -85q2 -9 2 -17q0 -61 -88 -107q-71 -37 -137 -37h-250l-13 4q-11 7 -12 21v50q0 11 6 17.5t12 7.5h7h250l13 4q11 7 12 21q0 79 -102 139q-31 18 -73 36q-21 9 -20 9q-5 5 -5 16v50q0 11 6 17.5t12 7.5h7h50l13 4q11 7 12 21v425v325
q0 11 -6 17.5t-12 7.5h-7q-68 -1 -139 -100q-7 -9 -19 -27q-38 -55 -59 -67q-11 -5 -22 -6l-20 4q-15 7 -16 21v250q0 11 6 17.5t12 7.5h7z" />
    <glyph glyph-name="uni0163" unicode="&#x163;" 
d="M375 1000q11 0 17.5 -6t7.5 -12v-7v-250l4 -13q7 -11 21 -12h150l13 -4q11 -7 12 -21v-50q0 -11 -6 -17.5t-12 -7.5h-7h-150q-11 0 -17.5 -6t-7.5 -12v-7v-443q0 -22 25 -30q7 -2 14 -2q16 1 61 46q1 1 40 41l12 9q11 4 22 4h42q68 0 79 -15q5 -9 5 -23q0 -30 -74 -84
q-54 -39 -110 -63q-6 -2 -56 -13q-22 -5 -7 -14q10 -6 31 -14q73 -37 104 -87q12 -20 12 -37q0 -45 -71 -97q-22 -17 -45 -29q-47 -24 -109 -24h-250l-13 4q-11 7 -12 21v50q0 11 6 17.5t12 7.5h7h250l13 4q11 7 12 21q0 21 -42 66q-13 14 -33 34q-21 21 -24 28q-1 4 -1 7
q1 17 10 26q15 14 47 14q12 0 12 8q-1 5 -6 8q-82 36 -130 107q-7 10 -12 20q-21 40 -21 107v325l-4 13q-7 11 -21 12h-150l-13 4q-11 7 -12 21v50q0 11 6 17.5t12 7.5h7h150q11 0 17.5 6t7.5 12v7q0 81 17 114q3 7 10 18q82 143 148 143z" />
    <glyph glyph-name="Tcaron" unicode="&#x164;" 
d="M200 1200q41 0 58 -11q12 -9 42 -39q38 -38 68 -46q15 -4 32 -4q49 0 91 41l9 9q40 40 55 46q14 4 70 4h50l13 -4q11 -7 12 -21q0 -43 -69 -100q-51 -42 -106 -62q-32 -11 -53 -12q-20 -1 -72 -1q-89 0 -108 7q-3 0 -8.5 2.5t-8.5 3.5q-80 28 -138 92q-36 41 -37 70
q0 11 6 17.5t12 7.5h7h50h16h9zM25 900h750l13 -4q11 -7 12 -21v-250q0 -11 -9 -17.5t-18 -6.5l-9 -1q-30 1 -67 52q-5 7 -14 21q-13 18 -19 27q-72 99 -139 100l-13 -4q-11 -7 -12 -21v-650q0 -11 6 -17.5t12 -7.5h7h50l13 -4q11 -7 12 -21v-50q0 -11 -6 -17.5t-12 -7.5h-7
h-350l-13 4q-11 7 -12 21v50q0 11 6 17.5t12 7.5h7h50l13 4q11 7 12 21v650q0 11 -6 17.5t-12 7.5h-7q-68 -1 -139 -100q-7 -9 -19 -27q-38 -55 -59 -67q-11 -5 -22 -6l-20 4q-15 7 -16 21v250q0 11 6 17.5t12 7.5h7z" />
    <glyph glyph-name="tcaron" unicode="&#x165;" 
d="M525 1100h150l13 -4q11 -7 12 -21v-50q0 -43 -14 -67l-9 -16q-30 -55 -94 -99q-20 -14 -36 -21q-48 -22 -97 -22q-30 1 -39 10q-22 22 5 54q4 4 7 8q30 33 48 59q24 46 28 78q1 12 1 24v42q0 11 6 17.5t12 7.5h7zM375 1000q11 0 17.5 -6t7.5 -12v-7v-250l4 -13
q7 -11 21 -12h150l13 -4q11 -7 12 -21v-50q0 -11 -6 -17.5t-12 -7.5h-7h-150q-11 0 -17.5 -6t-7.5 -12v-7v-443q0 -22 25 -30q7 -2 14 -2q16 1 61 46q1 1 40 41l12 9q11 4 22 4h42q68 0 79 -15q5 -9 5 -23q0 -30 -74 -84q-54 -39 -110 -63q-35 -14 -74 -15q-35 -1 -62 9
q-83 31 -138 102q-13 16 -21 32q-21 40 -21 107v325l-4 13q-7 11 -21 12h-150l-13 4q-11 7 -12 21v50q0 11 6 17.5t12 7.5h7h150q11 0 17.5 6t7.5 12v7q0 81 17 114q3 7 10 18q82 143 148 143z" />
    <glyph glyph-name="Tbar" unicode="&#x166;" 
d="M25 1000h750l13 -4q11 -7 12 -21v-250q0 -11 -9 -17.5t-18 -6.5l-9 -1q-30 1 -67 52q-5 7 -14 21q-13 18 -19 27q-72 99 -139 100l-13 -4q-11 -7 -12 -21v-350l4 -13q7 -11 21 -12h150l13 -4q11 -7 12 -21v-50q0 -11 -6 -17.5t-12 -7.5h-7h-150q-11 0 -17.5 -6t-7.5 -12
v-7v-250q0 -11 6 -17.5t12 -7.5h7h50l13 -4q11 -7 12 -21v-50q0 -11 -6 -17.5t-12 -7.5h-7h-350l-13 4q-11 7 -12 21v50q0 11 6 17.5t12 7.5h7h50l13 4q11 7 12 21v250l-4 13q-7 11 -21 12h-150l-13 4q-11 7 -12 21v50q0 11 6 17.5t12 7.5h7h150q11 0 17.5 6t7.5 12v7v350
q0 11 -6 17.5t-12 7.5h-7q-68 -1 -139 -100q-7 -9 -19 -27q-38 -55 -59 -67q-11 -5 -22 -6l-20 4q-15 7 -16 21v250q0 11 6 17.5t12 7.5h7z" />
    <glyph glyph-name="tbar" unicode="&#x167;" 
d="M375 1000q11 0 17.5 -6t7.5 -12v-7v-250l4 -13q7 -11 21 -12h150l13 -4q11 -7 12 -21v-50q0 -11 -6 -17.5t-12 -7.5h-7h-150q-11 0 -17.5 -6t-7.5 -12v-7v-50l4 -13q7 -11 21 -12h150l13 -4q11 -7 12 -21v-50q0 -11 -6 -17.5t-12 -7.5h-7h-150q-11 0 -17.5 -6t-7.5 -12
v-7v-243q0 -22 25 -30q7 -2 14 -2q16 1 61 46q1 1 40 41l12 9q11 4 22 4h42q68 0 79 -15q5 -9 5 -23q0 -30 -74 -84q-54 -39 -110 -63q-35 -14 -74 -15q-35 -1 -62 9q-83 31 -138 102q-13 16 -21 32q-21 40 -21 107v125l-4 13q-7 11 -21 12h-150l-13 4q-11 7 -12 21v50
q0 11 6 17.5t12 7.5h7h150q11 0 17.5 6t7.5 12v7v50l-4 13q-7 11 -21 12h-150l-13 4q-11 7 -12 21v50q0 11 6 17.5t12 7.5h7h150q11 0 17.5 6t7.5 12v7q0 81 17 114q3 7 10 18q82 143 148 143z" />
    <glyph glyph-name="Utilde" unicode="&#x168;" 
d="M283 1200q38 0 55 -6q32 -13 77 -72q17 -22 29 -22q18 0 55 47q25 32 34 41q15 12 42 12h75q49 -2 50 -38q0 -30 -75 -84q-54 -38 -109 -61q-39 -16 -88 -17h-10q-36 0 -56 7q-37 15 -68 60q-5 6 -8 12q-13 20 -28 21q-18 0 -57 -48q-24 -28 -33 -38q-8 -10 -15 -12
t-28 -2h-75q-29 1 -39 11q-27 27 20 74l5 5q63 59 149 94q36 15 82 16h16zM25 900h150l13 -4q11 -7 12 -21v-725q0 -31 37 -44q18 -6 38 -6h150q57 0 72 35q3 8 3 15v725q0 11 6 17.5t12 7.5h7h150l13 -4q11 -7 12 -21v-626q0 -59 -25 -113q-40 -79 -128 -116
q-39 -16 -74 -18q-22 -2 -48 -2h-150q-75 0 -116 18q-4 1 -6 2q-89 38 -128 116q-25 55 -25 113v626q0 11 6 17.5t12 7.5h7z" />
    <glyph glyph-name="utilde" unicode="&#x169;" 
d="M283 1000q38 0 55 -6q32 -13 77 -72q17 -22 29 -22q18 0 55 47q25 32 34 41q15 12 42 12h75q49 -2 50 -38q0 -30 -75 -84q-54 -38 -109 -61q-39 -16 -88 -17h-10q-36 0 -56 7q-37 15 -68 60q-5 6 -8 12q-13 20 -28 21q-18 0 -57 -48q-24 -28 -33 -38q-8 -10 -15 -12
t-28 -2h-75q-29 1 -39 11q-27 27 20 74l5 5q63 59 149 94q36 15 82 16h16zM25 700h150l13 -4q11 -7 12 -21v-525q0 -31 37 -44q18 -6 38 -6h75l21 5q28 13 29 45v525q0 11 6 17.5t12 7.5h7h150l13 -4q11 -7 12 -21v-550l4 -13q7 -11 21 -12h50l13 -4q11 -7 12 -21v-50
q0 -11 -6 -17.5t-12 -7.5h-7h-29h-12h-9q-73 0 -103 24q-13 11 -22 26q-28 48 -44 50q-15 1 -48 -40l-8 -10q-32 -39 -66 -46q-17 -3 -43 -4h-41q-54 2 -93 19q-2 1 -4 1q-89 38 -128 116q-25 55 -25 113v428q1 10 7 16t12 6z" />
    <glyph glyph-name="Umacron" unicode="&#x16a;" 
d="M25 1200h650l13 -4q11 -7 12 -21v-50q0 -11 -6 -17.5t-12 -7.5h-7h-650l-13 4q-11 7 -12 21v50q0 11 6 17.5t12 7.5h7zM25 1000h150l13 -4q11 -7 12 -21v-825q0 -31 37 -44q18 -6 38 -6h150q57 0 72 35q3 8 3 15v825q0 11 6 17.5t12 7.5h7h150l13 -4q11 -7 12 -21v-726
q0 -59 -25 -113q-40 -79 -128 -116q-39 -16 -74 -18q-22 -2 -48 -2h-150q-75 0 -116 18q-4 1 -6 2q-89 38 -128 116q-25 55 -25 113v726q0 11 6 17.5t12 7.5h7z" />
    <glyph glyph-name="umacron" unicode="&#x16b;" 
d="M25 1000h550l13 -4q11 -7 12 -21v-50q0 -11 -6 -17.5t-12 -7.5h-7h-550l-13 4q-11 7 -12 21v50q0 11 6 17.5t12 7.5h7zM25 700h150l13 -4q11 -7 12 -21v-525q0 -31 37 -44q18 -6 38 -6h75l21 5q28 13 29 45v525q0 11 6 17.5t12 7.5h7h150l13 -4q11 -7 12 -21v-550l4 -13
q7 -11 21 -12h50l13 -4q11 -7 12 -21v-50q0 -11 -6 -17.5t-12 -7.5h-7h-29h-12h-9q-73 0 -103 24q-13 11 -22 26q-28 48 -44 50q-15 1 -48 -40l-8 -10q-32 -39 -66 -46q-17 -3 -43 -4h-41q-54 2 -93 19q-2 1 -4 1q-89 38 -128 116q-25 55 -25 113v428q1 10 7 16t12 6z" />
    <glyph glyph-name="Ubreve" unicode="&#x16c;" 
d="M25 1200h50q55 0 73 -11q7 -4 24 -18q17 -13 28 -21q56 -40 81 -47q14 -3 29 -3h80q39 0 84 31q9 6 26 19q11 9 28 21q29 24 48 27q14 2 49 2h50l13 -4q11 -7 12 -21q0 -42 -82 -101q-57 -41 -113 -61q-38 -13 -155 -13q-119 0 -155 13q-83 29 -149 90q-45 43 -46 72
q0 11 6 17.5t12 7.5h7zM25 900h150l13 -4q11 -7 12 -21v-725q0 -31 37 -44q18 -6 38 -6h150q57 0 72 35q3 8 3 15v725q0 11 6 17.5t12 7.5h7h150l13 -4q11 -7 12 -21v-626q0 -59 -25 -113q-40 -79 -128 -116q-39 -16 -74 -18q-22 -2 -48 -2h-150q-75 0 -116 18q-4 1 -6 2
q-89 38 -128 116q-25 55 -25 113v626q0 11 6 17.5t12 7.5h7z" />
    <glyph glyph-name="ubreve" unicode="&#x16d;" 
d="M25 1000h50q55 0 73 -11q7 -4 24 -18q17 -13 28 -21q56 -40 81 -47q14 -3 29 -3h80q39 0 84 31q9 6 26 19q11 9 28 21q29 24 48 27q14 2 49 2h50l13 -4q11 -7 12 -21q0 -42 -82 -101q-57 -41 -113 -61q-38 -13 -155 -13q-119 0 -155 13q-83 29 -149 90q-45 43 -46 72
q0 11 6 17.5t12 7.5h7zM25 700h150l13 -4q11 -7 12 -21v-525q0 -31 37 -44q18 -6 38 -6h75l21 5q28 13 29 45v525q0 11 6 17.5t12 7.5h7h150l13 -4q11 -7 12 -21v-550l4 -13q7 -11 21 -12h50l13 -4q11 -7 12 -21v-50q0 -11 -6 -17.5t-12 -7.5h-7h-29h-12h-9q-73 0 -103 24
q-13 11 -22 26q-28 48 -44 50q-15 1 -48 -40l-8 -10q-32 -39 -66 -46q-17 -3 -43 -4h-41q-54 2 -93 19q-2 1 -4 1q-89 38 -128 116q-25 55 -25 113v428q1 10 7 16t12 6z" />
    <glyph glyph-name="Uring" unicode="&#x16e;" 
d="M350 1200q105 0 186 -56q63 -45 64 -94q0 -55 -76 -102q-79 -48 -174 -48q-105 0 -186 56q-63 45 -64 94q0 55 76 102q79 48 174 48zM350 1100q-33 0 -46 -30q-4 -10 -4 -20q0 -33 30 -46q10 -4 20 -4q33 0 46 30q4 10 4 20q0 33 -30 46q-10 4 -20 4zM25 800h150l13 -4
q11 -7 12 -21v-625q0 -31 37 -44q18 -6 38 -6h150q57 0 72 35q3 8 3 15v625q0 11 6 17.5t12 7.5h7h150l13 -4q11 -7 12 -21v-526q0 -59 -25 -113q-40 -79 -128 -116q-39 -16 -74 -18q-22 -2 -48 -2h-150q-75 0 -116 18q-4 1 -6 2q-89 38 -128 116q-25 55 -25 113v526
q0 11 6 17.5t12 7.5h7z" />
    </font>
</defs>
</svg>
